<svg xmlns="http://www.w3.org/2000/svg" width="85" height="32" viewBox="0 0 85 32" aria-hidden="true" focusable="false" role="img"><path d="M47.5,13.61v4.78a2.84,2.84,0,0,1-1.2,2.7,9,9,0,0,1-4.23.71h-4.9V10h4.89a8.79,8.79,0,0,1,4.19.74A3.06,3.06,0,0,1,47.5,13.61Zm-2.77,4.78V13.55a1.23,1.23,0,0,0-.67-1.19A4.87,4.87,0,0,0,42,12h-2.1v7.75h2a6.65,6.65,0,0,0,2.19-.25C44.54,19.38,44.73,19,44.73,18.39Z" style="fill:#fff"/><path d="M58.09,16.2v2.59a3.51,3.51,0,0,1-.27,1.45,2.64,2.64,0,0,1-.65.94,2.87,2.87,0,0,1-1,.52,6.16,6.16,0,0,1-1.16.22c-.35,0-.77,0-1.26,0s-.92,0-1.27,0a8.21,8.21,0,0,1-1.15-.22,2.93,2.93,0,0,1-1-.52,2.49,2.49,0,0,1-.65-.94,3.58,3.58,0,0,1-.26-1.45V16.2a4,4,0,0,1,.27-1.56,2.55,2.55,0,0,1,.68-1,2.51,2.51,0,0,1,1-.53,5.77,5.77,0,0,1,1.15-.24,15,15,0,0,1,2.45,0,5.63,5.63,0,0,1,1.15.24,2.64,2.64,0,0,1,1,.53,2.55,2.55,0,0,1,.68,1A3.85,3.85,0,0,1,58.09,16.2ZM55.5,19.09V15.78a1.3,1.3,0,0,0-.35-1,3.51,3.51,0,0,0-2.84,0,1.2,1.2,0,0,0-.37,1v3.31a1.19,1.19,0,0,0,.35,1,3.9,3.9,0,0,0,2.85,0A1.11,1.11,0,0,0,55.5,19.09Z" style="fill:#fff"/><path d="M68.57,16.2v2.59a3.51,3.51,0,0,1-.26,1.45,2.64,2.64,0,0,1-.65.94,3,3,0,0,1-1,.52,6.16,6.16,0,0,1-1.16.22c-.35,0-.77,0-1.26,0s-.92,0-1.27,0a8.21,8.21,0,0,1-1.15-.22,2.79,2.79,0,0,1-1-.52,2.62,2.62,0,0,1-.66-.94,3.58,3.58,0,0,1-.26-1.45V16.2a4,4,0,0,1,.27-1.56,2.66,2.66,0,0,1,.68-1,2.51,2.51,0,0,1,1-.53A5.77,5.77,0,0,1,63,12.89a15.15,15.15,0,0,1,2.46,0,5.69,5.69,0,0,1,1.14.24,2.76,2.76,0,0,1,1,.53,2.64,2.64,0,0,1,.67,1A4.24,4.24,0,0,1,68.57,16.2ZM66,19.09V15.78a1.27,1.27,0,0,0-.37-1,3.51,3.51,0,0,0-2.84,0,1.22,1.22,0,0,0-.35,1v3.31a1.19,1.19,0,0,0,.35,1,2.53,2.53,0,0,0,1.42.27,2.47,2.47,0,0,0,1.42-.27A1.14,1.14,0,0,0,66,19.09Z" style="fill:#fff"/><path d="M76.2,15h-.88a3.11,3.11,0,0,0-1.6.33,1.23,1.23,0,0,0-.54,1.15v5.27H70.59V13H73v1.55a1.58,1.58,0,0,1,.74-1.19,2.43,2.43,0,0,1,1.49-.53h.93Z" style="fill:#fff"/><path d="M85,18.38v1.11a2.31,2.31,0,0,1-.24,1.12,2,2,0,0,1-.6.74,2.89,2.89,0,0,1-1,.41,5.79,5.79,0,0,1-1.12.18c-.37,0-.79,0-1.27,0a24,24,0,0,1-3.38-.27V20a25.22,25.22,0,0,0,3.42.38A3.68,3.68,0,0,0,82,20.19a.6.6,0,0,0,.42-.6V19a.77.77,0,0,0-.23-.62,1.58,1.58,0,0,0-1-.21H80.12A3.46,3.46,0,0,1,78,17.65,1.88,1.88,0,0,1,77.27,16V15a1.65,1.65,0,0,1,1.12-1.65,8.64,8.64,0,0,1,3.14-.46c.57,0,1.58.05,3,.16v1.69c-1.84-.15-2.88-.22-3.12-.22a3.64,3.64,0,0,0-1.36.15.59.59,0,0,0-.28.59v.47a.47.47,0,0,0,.22.39,1,1,0,0,0,.68.19h1.14C84,16.27,85,17,85,18.38Z" style="fill:#fff"/><path d="M41.42,26.71V29a1.23,1.23,0,0,1-.18.68,1.1,1.1,0,0,1-.51.41,3.58,3.58,0,0,1-.64.18,3.51,3.51,0,0,1-.67.05c-1.32,0-2-.43-2-1.32V26.71c0-.93.67-1.4,2-1.4S41.42,25.8,41.42,26.71ZM40.73,29V26.7c0-.61-.43-.9-1.31-.9a3.58,3.58,0,0,0-.49,0,1.4,1.4,0,0,0-.41.13.7.7,0,0,0-.32.27.88.88,0,0,0-.1.45V29c0,.55.43.84,1.32.84S40.73,29.57,40.73,29Z" style="fill:#fff"/><path d="M46.37,30.24h-.66V29.8c-.08.34-.46.52-1.16.52a1.38,1.38,0,0,1-1-.26,1.08,1.08,0,0,1-.27-.78V26.63H44v2.61a1.43,1.43,0,0,0,0,.23.71.71,0,0,0,.08.18.43.43,0,0,0,.23.14,1.58,1.58,0,0,0,.41,0,2.24,2.24,0,0,0,.76-.09.41.41,0,0,0,.22-.39V26.63h.66Z" style="fill:#fff"/><path d="M50.56,30.27a4.32,4.32,0,0,1-.73.06,1.39,1.39,0,0,1-.93-.23,1.21,1.21,0,0,1-.27-.89V27.09h-.78v-.44h.78V25.53h.67v1.12h1.26v.44H49.31v2.16a.74.74,0,0,0,.14.52,1,1,0,0,0,.59.13l.53-.06v.43Z" style="fill:#fff"/><path d="M54.75,29v.31a.83.83,0,0,1-.4.8,2.35,2.35,0,0,1-1.14.22A9.11,9.11,0,0,1,52,30.23v-.52a8.29,8.29,0,0,0,1.23.14,1.63,1.63,0,0,0,.66-.09.33.33,0,0,0,.22-.35V29a.38.38,0,0,0-.16-.34,1,1,0,0,0-.49-.09H53a1.28,1.28,0,0,1-.84-.24.79.79,0,0,1-.29-.64V27.4c0-.57.53-.85,1.58-.85l1.07.06v.48a5.83,5.83,0,0,0-1.1-.11,1.45,1.45,0,0,0-.71.11.37.37,0,0,0-.19.34v.31c0,.25.22.37.65.37h.41C54.38,28.12,54.75,28.41,54.75,29Z" style="fill:#fff"/><path d="M59.62,27.85v1.26a1.59,1.59,0,0,1-.09.57.94.94,0,0,1-.2.36,1.06,1.06,0,0,1-.35.19,1.91,1.91,0,0,1-.44.09H58l-.69,0a2.48,2.48,0,0,1-.49-.15.67.67,0,0,1-.35-.37,1.82,1.82,0,0,1-.11-.68V27.85a1.76,1.76,0,0,1,.09-.6,1.12,1.12,0,0,1,.2-.38.9.9,0,0,1,.36-.21,1.91,1.91,0,0,1,.44-.09h1.1a1.91,1.91,0,0,1,.44.09.72.72,0,0,1,.35.21,1.12,1.12,0,0,1,.2.38A1.76,1.76,0,0,1,59.62,27.85Zm-.68,1.36V27.74c0-.33-.07-.54-.19-.61A1.61,1.61,0,0,0,58,27a1.49,1.49,0,0,0-.76.13c-.13.08-.19.28-.19.61v1.47a1.3,1.3,0,0,0,.05.38.33.33,0,0,0,.19.21.79.79,0,0,0,.29.08h.87a1.47,1.47,0,0,0,.28-.08.37.37,0,0,0,.2-.21A3.63,3.63,0,0,0,58.94,29.21Z" style="fill:#fff"/><path d="M64.53,30.24h-.65V29.8c-.07.34-.46.52-1.16.52a1.38,1.38,0,0,1-1-.26,1,1,0,0,1-.27-.78V26.63h.67v2.61a.82.82,0,0,0,0,.23.41.41,0,0,0,.1.18.43.43,0,0,0,.23.14,1.53,1.53,0,0,0,.41,0,2.14,2.14,0,0,0,.75-.09.4.4,0,0,0,.22-.39V26.63h.65v3.61Z" style="fill:#fff"/><path d="M68.42,27.14h-.36a1.34,1.34,0,0,0-.67.12.47.47,0,0,0-.21.44v2.56h-.66V26.64h.62v.6a.57.57,0,0,1,.32-.47,1.13,1.13,0,0,1,.65-.2h.32v.57Z" style="fill:#fff"/><path d="M72.41,30.22a5.44,5.44,0,0,1-1.14.11h-.5a3.92,3.92,0,0,1-.41-.07.65.65,0,0,1-.35-.19.86.86,0,0,1-.21-.34,1.6,1.6,0,0,1-.08-.57V27.82a2,2,0,0,1,.06-.52A1,1,0,0,1,70,27a1.65,1.65,0,0,1,.24-.22.72.72,0,0,1,.34-.11l.37-.05h.45a5,5,0,0,1,1,.11v.49A4.32,4.32,0,0,0,71.27,27a1.23,1.23,0,0,0-.71.14.73.73,0,0,0-.17.57V29.2a.59.59,0,0,0,.2.53,1.52,1.52,0,0,0,.76.13,5.12,5.12,0,0,0,1.07-.13v.49Z" style="fill:#fff"/><path d="M74.73,26h-.65v-.71h.65Zm0,4.21h-.65V26.63h.65Z" style="fill:#fff"/><path d="M79.76,30.25h-.65V27.63a1.27,1.27,0,0,0,0-.22.5.5,0,0,0-.1-.19.43.43,0,0,0-.23-.14,1.17,1.17,0,0,0-.41,0,1.56,1.56,0,0,0-.77.12.53.53,0,0,0-.19.47v2.61h-.65V26.62h.65v.44c.07-.34.46-.51,1.16-.51a1.37,1.37,0,0,1,1,.25,1.06,1.06,0,0,1,.27.78v2.67Z" style="fill:#fff"/><path d="M84.76,26.63v4a1.12,1.12,0,0,1-.42,1,2.46,2.46,0,0,1-1.26.27,6.75,6.75,0,0,1-1.22-.08v-.48a11.7,11.7,0,0,0,1.28.11,1.49,1.49,0,0,0,.73-.16.62.62,0,0,0,.23-.55v-.86c0,.17-.12.28-.34.36a2.45,2.45,0,0,1-.74.11,1.8,1.8,0,0,1-1.11-.25,1,1,0,0,1-.3-.85V27.77a1.13,1.13,0,0,1,.33-.92,1.73,1.73,0,0,1,1.11-.27c.62,0,1,.13,1.09.43v-.35h.62Zm-.66,2.64V27.63a.54.54,0,0,0-.18-.48,1.46,1.46,0,0,0-.77-.14,1.37,1.37,0,0,0-.71.12.59.59,0,0,0-.17.48v1.64a.58.58,0,0,0,.18.5,1.61,1.61,0,0,0,.72.11,1.44,1.44,0,0,0,.72-.13C84,29.67,84.1,29.51,84.1,29.27Z" style="fill:#fff"/><path d="M0,0V32l14.13-2.8V2.8ZM8.56,21.92H6.44V10H8.56Z" style="fill:#fff"/><path d="M17,2.8V29.2L31.16,32V0Zm11.44,9.05H25.14V21.91H23V11.85H19.72V10h8.76Z" style="fill:#fff"/></svg>