<svg xmlns="http://www.w3.org/2000/svg" width="26" height="26" viewBox="0 0 26 26" aria-hidden="true" focusable="false" fill="currentColor"><path d="M9.5,11.56a1,1,0,0,0,.5-.87v-9A1,1,0,0,0,9.58.87,1,1,0,0,0,8.66.74,13,13,0,0,0,.22,15.38a1,1,0,0,0,.56.72,1,1,0,0,0,.42.09,1,1,0,0,0,.5-.13Zm-6-4.06A11,11,0,0,1,8,3.2v6.91L2,13.57A11.07,11.07,0,0,1,3.48,7.5Z"/><path d="M24.27,6.53a0,0,0,0,0,0,0h0A13,13,0,0,0,13,0a1,1,0,0,0-1,1V12.42L2.11,18.13a1,1,0,0,0-.37,1.37s0,0,0,0a.09.09,0,0,0,0,.05A13,13,0,0,0,13,26h.08A13,13,0,0,0,26,13,12.89,12.89,0,0,0,24.27,6.53ZM14,2.07a10.77,10.77,0,0,1,8,4.6l-8,4.6Zm8.55,16.39A11,11,0,0,1,4,19.33L23,8.4A10.94,10.94,0,0,1,24,13,11.12,11.12,0,0,1,22.55,18.46Z"/></svg>