<svg xmlns="http://www.w3.org/2000/svg" width="22" height="28" viewBox="0 0 22 28" aria-hidden="true" focusable="false" fill="currentColor"><path d="M9.88,11h2.25a.81.81,0,0,1,.59.27,1.09,1.09,0,0,1,0,1.46.81.81,0,0,1-.59.27H8.75a1,1,0,0,0,0,2H10v1a1,1,0,0,0,2,0V15h.13a2.85,2.85,0,0,0,2-.9,3.1,3.1,0,0,0,0-4.2,2.85,2.85,0,0,0-2-.9H9.88a.82.82,0,0,1-.6-.27,1.09,1.09,0,0,1,0-1.46A.82.82,0,0,1,9.88,7h3.37a1,1,0,0,0,0-2H12V4a1,1,0,0,0-2,0V5H9.88a2.86,2.86,0,0,0-2.06.9,3.1,3.1,0,0,0,0,4.2A2.86,2.86,0,0,0,9.88,11Z"/><path d="M18,0H4A4,4,0,0,0,0,4V24a4,4,0,0,0,4,4H18a4,4,0,0,0,4-4V4A4,4,0,0,0,18,0Zm2,24a2,2,0,0,1-2,2H4a2,2,0,0,1-2-2V4A2,2,0,0,1,4,2H18a2,2,0,0,1,2,2Z"/><path d="M16,18H6a1,1,0,0,0,0,2H16a1,1,0,0,0,0-2Z"/><path d="M16,22H6a1,1,0,0,0,0,2H16a1,1,0,0,0,0-2Z"/></svg>