<svg xmlns="http://www.w3.org/2000/svg" viewBox="0 0 367 312"><path d="M68.68 95.89l-1.42.84a.58.58 0 01-.6 0l-1.3-.73c-.12-.12-.24-.23 0-.35l1.42-.83a.52.52 0 01.59 0l1.31.71a.22.22 0 010 .36zM71.88 97.79l-1.42.84a.58.58 0 01-.6 0l-1.3-.72c-.12-.12-.24-.23 0-.35l1.44-.83a.54.54 0 01.6 0l1.3.71a.22.22 0 01-.02.35zM68.44 99.81l-1.42.83a.54.54 0 01-.6 0l-1.3-.71c-.12-.12-.24-.24 0-.35l1.42-.84a.58.58 0 01.6 0l1.3.72a.22.22 0 010 .35zM75.2 99.69l-1.42.84a.56.56 0 01-.59 0l-1.31-.72c-.12-.12-.24-.23 0-.35l1.42-.83a.54.54 0 01.6 0l1.3.71a.22.22 0 010 .35zM71.76 101.71l-1.42.83a.52.52 0 01-.59 0l-1.31-.71c-.12-.12-.24-.24 0-.36l1.43-.83a.56.56 0 01.59 0l1.3.72a.22.22 0 010 .35zM78.64 101.71l-1.42.83a.52.52 0 01-.59 0l-1.31-.71c-.12-.12-.24-.24 0-.36l1.42-.83a.58.58 0 01.6 0l1.3.72a.22.22 0 010 .35zM75.2 103.73l-1.42.83a.52.52 0 01-.59 0l-1.31-.71c-.12-.12-.24-.24 0-.36l1.42-.83a.54.54 0 01.6 0l1.3.72a.22.22 0 010 .35zM82 103.61l-1.42.83a.52.52 0 01-.59 0l-1.31-.71c-.12-.12-.23-.24 0-.35l1.43-.84a.56.56 0 01.59 0l1.3.72a.22.22 0 010 .35zM78.52 105.63l-1.42.83a.52.52 0 01-.59 0l-1.31-.71c-.12-.12-.23-.24 0-.36l1.43-.83a.52.52 0 01.59 0l1.3.72a.22.22 0 010 .35zM85.17 105.51l-1.43.84a.56.56 0 01-.59 0l-1.3-.72c-.12-.12-.24-.24 0-.35l1.42-.84a.56.56 0 01.59 0l1.31.72a.23.23 0 010 .35zM81.73 107.53l-1.43.83a.52.52 0 01-.59 0l-1.31-.71c-.11-.12-.23-.24 0-.36l1.43-.83a.52.52 0 01.59 0l1.31.72a.23.23 0 010 .35zM58.6 90.07l-1.43.72a.52.52 0 01-.59 0l-1.31-.72c-.11-.11-.23-.23 0-.35l1.43-.83a.52.52 0 01.59 0l1.31.71c.11.24.11.4 0 .47zM62 92l-1.43.84a.52.52 0 01-.59 0l-1.31-.72c-.11-.12-.23-.23 0-.35l1.43-.83a.52.52 0 01.59 0l1.31.71c.15.21.27.35 0 .35zM58.6 94l-1.43.83a.52.52 0 01-.59 0l-1.31-.71c-.11-.12-.23-.24 0-.35l1.43-.84a.56.56 0 01.59 0l1.31.72c.11.11.11.35 0 .35zM65.36 93.88l-1.43.83a.52.52 0 01-.59 0L62 94c-.12-.11-.24-.23 0-.35l1.42-.83a.52.52 0 01.59 0l1.31.71c.16.11.16.35.04.35zM61.92 95.89l-1.43.84a.56.56 0 01-.59 0L58.6 96c-.12-.12-.24-.23 0-.35l1.4-.82a.52.52 0 01.59 0l1.31.71a.22.22 0 01.02.35zM65.12 97.79l-1.42.84a.58.58 0 01-.6 0l-1.3-.72c-.12-.12-.24-.23 0-.35l1.42-.83a.54.54 0 01.6 0l1.3.71c.24.12.24.24 0 .35zM88.61 107.53l-1.43.83a.52.52 0 01-.59 0l-1.31-.71c-.11-.12-.23-.24 0-.36l1.43-.83a.52.52 0 01.59 0l1.31.72c.11.11.23.23 0 .35zM85.17 109.43l-1.43.83a.52.52 0 01-.59 0l-1.3-.71c-.12-.12-.24-.24 0-.36l1.42-.83a.52.52 0 01.59 0l1.31.72c.11.23.23.35 0 .35zM92.16 105.51l-1.42.84a.56.56 0 01-.59 0l-1.31-.72c-.12-.12-.23-.24 0-.35l1.43-.84a.56.56 0 01.59 0l1.3.72a.22.22 0 010 .35zM95.6 103.49l-1.42.83a.52.52 0 01-.59 0l-1.31-.71c-.12-.12-.23-.23 0-.35l1.43-.83a.52.52 0 01.59 0l1.3.71a.22.22 0 010 .35zM99 101.47l-1.42.84a.52.52 0 01-.59 0l-1.31-.72c-.12-.12-.23-.23 0-.35l1.43-.83a.52.52 0 01.59 0l1.3.71c.16.12.16.35 0 .35zM102.49 99.58l-1.43.71a.52.52 0 01-.59 0l-1.31-.71c-.12-.12-.23-.24 0-.36l1.43-.83a.52.52 0 01.59 0l1.31.71c.11.24.11.36 0 .48zM105.92 97.56l-1.42.83a.52.52 0 01-.59 0l-1.31-.71c-.12-.12-.23-.24 0-.36l1.43-.83a.52.52 0 01.59 0l1.3.71a.22.22 0 010 .36zM109.36 95.54l-1.42.83a.52.52 0 01-.59 0l-1.35-.71c-.11-.12-.23-.24 0-.36l1.43-.83a.52.52 0 01.59 0l1.3.71a.22.22 0 01.04.36zM112.8 93.52l-1.42.83a.52.52 0 01-.59 0l-1.31-.71c-.12-.12-.23-.24 0-.36l1.43-.83a.52.52 0 01.59 0l1.3.71a.22.22 0 010 .36zM116.24 91.5l-1.42.83a.52.52 0 01-.59 0l-1.31-.71c-.12-.12-.24-.24 0-.36l1.43-.83a.52.52 0 01.59 0l1.3.71c.12.12.12.36 0 .36zM119.68 89.6l-1.42.83a.52.52 0 01-.59 0l-1.31-.71c-.12-.12-.23-.24 0-.36l1.43-.83a.52.52 0 01.59 0l1.3.71a.22.22 0 010 .36zM91.93 109.43l-1.43.83a.52.52 0 01-.59 0l-1.3-.71c-.12-.12-.24-.24 0-.36l1.42-.83a.52.52 0 01.59 0l1.31.72a.22.22 0 010 .35zM95.37 107.41l-1.43.84a.56.56 0 01-.59 0l-1.3-.72c-.12-.12-.24-.24 0-.35l1.42-.84a.56.56 0 01.59 0l1.31.72a.22.22 0 010 .35zM98.81 105.39l-1.43.84a.56.56 0 01-.59 0l-1.3-.72c-.12-.12-.24-.23 0-.35l1.42-.83a.52.52 0 01.59 0l1.31.71a.22.22 0 010 .35zM102.25 103.38l-1.43.83a.56.56 0 01-.59 0l-1.3-.72c-.12-.11-.24-.23 0-.35l1.42-.83a.52.52 0 01.59 0l1.31.71c.12.12.24.36 0 .36zM105.69 101.36l-1.43.83a.52.52 0 01-.59 0l-1.31-.72c-.11-.11-.23-.23 0-.35l1.43-.83a.52.52 0 01.59 0l1.31.71c.12.24.23.36 0 .36zM109.13 99.46l-1.43.83a.52.52 0 01-.59 0l-1.3-.71c-.12-.12-.24-.24 0-.36l1.42-.83a.52.52 0 01.59 0l1.31.71q.35.18 0 .36zM112.69 97.44l-1.43.83a.52.52 0 01-.59 0l-1.31-.71c-.11-.12-.23-.24 0-.36l1.43-.83a.52.52 0 01.59 0l1.31.71a.24.24 0 010 .36zM116.13 95.42l-1.43.83a.52.52 0 01-.59 0l-1.31-.71c-.12-.12-.23-.24 0-.36l1.43-.83a.52.52 0 01.59 0l1.31.71a.24.24 0 010 .36zM119.57 93.4l-1.43.83a.52.52 0 01-.59 0l-1.31-.71c-.11-.12-.23-.24 0-.36l1.43-.83a.52.52 0 01.59 0l1.31.71c.11.12.11.36 0 .36zM115.29 83.07h-1.77l-24.8-14.25a5.69 5.69 0 00-5-.24L58.83 83h-.12l-1.89.12a.12.12 0 00-.12.12v1.54a2 2 0 001.18 1.66L83.27 101a5.69 5.69 0 005 .24l26.1-15.08c.59-.36.83-.72.83-1.19v-1.19z" fill="#15282f"/><path d="M86.35 102.66a6.08 6.08 0 01-3.2-.83L57.77 87.22a3 3 0 01-1.55-1.9v-2a.82.82 0 01.83-.84l1.66-.11L83.51 68a6.09 6.09 0 015.69.23l24.55 14.25h2.14l.24 1.55v1.19a2.36 2.36 0 01-1.19 1.78l-26.1 15.08a5.45 5.45 0 01-2.49.58zm-28.7-18.17V85c0 .35.35.71.83 1.07l25.38 14.6a4.91 4.91 0 004.27.24l26.1-15.08a.81.81 0 00.47-.59V83.9h-1.19l-.23-.12-24.79-14.25a5 5 0 00-4.27-.24l-25 14.37H59l-1.3.12z" fill="#15282f"/><path d="M114.58 84.49L88.49 99.58a5.69 5.69 0 01-5-.24L58.12 84.73c-1.42-.83-1.66-2.14-.35-2.85L83.86 66.8a5.69 5.69 0 015 .24l25.39 14.6c1.4.72 1.64 2.02.33 2.85z" fill="#fff"/><path d="M86.35 100.76a6.08 6.08 0 01-3.2-.83L57.77 85.32a2.61 2.61 0 01-1.55-2.25 2.43 2.43 0 011.19-1.9l26.1-15.08a6 6 0 015.69.23l25.38 14.61a2.62 2.62 0 011.55 2.26 2.44 2.44 0 01-1.19 1.9l-26.1 15.08a5.45 5.45 0 01-2.49.59zM86 66.92a4 4 0 00-1.78.35l-26.1 15.09a.75.75 0 00-.47.59c0 .24.23.59.83 1l25.38 14.56a4.94 4.94 0 004.27.23l26.1-15.08a.79.79 0 00.47-.59c0-.24-.24-.6-.83-.95L88.49 67.51a6 6 0 00-2.49-.59z" fill="#15282f"/><path d="M86.83 100.17h-1.19v1.66h1.19zM59.78 85.44H58.6v1.67h1.18zM63.34 87.46h-1.19v1.67h1.19zM113.87 85.32h-1.18V87h1.18zM104.26 78.67l-.12-.35L93.11 37h-14l-11 41.68v.12c-1.06 3.45.72 7 5.11 9.62 7.11 4.28 18.86 4.28 26 0 4.33-2.62 6.11-6.3 5.04-9.75z" fill="#f9550f"/><path d="M86.23 92.45a26.09 26.09 0 01-13.4-3.33c-4.63-2.73-6.64-6.53-5.46-10.45v-.11l11.27-42.28h15.18L105 78.56c1.19 3.91-.83 7.83-5.45 10.56a26 26 0 01-13.32 3.33zM79.71 37.7L68.8 79c-1 3.21.83 6.41 4.74 8.79 7 4.16 18.27 4.16 25.27 0 3.91-2.38 5.69-5.7 4.74-8.91l-.12-.35L92.64 37.7z" fill="#15282f"/><path d="M91.1 34c2.72 1.66 2.72 4.28 0 5.94a10.6 10.6 0 01-10 0c-2.73-1.66-2.73-4.28 0-5.94a10.6 10.6 0 0110 0z" fill="#fff"/><path d="M86.23 42a11.45 11.45 0 01-5.33-1.31 4.35 4.35 0 01-2.38-3.56 4.06 4.06 0 012.38-3.56 11.33 11.33 0 0110.67 0 4.36 4.36 0 012.37 3.56 4.08 4.08 0 01-2.37 3.56A11.46 11.46 0 0186.23 42zm0-8.43a8.65 8.65 0 00-4.62 1.18A3.11 3.11 0 0080 37.11a3.11 3.11 0 001.66 2.38 9.6 9.6 0 009.13 0 3.11 3.11 0 001.66-2.38 3.11 3.11 0 00-1.66-2.38 8 8 0 00-4.56-1.18z" fill="#15282f"/><path d="M89.32 35.45a8.26 8.26 0 00-6.29 0c-1.78.83-1.78 2.13 0 3a8.26 8.26 0 006.29 0c1.68-.87 1.68-2.17 0-3z" fill="#f9550f"/><path d="M86.12 39.72a8 8 0 01-3.44-.72c-1.55-.71-1.78-1.66-1.78-2.14s.23-1.42 1.78-2.14a8.66 8.66 0 016.88 0c1.54.72 1.77 1.67 1.77 2.14S91.1 38.3 89.56 39a7.69 7.69 0 01-3.44.72zm0-4.15a7.1 7.1 0 00-2.85.59c-.59.24-.83.59-.83.83s.24.48.83.83a7.87 7.87 0 005.69 0c.6-.24.83-.59.83-.83s-.23-.47-.83-.83a6.67 6.67 0 00-2.84-.59z" fill="#15282f"/><path d="M98.21 55.87l-2.37-8.79c.36 1.79-.47 3.57-2.73 4.87a14.81 14.81 0 01-13.76 0c-2.25-1.3-3.2-3.2-2.72-4.87L75 53.26l-.71 2.85c-.59 2.26.48 4.75 3.44 6.53 4.75 2.85 12.58 2.85 17.44 0 2.83-1.78 3.83-4.27 3.04-6.77z" fill="#fff"/><path d="M86.23 65.61a17.17 17.17 0 01-9-2.26c-3.09-1.9-4.51-4.63-3.8-7.36l2.49-9.62h1.43l-.24 1c-.36 1.55.59 3 2.37 4.16a14.07 14.07 0 0013 0c1.9-1.07 2.73-2.61 2.37-4.16l-.24-1h1.43l.12.6 2.37 8.78c1 2.85-.36 5.7-3.68 7.72a16.09 16.09 0 01-8.62 2.14zm-9.84-15.32l-1.54 6.06c-.6 2 .47 4.15 3.08 5.7 4.63 2.73 12.1 2.73 16.61 0 2.61-1.55 3.67-3.8 3-5.94L96 50.29a9.66 9.66 0 01-2.49 2.38 15.86 15.86 0 01-14.59 0 6.87 6.87 0 01-2.53-2.38z" fill="#15282f"/><path d="M103.08 74.4l-.12-.48v-.12l-2.14-8.07c.48 2.61-.83 5.34-4.15 7.36-5.81 3.45-15.06 3.45-20.87 0-3.33-2-4.75-4.75-4.16-7.36l-2.25 8.55c-.71 3.09.83 6.29 4.86 8.67 6.65 4 17.44 4 24.2 0 3.8-2.26 5.34-5.46 4.63-8.55z" fill="#fff"/><path d="M86.23 86.87a25.14 25.14 0 01-12.45-3.09c-3.68-2.26-5.58-5.34-5.34-8.55h-.12l.24-1 2.37-9.14h1.43l-.12.83c-.48 2.37 1 4.75 3.91 6.53 5.58 3.32 14.59 3.32 20 0 3-1.78 4.39-4.16 3.91-6.53l-.12-.83h1.43l.12.59 2.6 9.5H104c.35 3.21-1.55 6.41-5.34 8.55a25.16 25.16 0 01-12.43 3.14zM70.1 74.16l-.12.36c-.71 2.85 1 5.82 4.51 8 6.41 3.92 17 3.92 23.37 0 3.56-2.13 5.22-5 4.5-8l-.11-.36-1.19-4.63a10.57 10.57 0 01-4 4.28c-5.93 3.56-15.66 3.56-21.59 0a10.33 10.33 0 01-4-4.16z" fill="#15282f"/><path d="M80.6 44l-7.34 33.4 1.39.31L82 44.31z" fill="#fff"/><path d="M78.48 53.48l-.69 3.13 1.39.31.69-3.14zM74 74l-.74 3.37 1.39.3.74-3.36z" fill="#f9550f"/><path d="M83.15 35.45c-1.66.71-1.66 2 0 2.73.36.12.83.24 1.19.35l.47-3.53c-.59.09-1.19.33-1.66.45z" fill="#15282f"/><path d="M85.05 39.49l-.83-.12a6.69 6.69 0 01-1.43-.48c-1.42-.71-1.66-1.54-1.66-2s.24-1.42 1.66-2a4.62 4.62 0 011.9-.47l1-.12zm-1.66-3.33c-.6.24-.83.59-.83.71s.11.48.83.71a.38.38 0 01.23.12l.24-1.78c-.12.08-.24.08-.47.24zM92.37 44l-1.37.3 2.67 11.94 1.33-.31zM264 150.64l-1.42.83a.54.54 0 01-.6 0l-1.3-.71c-.12-.12-.24-.24 0-.36l1.42-.83a.54.54 0 01.6 0l1.3.71a.23.23 0 010 .36zM267.36 152.54l-1.42.83a.52.52 0 01-.59 0l-1.31-.71c-.12-.12-.24-.24 0-.36l1.42-.83a.54.54 0 01.6 0l1.3.71a.23.23 0 010 .36zM263.92 154.56l-1.42.83a.52.52 0 01-.59 0l-1.31-.71c-.12-.12-.24-.24 0-.36l1.42-.83a.54.54 0 01.6 0l1.3.71a.23.23 0 010 .36zM270.57 154.44l-1.43.83a.52.52 0 01-.59 0l-1.31-.71c-.11-.12-.23-.24 0-.36l1.43-.83a.52.52 0 01.59 0l1.31.71c.11.12.23.24 0 .36zM267.13 156.46l-1.43.83a.52.52 0 01-.59 0l-1.31-.71c-.12-.12-.23-.24 0-.36l1.43-.83a.52.52 0 01.59 0l1.31.71c.11.12.23.24 0 .36zM274.12 156.46l-1.42.83a.52.52 0 01-.59 0l-1.31-.71c-.12-.12-.23-.24 0-.36l1.43-.83a.52.52 0 01.59 0l1.3.71a.23.23 0 010 .36zM270.68 158.36l-1.42.83a.52.52 0 01-.59 0l-1.31-.71c-.12-.12-.23-.24 0-.36l1.43-.83a.52.52 0 01.59 0l1.3.71q.18.36 0 .36zM277.33 158.36l-1.43.83a.52.52 0 01-.59 0l-1.3-.71c-.12-.12-.24-.24 0-.36l1.42-.83a.52.52 0 01.59 0l1.31.71a.22.22 0 010 .36zM273.89 160.26l-1.43.83a.52.52 0 01-.59 0l-1.3-.71c-.12-.12-.24-.24 0-.36l1.42-.83a.52.52 0 01.59 0l1.31.71c.11.1.11.36 0 .36zM280.65 160.26l-1.43.83a.52.52 0 01-.59 0l-1.3-.71c-.12-.12-.24-.24 0-.36l1.42-.83a.52.52 0 01.59 0l1.31.71a.23.23 0 010 .36zM277.21 162.16l-1.42.83a.54.54 0 01-.6 0l-1.3-.71c-.12-.12-.24-.24 0-.36l1.42-.83a.52.52 0 01.59 0l1.31.71c.12.12.12.36 0 .36zM254.08 144.7l-1.43.83a.52.52 0 01-.59 0l-1.3-.71c-.12-.12-.24-.24 0-.36l1.42-.83a.52.52 0 01.59 0l1.31.72c.12.11.12.35 0 .35zM257.52 146.72l-1.43.83a.52.52 0 01-.59 0l-1.3-.71c-.12-.12-.24-.24 0-.36l1.42-.83a.52.52 0 01.59 0l1.31.72c.12.11.12.35 0 .35zM254.08 148.74l-1.43.83a.52.52 0 01-.59 0l-1.3-.71c-.12-.12-.24-.24 0-.36l1.42-.83a.52.52 0 01.59 0l1.31.71a.22.22 0 010 .36zM260.84 148.62l-1.42.83a.54.54 0 01-.6 0l-1.3-.71c-.12-.12-.24-.24 0-.36l1.42-.83a.52.52 0 01.59 0l1.31.71a.22.22 0 010 .36zM257.28 150.64l-1.42.83a.54.54 0 01-.6 0l-1.3-.71c-.12-.12-.24-.24 0-.36l1.42-.83a.54.54 0 01.6 0l1.3.71q.36.18 0 .36zM260.6 152.54l-1.42.83a.54.54 0 01-.6 0l-1.3-.71c-.12-.12-.24-.24 0-.36l1.42-.83a.54.54 0 01.6 0l1.3.71a.23.23 0 010 .36zM284.09 162.16l-1.43.83a.52.52 0 01-.59 0l-1.3-.71c-.12-.12-.24-.24 0-.36l1.42-.83a.52.52 0 01.59 0l1.31.71q.18.36 0 .36zM280.65 164.18l-1.43.83a.52.52 0 01-.59 0l-1.3-.71c-.12-.12-.24-.24 0-.36l1.42-.83a.52.52 0 01.59 0l1.31.71c.12.12.12.36 0 .36zM287.53 160.26l-1.43.83a.52.52 0 01-.59 0l-1.3-.71c-.12-.12-.24-.24 0-.36l1.42-.83a.52.52 0 01.59 0l1.31.71a.23.23 0 010 .36zM291 158.24l-1.43.83a.52.52 0 01-.59 0l-1.3-.71c-.12-.12-.24-.24 0-.36l1.42-.83a.52.52 0 01.59 0l1.31.71a.22.22 0 010 .36zM294.41 156.22l-1.43.83a.52.52 0 01-.59 0l-1.3-.71c-.12-.12-.24-.24 0-.36l1.42-.83a.52.52 0 01.59 0l1.31.72c.12.13.23.23 0 .35zM297.85 154.2l-1.43.84a.56.56 0 01-.59 0l-1.3-.72c-.12-.12-.24-.23 0-.35l1.42-.84a.56.56 0 01.59 0l1.31.72c.15.15.23.35 0 .35zM301.29 152.18l-1.43.84a.56.56 0 01-.59 0l-1.27-.72c-.11-.12-.23-.23 0-.35l1.43-.83a.52.52 0 01.59 0l1.31.71c.19.24.19.35-.04.35zM304.85 150.28l-1.43.84a.56.56 0 01-.59 0l-1.31-.72c-.12-.12-.23-.24 0-.35l1.43-.84a.56.56 0 01.59 0l1.31.72a.23.23 0 010 .35zM308.29 148.27l-1.43.83a.52.52 0 01-.59 0l-1.31-.72c-.11-.11-.23-.23 0-.35l1.43-.83a.52.52 0 01.59 0l1.31.71a.24.24 0 010 .36zM311.73 146.25l-1.43.83a.52.52 0 01-.59 0l-1.31-.71c-.11-.12-.23-.24 0-.36l1.43-.83a.52.52 0 01.59 0l1.31.71a.24.24 0 010 .36zM315.17 144.23l-1.43.83a.52.52 0 01-.59 0l-1.31-.71c-.11-.12-.23-.24 0-.36l1.43-.83a.52.52 0 01.59 0l1.31.71c.11.13.11.36 0 .36zM287.41 164.06l-1.42.83a.54.54 0 01-.6 0l-1.3-.71c-.12-.12-.24-.24 0-.36l1.42-.83a.54.54 0 01.6 0l1.3.71c.12.12.12.36 0 .36zM290.85 162.16l-1.43.83a.52.52 0 01-.59 0l-1.3-.71c-.12-.12-.24-.24 0-.36l1.42-.83a.52.52 0 01.59 0l1.31.71a.22.22 0 010 .36zM294.29 160.14l-1.43.83a.52.52 0 01-.59 0l-1.3-.71c-.12-.12-.24-.24 0-.36l1.42-.83a.52.52 0 01.59 0l1.31.72a.22.22 0 010 .35zM297.73 158.12l-1.43.83a.52.52 0 01-.59 0l-1.3-.71c-.12-.12-.24-.24 0-.36l1.42-.83a.52.52 0 01.59 0l1.31.72a.22.22 0 010 .35zM301.17 156.1l-1.43.83a.52.52 0 01-.59 0l-1.3-.71c-.12-.12-.24-.23 0-.35l1.42-.83a.52.52 0 01.59 0l1.31.71c.12.12.12.35 0 .35zM304.61 154.09l-1.43.83a.52.52 0 01-.59 0l-1.3-.72c-.12-.11-.24-.23 0-.35l1.42-.83a.52.52 0 01.59 0l1.31.71c.12.12.12.36 0 .36zM308.05 152.18l-1.42.84a.58.58 0 01-.6 0l-1.3-.72c-.12-.12-.24-.23 0-.35l1.42-.83a.52.52 0 01.59 0l1.31.71a.22.22 0 010 .35zM311.49 150.16l-1.43.84a.52.52 0 01-.59 0l-1.3-.72c-.12-.12-.24-.23 0-.35l1.42-.83a.52.52 0 01.59 0l1.31.71a.22.22 0 010 .35zM314.93 148.15l-1.43.83a.52.52 0 01-.59 0l-1.3-.72c-.12-.11-.24-.23 0-.35l1.42-.83a.52.52 0 01.59 0l1.31.71c.12.12.23.21 0 .36zM312.56 137.7h-1.78L286 123.44a5.68 5.68 0 00-5-.23l-24.91 14.37H256l-1.9.12a.11.11 0 00-.12.11v1.55a2 2 0 001.19 1.66l25.38 14.61a5.69 5.69 0 005 .24l26.1-15.09c.59-.35.83-.71.83-1.18v-1.19z" fill="#15282f"/><path d="M283.49 157.29a6.2 6.2 0 01-3.2-.83L255 141.85a2.62 2.62 0 01-1.55-2v-2a.82.82 0 01.84-.84l1.66-.11 24.79-14.37a6 6 0 015.69.23L311 137h2.14l.24 1.55v1.18a2.36 2.36 0 01-1.19 1.79l-26.1 15.08a4.81 4.81 0 01-2.6.69zm-28.58-18.17v.48c0 .35.35.71.83 1.06l25.38 14.61a4.94 4.94 0 004.27.24l26.1-15.08a.78.78 0 00.47-.6v-1.3h-1.18l-.24-.12-24.79-14.25a4.94 4.94 0 00-4.27-.24l-25 14.37h-.24l-1.3.12z" fill="#15282f"/><path d="M311.84 139.12l-26.09 15.08a5.66 5.66 0 01-5-.24l-25.39-14.6c-1.42-.83-1.66-2.14-.36-2.85l26.1-15.08a5.65 5.65 0 015 .23l25.39 14.61c1.42.73 1.66 2.02.35 2.85z" fill="#fff"/><path d="M283.49 155.39a6.2 6.2 0 01-3.2-.83L254.91 140a2.6 2.6 0 01-1.54-2.25 2.4 2.4 0 011.18-1.9l26.1-15.09a6.06 6.06 0 015.69.24l25.39 14.61a2.62 2.62 0 011.54 2.26 2.41 2.41 0 01-1.19 1.89L286 154.8a5.2 5.2 0 01-2.51.59zm-.23-33.85a3.92 3.92 0 00-1.78.36l-26.1 15.1a.78.78 0 00-.47.6c0 .24.23.59.83.95l25.38 14.6a4.91 4.91 0 004.27.24l26.1-15.08a.79.79 0 00.47-.59c0-.24-.23-.6-.83-.95l-25.38-14.61a5.85 5.85 0 00-2.49-.62z" fill="#15282f"/><path d="M284.09 154.8h-1.19v1.66h1.19zM257 140.07h-1.19v1.66H257zM260.6 142h-1.19v1.66h1.19zM311.13 140H310v1.67h1.18zM301.52 133.3l-.12-.35-11-41.33h-14l-11 41.68v.12c-1.07 3.44.71 7 5.1 9.62 7.11 4.28 18.85 4.28 26 0 4.31-2.61 5.97-6.3 5.02-9.74z" fill="#f9550f"/><path d="M283.38 147.08a26.1 26.1 0 01-13.38-3.33c-4.62-2.73-6.64-6.53-5.45-10.45v-.12l11.26-42.27H291l11.15 42.27c1.18 3.92-.83 7.84-5.46 10.57-3.59 2.25-8.45 3.33-13.31 3.33zM277 92.33l-10.91 41.33c-.95 3.21.83 6.41 4.74 8.79 7 4.15 18.27 4.15 25.27 0 3.91-2.38 5.69-5.7 4.74-8.91l-.12-.36-10.82-40.85z" fill="#15282f"/><path d="M288.36 88.65c2.72 1.66 2.72 4.27 0 5.94a10.6 10.6 0 01-10 0c-2.72-1.67-2.72-4.28 0-5.94a10.6 10.6 0 0110 0z" fill="#fff"/><path d="M283.38 96.61A11.46 11.46 0 01278 95.3a4.35 4.35 0 01-2.37-3.56 4.07 4.07 0 012.37-3.57 11.33 11.33 0 0110.67 0 4.35 4.35 0 012.37 3.57 4.06 4.06 0 01-2.37 3.56 10.76 10.76 0 01-5.29 1.31zm0-8.44a8.67 8.67 0 00-4.63 1.19 2.53 2.53 0 000 4.75 9.54 9.54 0 009.13 0 2.53 2.53 0 000-4.75 8 8 0 00-4.5-1.19z" fill="#15282f"/><path d="M286.58 90.07a8.26 8.26 0 00-6.29 0c-1.78.84-1.78 2.14 0 3a8.26 8.26 0 006.29 0c1.66-.86 1.66-2.16 0-3z" fill="#f9550f"/><path d="M283.38 94.35a8.14 8.14 0 01-3.44-.71c-1.55-.71-1.78-1.66-1.78-2.14s.23-1.42 1.78-2.14a8.66 8.66 0 016.88 0c1.54.72 1.78 1.67 1.78 2.14s-.24 1.43-1.78 2.14a7.82 7.82 0 01-3.44.71zm0-4.16a7.1 7.1 0 00-2.85.6c-.59.24-.83.59-.83.83s.24.47.83.83a7.87 7.87 0 005.69 0c.6-.24.83-.59.83-.83s-.23-.48-.83-.83a6.66 6.66 0 00-2.84-.6z" fill="#15282f"/><path d="M295.48 110.5l-2.38-8.79c.36 1.78-.47 3.57-2.73 4.87a14.81 14.81 0 01-13.76 0c-2.25-1.3-3.2-3.2-2.72-4.87l-1.66 6.18-.72 2.85c-.59 2.25.48 4.75 3.44 6.53 4.75 2.85 12.58 2.85 17.44 0 2.85-1.78 3.91-4.27 3.09-6.77z" fill="#fff"/><path d="M283.49 120.24a17.17 17.17 0 01-9-2.26c-3.09-1.9-4.51-4.63-3.8-7.36l2.49-9.62h1.43l-.24 1c-.36 1.54.59 3 2.37 4.16a14.07 14.07 0 0013 0c1.9-1.07 2.73-2.62 2.37-4.16l-.23-1h1.42l.12.59 2.37 8.79c.95 2.85-.36 5.7-3.68 7.72-2.11 1.43-5.41 2.14-8.62 2.14zm-9.84-15.32l-1.54 6.08c-.6 2 .47 4.15 3.08 5.7 4.63 2.73 12.1 2.73 16.61 0 2.61-1.55 3.67-3.8 3-5.94l-1.54-5.82a9.47 9.47 0 01-2.49 2.37 15.8 15.8 0 01-14.59 0 6.77 6.77 0 01-2.53-2.39z" fill="#15282f"/><path d="M300.34 129l-.12-.48v-.12l-2.14-8.07c.48 2.61-.83 5.34-4.15 7.36-5.81 3.44-15.06 3.44-20.88 0-3.32-2-4.74-4.75-4.15-7.36l-2.25 8.55c-.71 3.08.83 6.29 4.86 8.67 6.64 4 17.44 4 24.2 0 3.8-2.23 5.34-5.44 4.63-8.55z" fill="#fff"/><path d="M283.49 141.5a25.14 25.14 0 01-12.49-3.09c-3.68-2.26-5.58-5.34-5.34-8.55h-.12l.24-1 2.37-9.15h1.42l-.11.84c-.48 2.37.95 4.75 3.91 6.53 5.58 3.32 14.59 3.32 20 0 3-1.78 4.39-4.16 3.91-6.53l-.12-.84h1.43l.12.6 2.6 9.5h-.11c.35 3.21-1.55 6.41-5.34 8.55a25.16 25.16 0 01-12.37 3.14zm-16.13-12.71l-.12.36c-.71 2.85.95 5.81 4.51 7.95 6.4 3.92 17 3.92 23.37 0 3.56-2.14 5.22-5 4.51-7.95l-.12-.48-1.19-4.67a10.56 10.56 0 01-4 4.27c-5.93 3.57-15.66 3.57-21.59 0a10.25 10.25 0 01-4-4.15z" fill="#15282f"/><path d="M277.85 98.58L270.51 132l1.39.3 7.34-33.4z" fill="#fff"/><path d="M275.73 108.07l-.68 3.13 1.39.31.68-3.13zM271.21 128.6l-.74 3.37 1.39.3.74-3.36z" fill="#f9550f"/><path d="M280.41 90.07c-1.66.72-1.66 2 0 2.74.36.11.83.23 1.19.35l.47-3.56a7.18 7.18 0 00-1.66.47z" fill="#15282f"/><path d="M282.19 94.11l-.83-.12a6.14 6.14 0 01-1.43-.47c-1.42-.71-1.66-1.54-1.66-2a2.27 2.27 0 011.66-2 4.47 4.47 0 011.9-.47l.95-.12zm-.95-3.56a.59.59 0 00-.47.24c-.6.24-.84.59-.84.71s.12.48.84.71a.42.42 0 01.23.12zM288 97.85l-1.41.19.55 3.89 1.41-.2zM107.23 164.42l-1.42.83a.54.54 0 01-.6 0l-1.3-.71c-.12-.12-.24-.24 0-.36l1.42-.83a.54.54 0 01.6 0l1.3.71a.22.22 0 010 .36zM110.43 166.32l-1.42.83a.52.52 0 01-.59 0l-1.31-.72c-.12-.11-.24-.23 0-.35l1.42-.83a.54.54 0 01.6 0l1.3.71c.12.12.24.24 0 .36zM107 168.34l-1.42.83a.54.54 0 01-.6 0l-1.3-.72c-.12-.11-.24-.23 0-.35l1.42-.83a.54.54 0 01.6 0l1.3.71c.11.12.23.24 0 .36zM113.75 168.22l-1.42.83a.52.52 0 01-.59 0l-1.31-.71c-.12-.12-.24-.24 0-.36l1.43-.83a.52.52 0 01.59 0l1.3.71a.23.23 0 010 .36zM110.31 170.24l-1.42.83a.56.56 0 01-.59 0l-1.31-.72c-.12-.11-.24-.23 0-.35l1.43-.83a.52.52 0 01.59 0l1.3.71a.23.23 0 010 .36zM117.19 170.24l-1.42.83a.56.56 0 01-.59 0l-1.31-.72c-.12-.11-.23-.23 0-.35l1.43-.83a.52.52 0 01.59 0l1.3.71a.23.23 0 010 .36zM113.75 172.13l-1.42.84a.52.52 0 01-.59 0l-1.31-.72c-.12-.12-.24-.23 0-.35l1.43-.83a.52.52 0 01.59 0l1.3.71c.12.12.12.35 0 .35zM120.51 172.13l-1.42.84a.52.52 0 01-.59 0l-1.31-.72c-.12-.12-.23-.23 0-.35l1.43-.83a.52.52 0 01.59 0l1.3.71a.22.22 0 010 .35zM117.07 174l-1.42.83a.52.52 0 01-.59 0l-1.31-.72c-.11-.11-.23-.23 0-.35l1.43-.83a.52.52 0 01.59 0l1.3.71c.12.16.12.36 0 .36zM123.72 174l-1.43.83a.52.52 0 01-.59 0l-1.3-.72c-.12-.11-.24-.23 0-.35l1.42-.83a.52.52 0 01.59 0l1.31.71q.35.22 0 .36zM120.28 175.93l-1.43.84a.56.56 0 01-.59 0l-1.3-.72c-.12-.12-.24-.23 0-.35l1.42-.83a.52.52 0 01.59 0l1.31.71c.12.12.23.35 0 .35zM127.28 175.93l-1.43.84a.56.56 0 01-.59 0l-1.31-.72c-.11-.12-.23-.23 0-.35l1.43-.83a.52.52 0 01.59 0l1.31.71c.11.12.11.35 0 .35zM123.84 178l-1.43.84a.56.56 0 01-.59 0l-1.31-.72c-.11-.12-.23-.23 0-.35l1.43-.84a.56.56 0 01.59 0l1.31.72a.22.22 0 010 .35zM91.93 135l-1.43.84a.56.56 0 01-.59 0l-1.3-.72c-.12-.12-.24-.23 0-.35l1.39-.87a.52.52 0 01.59 0l1.31.71c.15.12.15.39.03.39zM95.13 136.87l-1.42.83a.54.54 0 01-.6 0l-1.3-.72c-.12-.11-.24-.23 0-.35l1.42-.83a.54.54 0 01.6 0l1.3.71c.12.12.24.36 0 .36zM91.69 138.88l-1.42.83a.54.54 0 01-.6 0l-1.3-.71c-.12-.12-.24-.24 0-.35l1.42-.83a.54.54 0 01.6 0l1.3.71a.22.22 0 010 .35zM98.69 138.88l-1.42.83a.54.54 0 01-.6 0l-1.3-.71c-.12-.12-.24-.24 0-.35l1.42-.83a.52.52 0 01.59 0l1.31.71a.22.22 0 010 .35zM95.13 140.9l-1.42.83a.54.54 0 01-.6 0l-1.3-.71c-.12-.12-.24-.24 0-.36l1.42-.83a.54.54 0 01.6 0l1.3.72c.24.11.24.23 0 .35zM101.89 140.78l-1.42.84a.56.56 0 01-.59 0l-1.31-.72c-.12-.12-.24-.24 0-.35l1.42-.84a.58.58 0 01.6 0l1.3.72a.22.22 0 010 .35zM98.45 142.8l-1.42.83a.52.52 0 01-.59 0l-1.31-.71c-.12-.12-.24-.24 0-.35l1.42-.84a.58.58 0 01.6 0l1.3.72a.22.22 0 010 .35zM105.21 142.68l-1.42.83a.52.52 0 01-.59 0l-1.31-.71c-.12-.12-.24-.23 0-.35l1.42-.83a.54.54 0 01.6 0l1.3.71a.22.22 0 010 .35zM101.77 144.7l-1.42.83a.52.52 0 01-.59 0l-1.31-.71c-.12-.12-.24-.24 0-.36l1.42-.83a.54.54 0 01.6 0l1.3.72a.22.22 0 010 .35zM105.21 146.72l-1.42.83a.52.52 0 01-.59 0l-1.31-.71c-.12-.12-.24-.24 0-.36l1.42-.83a.54.54 0 01.6 0l1.3.72a.22.22 0 010 .35zM230.47 214.77l-1.42.83a.52.52 0 01-.59 0l-1.31-.71c-.12-.12-.24-.24 0-.36l1.42-.83a.54.54 0 01.6 0l1.3.71c.12.12.12.36 0 .36zM233.79 216.67l-1.42.83a.52.52 0 01-.59 0l-1.31-.71c-.12-.12-.23-.24 0-.36l1.43-.83a.52.52 0 01.59 0l1.3.71a.23.23 0 010 .36zM237.23 218.69l-1.42.83a.52.52 0 01-.59 0l-1.31-.71c-.12-.12-.23-.24 0-.36l1.43-.83a.52.52 0 01.59 0l1.3.71a.22.22 0 010 .36zM240.55 220.59l-1.42.83a.52.52 0 01-.59 0l-1.31-.71c-.12-.12-.24-.24 0-.36l1.43-.83a.52.52 0 01.59 0l1.3.71a.22.22 0 010 .36zM243.76 222.49l-1.43.83a.52.52 0 01-.59 0l-1.3-.71c-.12-.12-.24-.24 0-.36l1.42-.83a.52.52 0 01.59 0l1.31.71a.23.23 0 010 .36zM240.32 224.51l-1.43.83a.52.52 0 01-.59 0l-1.3-.71c-.12-.12-.24-.24 0-.36l1.42-.83a.52.52 0 01.59 0l1.31.71a.22.22 0 010 .36zM243.76 226.52l-1.43.84a.52.52 0 01-.59 0l-1.3-.72c-.12-.12-.24-.23 0-.35l1.42-.83a.52.52 0 01.59 0l1.31.71a.22.22 0 010 .35zM130.72 174l-1.43.83a.52.52 0 01-.59 0l-1.31-.72c-.11-.11-.23-.23 0-.35l1.43-.83a.52.52 0 01.59 0l1.31.71a.23.23 0 010 .36zM134.15 172l-1.42.83a.52.52 0 01-.59 0l-1.31-.72c-.11-.11-.23-.23 0-.35l1.43-.83a.52.52 0 01.59 0l1.3.71a.23.23 0 010 .36zM137.6 170l-1.43.83a.52.52 0 01-.59 0l-1.31-.71c-.12-.12-.23-.24 0-.36l1.43-.83a.52.52 0 01.59 0l1.31.71a.24.24 0 010 .36zM141 168l-1.43.83a.52.52 0 01-.59 0l-1.31-.71c-.11-.12-.23-.24 0-.36l1.43-.83a.52.52 0 01.59 0l1.31.71a.24.24 0 010 .36zM144.48 166l-1.43.83a.52.52 0 01-.59 0l-1.31-.71c-.11-.12-.23-.24 0-.36l1.43-.83a.52.52 0 01.59 0l1.31.71c.11.08.11.36 0 .36zM147.91 164.06l-1.42.83a.52.52 0 01-.59 0l-1.31-.71c-.11-.12-.23-.24 0-.36L146 163a.52.52 0 01.59 0l1.3.71a.23.23 0 01.02.35zM151.35 162l-1.42.83a.52.52 0 01-.59 0l-1.31-.71c-.12-.12-.23-.24 0-.36l1.43-.83a.52.52 0 01.59 0l1.3.71c.12.16.24.28 0 .36zM154.79 160l-1.42.83a.52.52 0 01-.59 0l-1.31-.71c-.12-.12-.23-.24 0-.35l1.43-.84a.52.52 0 01.59 0l1.3.72c.12.14.21.25 0 .35zM158.24 158l-1.43.83a.52.52 0 01-.59 0l-1.31-.71c-.12-.12-.23-.24 0-.35l1.43-.84a.56.56 0 01.59 0l1.31.72c.23.12.23.35 0 .35zM130.48 177.84l-1.43.83a.52.52 0 01-.59 0l-1.3-.72c-.12-.11-.24-.23 0-.35l1.42-.83a.52.52 0 01.59 0l1.31.71c.12.12.24.36 0 .36zM133.92 175.93l-1.43.84a.56.56 0 01-.59 0l-1.3-.72c-.12-.12-.24-.23 0-.35l1.42-.83a.52.52 0 01.59 0l1.31.71c.08.12.23.24 0 .35zM137.36 173.92l-1.43.83a.52.52 0 01-.59 0L134 174c-.12-.12-.24-.24 0-.36l1.42-.83a.52.52 0 01.59 0l1.31.71q.4.22.04.4zM140.92 171.9l-1.43.83a.52.52 0 01-.59 0l-1.3-.71c-.12-.12-.24-.24 0-.36l1.42-.83a.52.52 0 01.59 0l1.31.71a.23.23 0 010 .36zM144.36 169.88l-1.43.83a.52.52 0 01-.59 0L141 170c-.12-.12-.24-.24 0-.36l1.42-.83a.52.52 0 01.59 0l1.31.71a.23.23 0 01.04.36zM147.8 167.86l-1.43.83a.52.52 0 01-.59 0l-1.3-.71c-.12-.12-.24-.24 0-.36l1.42-.83a.52.52 0 01.59 0l1.31.71c.11.12.11.36 0 .36zM151.24 166l-1.43.83a.52.52 0 01-.59 0l-1.31-.71c-.11-.12-.23-.24 0-.36l1.43-.83a.52.52 0 01.59 0l1.31.71a.24.24 0 010 .36zM154.68 163.94l-1.43.83a.52.52 0 01-.59 0l-1.3-.71c-.12-.12-.24-.24 0-.36l1.42-.83a.52.52 0 01.59 0l1.31.72a.22.22 0 010 .35zM158.12 161.92l-1.43.83a.52.52 0 01-.59 0l-1.31-.71c-.11-.12-.23-.24 0-.36l1.43-.83a.52.52 0 01.59 0l1.31.72a.22.22 0 010 .35z" fill="#15282f"/><path d="M108.77 61.45l28.11-17.33 16.85 9.73-28.12 17.34z" fill="#fff"/><path d="M125.61 72.26l-.47-.24-17.2-10v-.92l.36-.24 28.58-17.57.48.23 17.2 10v1l-.48.24zm-15.3-10.81l15.19 8.79L152.18 54 137 45.19zM125.61 171.3l28.12-17.3v-20.7l-28.12 17.34z" fill="#15282f"/><path d="M125.61 172.25l-.94-.47v-21.62l.47-.23 28.59-17.58 1 .48v21.61l-.36.24zm.83-21.13v18.76L153 153.61v-18.76z" fill="#15282f"/><path d="M136.05 156.58l28.11-17.34v-16.39l-28.11 17.34v16.39z" fill="#15282f"/><path d="M136.05 157.53l-.83-.48v-17.34l.48-.23 28.58-17.58.83.48v17.33l-.47.24zm.83-16.87v14.49l26.57-16.27v-14.49z" fill="#15282f"/><path d="M86.83 111.81l28.23-17.34 20.87 12-28.23 17.33z" fill="#fff"/><path d="M107.7 124.87l-22.53-13.06 29.89-18.29 22.54 13.06zm-19.21-13.06l19.21 11 26.57-16.27-19.21-11z" fill="#15282f"/><path d="M86.83 111.81l28.23-17.34-7.12-9.15L93.82 89l-9.37 17.45z" fill="#15282f"/><path d="M86.47 113l-3-6.54 9.84-18.17 15.07-3.92 7.94 10.34zm-1.07-6.42l1.78 4 26.57-16.27-6.17-8-13.16 3.53z" fill="#15282f"/><path d="M135.93 156.58l-10.32-5.94v20.54a.11.11 0 01-.11.12l-17.8-10.21v-20.66l-36.89-21.38v-14.72l38-42.64 16.84 9.74v62.94l10.44 6.06zM107.7 123.8v-17c0-2.85.12-6.89.24-12.11s.36-8.32.48-9.15l-.48-.24a39.63 39.63 0 01-5.22 8l-15.89 18.51z" fill="#f9550f"/><path d="M125.5 172.13a.77.77 0 01-.5-.13l-18.15-10.45V140.9L70 119.53v-15.68l.12-.24 38.43-43.22 17.91 10.33v62.94l10.44 6.05v17.34l-.83.48-.47-.24-9.14-5.22v19.59l-.46.34a.76.76 0 01-.5.13zm-17-11.63l16.25 9.38v-19.72l.83-.47.48.24 9.13 5.22v-14.49l-10.44-6V71.79l-15.89-9.15-37.22 41.92v13.9l36.89 21.37v20.67zm-.83-35.75l-.47-.24-21.08-12.23-.12-.83.23-.35 15.9-18.53a35.05 35.05 0 005.1-7.72l.35-.83 1.78 1.07-.11.59c-.12.48-.24 2.49-.48 9-.24 5.22-.24 9.38-.24 12.11v17.46zm-19.54-13.18l18.74 10.81v-15.56c0-2.85.12-6.89.36-12.23.12-2.85.24-5 .24-6.53a50.43 50.43 0 01-4 5.7z" fill="#15282f"/><path d="M125.85 134l27.88-17.1.12-.12V54.33c0-.12-.12-.24-.24-.12l-27.87 17.1-.12.12v62.47c0 .1.12.1.23.1z" fill="#15282f"/><path d="M125.73 134.85a.7.7 0 01-.47-.12 1 1 0 01-.47-.95V71.31a1 1 0 01.47-.83l27.87-17.1a.89.89 0 011.07 0 1 1 0 01.48.95v62.46a1 1 0 01-.48.84l-27.87 17.1a1.08 1.08 0 01-.6.12zm.72-63.06v60.92L153 116.44v-61z" fill="#15282f"/><path d="M125.62 134.13l28.11-17.34 10.32 5.94-28.11 17.34z" fill="#fff"/><path d="M136.05 141.14l-.47-.24-10.79-6.17v-.95l.47-.24L153.85 116l.47.24 10.8 6.3v.94l-.36.24zm-8.77-7l8.77 5.11L162.62 123l-8.77-5.11z" fill="#15282f"/><path d="M150.77 146.57l-12.64 7.75.86 1.42 12.65-7.74zM151.28 105.8l-24.37 15 .86 1.42 24.38-15zM134.6 102l-7.6 4.62.87 1.42 7.58-4.65z" fill="#f9550f"/><path d="M167 199.92l-1.42.84a.56.56 0 01-.59 0l-1.31-.72c-.12-.12-.24-.24 0-.35l1.43-.84a.56.56 0 01.59 0l1.3.72a.22.22 0 010 .35zM170.33 201.82l-1.42.83a.52.52 0 01-.59 0l-1.31-.71c-.12-.12-.24-.23 0-.35l1.42-.83a.54.54 0 01.6 0l1.3.71a.22.22 0 010 .35zM166.89 203.84l-1.42.83a.52.52 0 01-.59 0l-1.31-.71c-.12-.12-.23-.24 0-.36l1.43-.83a.52.52 0 01.59 0l1.3.72a.22.22 0 010 .35zM173.54 203.72l-1.43.83a.52.52 0 01-.59 0l-1.31-.71c-.11-.12-.23-.24 0-.35l1.43-.84a.56.56 0 01.59 0l1.31.72c.11.12.23.23 0 .35zM170.1 205.74l-1.43.83a.52.52 0 01-.59 0l-1.3-.71c-.12-.12-.24-.24 0-.35l1.42-.84a.56.56 0 01.59 0l1.31.72a.22.22 0 010 .35zM177.1 205.74l-1.43.83a.52.52 0 01-.59 0l-1.31-.71c-.12-.12-.23-.24 0-.35l1.43-.84a.56.56 0 01.59 0l1.31.72a.23.23 0 010 .35zM173.54 207.64l-1.43.83a.52.52 0 01-.59 0l-1.31-.71c-.11-.12-.23-.24 0-.36l1.43-.83a.56.56 0 01.59 0l1.31.72c.23.23.23.35 0 .35zM180.3 207.64l-1.43.83a.52.52 0 01-.59 0l-1.3-.71c-.12-.12-.24-.24 0-.36l1.42-.83a.56.56 0 01.59 0l1.31.72a.22.22 0 010 .35zM176.86 209.54l-1.43.83a.52.52 0 01-.59 0l-1.3-.71c-.12-.12-.24-.24 0-.35l1.42-.84a.56.56 0 01.59 0l1.31.72c.14.12.14.35 0 .35zM183.62 209.54l-1.42.83a.54.54 0 01-.6 0l-1.3-.71c-.12-.12-.24-.24 0-.35l1.42-.84a.56.56 0 01.59 0l1.31.72a.22.22 0 010 .35zM180.18 211.44l-1.42.83a.54.54 0 01-.6 0l-1.3-.71c-.12-.12-.24-.24 0-.35l1.42-.84a.56.56 0 01.59 0l1.31.72c.12.12.12.35 0 .35zM187.06 211.44l-1.43.83a.52.52 0 01-.59 0l-1.3-.71c-.12-.12-.24-.24 0-.35l1.42-.84a.56.56 0 01.59 0l1.31.72c.12.23.12.35 0 .35zM183.62 213.46l-1.42.83a.54.54 0 01-.6 0l-1.3-.71c-.12-.12-.24-.24 0-.35l1.42-.84a.52.52 0 01.59 0l1.31.72c.12.12.12.35 0 .35zM187.06 207.52l-1.43.84a.56.56 0 01-.59 0l-1.3-.72c-.12-.12-.24-.23 0-.35l1.42-.83a.52.52 0 01.59 0l1.31.71a.22.22 0 010 .35zM190.5 209.54l-1.43.83a.52.52 0 01-.59 0l-1.3-.71c-.12-.12-.24-.24 0-.35l1.42-.84a.56.56 0 01.59 0l1.31.72a.22.22 0 010 .35zM193.94 207.52l-1.43.84a.56.56 0 01-.59 0l-1.3-.72c-.12-.12-.24-.23 0-.35l1.42-.83a.52.52 0 01.59 0l1.31.71a.22.22 0 010 .35zM197.38 205.51l-1.42.83a.54.54 0 01-.6 0l-1.3-.72c-.12-.11-.24-.23 0-.35l1.42-.83a.52.52 0 01.59 0l1.31.71a.23.23 0 010 .36zM200.82 203.49l-1.43.83a.52.52 0 01-.59 0l-1.3-.72c-.12-.11-.24-.23 0-.35l1.42-.83a.52.52 0 01.59 0l1.31.71c.12.12.23.36 0 .36zM204.26 201.47l-1.42.83a.54.54 0 01-.6 0l-1.3-.71c-.12-.12-.24-.24 0-.36l1.42-.83a.52.52 0 01.59 0l1.31.71c.12.24.23.36 0 .36zM207.7 199.57l-1.43.83a.52.52 0 01-.59 0l-1.3-.71c-.12-.12-.24-.24 0-.36l1.42-.83a.52.52 0 01.59 0l1.31.71q.36.18 0 .36zM211.26 197.55l-1.43.83a.52.52 0 01-.59 0l-1.31-.71c-.11-.12-.23-.24 0-.36l1.43-.83a.52.52 0 01.59 0l1.31.71a.23.23 0 010 .36zM214.7 195.53l-1.43.83a.52.52 0 01-.59 0l-1.3-.71c-.12-.12-.24-.24 0-.36l1.42-.83a.52.52 0 01.59 0l1.31.71a.23.23 0 010 .36zM218.14 193.51l-1.43.83a.52.52 0 01-.59 0l-1.3-.71c-.12-.12-.24-.24 0-.36l1.42-.83a.52.52 0 01.59 0l1.31.71c.12.12.12.36 0 .36zM190.38 213.34l-1.42.84a.58.58 0 01-.6 0l-1.3-.72c-.12-.12-.24-.23 0-.35l1.42-.84a.56.56 0 01.59 0l1.31.72c.12.12.12.35 0 .35zM193.82 211.44l-1.42.83a.54.54 0 01-.6 0l-1.3-.71c-.12-.12-.24-.24 0-.35l1.42-.84a.56.56 0 01.59 0l1.31.72a.22.22 0 010 .35zM197.26 209.42l-1.42.84a.54.54 0 01-.6 0l-1.3-.72c-.12-.12-.24-.23 0-.35l1.42-.83a.54.54 0 01.6 0l1.3.71a.22.22 0 010 .35zM200.7 207.4l-1.42.84a.58.58 0 01-.6 0l-1.3-.72c-.12-.12-.24-.23 0-.35l1.42-.83a.54.54 0 01.6 0l1.3.71a.22.22 0 010 .35zM204.14 205.39l-1.42.83a.54.54 0 01-.6 0l-1.3-.71c-.12-.12-.24-.24 0-.36l1.42-.83a.54.54 0 01.6 0l1.3.71a.23.23 0 010 .36zM207.58 203.37l-1.42.83a.54.54 0 01-.6 0l-1.3-.71c-.12-.12-.24-.24 0-.36l1.42-.83a.52.52 0 01.59 0l1.31.71c.12.12.12.36 0 .36zM211 201.47l-1.42.83a.54.54 0 01-.6 0l-1.3-.71c-.12-.12-.24-.24 0-.36l1.42-.83a.52.52 0 01.59 0l1.31.71a.23.23 0 010 .36zM214.46 199.45l-1.42.83a.54.54 0 01-.6 0l-1.3-.71c-.12-.12-.24-.24 0-.36l1.42-.83a.52.52 0 01.59 0l1.31.71a.23.23 0 010 .36zM217.9 197.43l-1.42.83a.54.54 0 01-.6 0l-1.3-.71c-.12-.12-.24-.24 0-.36l1.42-.83a.52.52 0 01.59 0l1.31.71a.23.23 0 010 .36z" fill="#15282f"/><path d="M231 148.74c0-16.86-2.61-31.23-7.71-42.87s-12.7-20.43-22.66-26.25c-8.42-4.86-15.06-5.81-19.93-3l-28.16 17.25-.12.12-1.9 23.87 6.29 57.84v.12l14.12 15.08h.12l16.6 2a.12.12 0 01.12.12l4.15 10c0 .12.12.12.24.12l28.23-17.46a14.15 14.15 0 003.09-2.37c5.09-5.59 7.52-17.11 7.52-34.57z" fill="#fff"/><path d="M192.16 204h-.36a1 1 0 01-.59-.59l-4-9.62-16.37-2-.36-.24-14.38-15.38-.12-.35-6.29-58 1.9-24a1.21 1.21 0 01.48-.84l28.11-17.22c5.1-3.08 12.1-2.13 20.76 2.85 10.08 5.82 17.79 14.85 23 26.61s7.71 26.36 7.71 43.22c0 17.82-2.49 29.34-7.59 35a14.75 14.75 0 01-3.32 2.61l-28.23 17.55a.37.37 0 01-.35.4zm-20.64-13.77l16.25 2a.88.88 0 01.83.59l3.8 9.14L220 185a11.06 11.06 0 002.85-2.26c4.75-5.34 7.24-16.74 7.24-34 0-16.74-2.61-31-7.6-42.51S210 86 200.23 80.34c-8.07-4.63-14.6-5.7-19.1-3l-27.76 17-1.9 23.51 6.29 57.6z" fill="#15282f"/><path d="M180.65 76.66l-28.11 17.21-.12.12-.83 10.22 8.31 1 4.62-1.9 4.39-8.2 28.35-17.22c-6.88-3.37-12.46-3.89-16.61-1.23z" fill="#f9550f"/><path d="M160 105.87l-9.25-1 .83-11a1.21 1.21 0 01.48-.84l28.11-17.22c4.39-2.73 10.32-2.25 17.44 1.19l1.42.71-29.53 17.95-4.39 8.19zm-7.47-2.49l7.24.83 4.15-1.67 4.39-8.07L195.48 78c-5.93-2.61-10.79-2.73-14.35-.59l-27.88 17z" fill="#15282f"/><path d="M220.63 100.17L192 116.79l-3.68 6.65L192 149l-5.57 42-.6 1.66 1.78.24a.12.12 0 01.12.12l4.15 10c0 .12.12.12.24.12l28.23-17.46a14.15 14.15 0 003.09-2.37c5-5.58 7.47-17 7.47-34.56 0-16.86-2.61-31.23-7.71-42.87a35.63 35.63 0 00-2.57-5.71z" fill="#f9550f"/><path d="M192.16 203.84h-.36a1 1 0 01-.59-.59l-4-9.62-2.49-.36.95-2.49 5.57-41.8-3.68-25.77 4-7.13L221.1 99l.48.71a40 40 0 012.72 5.59c5.11 11.7 7.7 26.34 7.7 43.2 0 17.82-2.5 29.34-7.6 35a14.31 14.31 0 01-3.32 2.61l-28.21 17.49a1.15 1.15 0 01-.71.24zm-5.1-11.84l.83.12a.88.88 0 01.83.59l3.8 9.14 27.63-17a11.25 11.25 0 002.85-2.25c4.74-5.35 7.24-16.75 7.24-34 0-16.74-2.61-31-7.59-42.51-.6-1.43-1.43-3-2.26-4.64l-27.64 16-3.44 6.17L193 149.1l-5.57 42.39z" fill="#15282f"/><path d="M227.15 116.91l-28.47 16.51-6.05 7.36 2.73 17.94-9.49 34 1.66.24a.12.12 0 01.12.12l4.15 10c0 .12.12.12.24.12l28.23-17.46a13.87 13.87 0 003.08-2.37c5-5.58 7.48-17 7.48-34.56a119.17 119.17 0 00-3.68-31.9z" fill="#15282f"/><path d="M192 204h-.36a1 1 0 01-.59-.59l-4-9.62-2.26-.24 9.73-34.79-2.85-18.17 6.41-7.84 29.42-17.1.23 1.07a125.07 125.07 0 013.8 31.94c0 17.81-2.49 29.33-7.59 35a15.07 15.07 0 01-3.32 2.62l-28.22 17.44c0 .12-.12.28-.4.28zm-5-11.87l.71.12a.88.88 0 01.83.59l3.8 9.14L220 185a11.06 11.06 0 002.85-2.26c4.75-5.34 7.24-16.74 7.24-34a126.19 126.19 0 00-3.44-30.4l-27.25 15.91-5.7 6.89 2.73 17.7z" fill="#15282f"/><path d="M163.46 173.32l28.46-17s-.83-5.22-1.07-7.36-3.91-19.12-4.26-20.19-4.87-18.88-14.36-20.54l-9.49-1.67L155 122s1.54 2.61-.83 17.93-2.37 13.9-2.37 13.9 2.13 14.6 3.08 14.84 8.58 4.65 8.58 4.65z" fill="#f9550f"/><path d="M163.45 174.27L163 174a79.24 79.24 0 00-8.19-4.52c-.59-.12-1.42-.35-3.55-14.84h-.12v-.83h.71l-.59-.24c.11-.24.47-1.9 2.25-13.78 2.14-14.37.95-17.33.83-17.45l-.12-.36.12-.36 8-16 10.08 1.78c5.93 1.07 10.91 7.84 14.71 20.31.12.48.24.71.24.83.59 1.31 4.15 18.77 4.38 20.43.36 2 1.07 7.36 1.07 7.36l.12.59zm-7.94-6.27c1.42.59 5.93 3.2 7.83 4.27L191 155.75c-.23-1.43-.71-5.11-.95-6.77-.35-2.14-3.79-18.88-4.27-19.95a3 3 0 00-.35-.95c-4.51-14.61-9.73-18.41-13.41-19.12l-8.89-1.55-7.27 14.59c.36 1.31 1.07 5.58-.83 18-1.3 8.79-1.9 12.35-2.25 13.78.95 6.22 2.13 13.01 2.73 14.22z" fill="#15282f"/><path d="M160.49 160.85l28.47-17s-.83-5.22-1.07-7.36-3.91-19.12-4.27-20.19-4.86-18.88-14.35-20.54l-9.49-1.67-7.71 15.44s1.54 2.61-.83 17.93-2.38 13.9-2.38 13.9S151 156 152 156.22s8.49 4.63 8.49 4.63z" fill="#15282f"/><path d="M160.49 161.8l-.48-.23a79.51 79.51 0 00-8.18-4.52c-.59-.12-1.42-.35-3.56-14.84h-.12v-.83h.71l-.59-.24c.12-.24.47-1.9 2.25-13.78 2.14-14.36.95-17.33.83-17.45l-.11-.36.11-.36 8-16 10.08 1.78c5.94 1.07 10.92 7.84 14.71 20.31.12.48.24.71.24.83.59 1.31 4.15 18.77 4.39 20.43.35 2 1.07 7.36 1.07 7.36l.11.59zm-8-6.29c1.42.59 5.93 3.21 7.83 4.27l27.68-16.5c-.24-1.43-.71-5.11-.95-6.77-.36-2.14-3.8-18.88-4.27-19.95a3.13 3.13 0 00-.36-1C177.93 101 172.71 97.2 169 96.49l-8.9-1.55-7.23 14.61c.35 1.31 1.06 5.58-.83 18-1.31 8.79-1.9 12.35-2.26 13.78a143.45 143.45 0 002.76 14.18z" fill="#15282f"/><path d="M202.84 166q0 26.19-7.48 34.56c-5 5.58-12.57 5.34-22.89-.6-10-5.82-17.56-14.48-22.54-26s-7.59-25.89-7.59-42.76c0-17.69 2.49-29.21 7.36-34.79s12.57-5.41 22.77.59c10 5.82 17.55 14.49 22.66 26.25s7.71 25.85 7.71 42.75zm-42.35-24.5c0 12.23.95 21.61 2.73 28s5 10.81 9.25 13.3 7.35 1.55 9.25-2.73 2.85-12.47 2.85-24.7-.95-21.61-2.85-28.14-5-10.93-9.25-13.42-7.35-1.55-9.25 2.73-2.73 12.72-2.73 24.96z" fill="#f9550f"/><path d="M186.35 205.39c-4 0-8.9-1.55-14.36-4.75-10.08-5.82-17.79-14.73-22.89-26.49S141.39 148 141.39 131c0-18 2.49-29.57 7.59-35.38s13.29-5.7 23.84.47c10.09 5.82 17.8 14.85 23 26.6s7.71 26.37 7.71 43.23c0 17.81-2.49 29.33-7.59 35a11.94 11.94 0 01-9.59 4.47zM158.71 93a10.89 10.89 0 00-8.42 3.68c-4.75 5.35-7.24 16.87-7.24 34.21 0 16.74 2.49 31 7.59 42.51s12.46 20.07 22.18 25.65c10 5.82 17.2 6.06 21.83.83s7.24-16.74 7.24-34c0-16.75-2.61-31-7.6-42.52s-12.57-20.1-22.29-25.8c-5.22-2.97-9.61-4.56-13.29-4.56zm17.91 92a9.45 9.45 0 01-4.63-1.43c-4.5-2.61-7.7-7.24-9.6-13.77s-2.73-15.92-2.73-28.26 1-20.79 2.85-25.18c.94-2.26 2.37-3.8 4-4.28s3.91-.23 6.4 1.19c4.39 2.5 7.6 7.25 9.61 13.9s3 16 3 28.38-1 20.54-3 24.94c-1.07 2.25-2.37 3.8-4.15 4.27a9.06 9.06 0 01-1.75.32zm-8.42-71.61a4.2 4.2 0 00-1.19.24c-1.18.35-2.25 1.54-3.08 3.32-1.78 4.16-2.73 12.35-2.73 24.47s1 21.49 2.73 27.79 4.74 10.45 8.89 12.82c2 1.19 3.68 1.54 5 1.07s2.25-1.55 3.08-3.44c1.78-4.16 2.73-12.36 2.73-24.35s-1-21.49-2.85-27.91c-1.89-6.17-4.86-10.57-8.78-12.82a7.7 7.7 0 00-3.8-1.11z" fill="#15282f"/><path d="M226.32 131.66l-22.22 12.76.82 1.44 22.23-12.76zM172.08 133.53l-9.31 5.71.87 1.42L173 135zM227.49 142.49l-9.31 5.7.87 1.42 9.3-5.71z" fill="#f9550f"/><path d="M208.91 95.35l-22.23 12.76.83 1.44 22.22-12.76z" fill="#15282f"/><path d="M253.25 125.23l4.15-4.52-1.31-.83c1.07-3.68 1-8.19-.59-13.42C253 98 251.35 86.27 244 79.39c-7-6.42-19.57-8-27.63-9.86-5.22-1.19-9.85-1.07-13.41.24l-.96-1.31-4.39 4.75c-3.8 4.16-5 10.69-2.49 19 5 16.39 22.53 33 39.14 36.94 8.55 2.01 15.19.35 18.99-3.92zm-21.25-3.8c-6.16-1.43-9-9.74-14.23-14.61s-13.04-6.65-14.77-12.71c-3.67-12.23 3.44-19.71 15.78-16.86s25.38 15.2 29.06 27.43-3.49 19.71-15.84 16.75z" fill="#15282f"/><path d="M241.15 130.69a30.45 30.45 0 01-7-.83c-16.84-4-34.75-20.78-39.74-37.41-2.49-8.19-1.54-15.2 2.61-19.59l.12-.12 5-5.35 1.07 1.55c3.8-1.19 8.3-1.19 13.29-.12 1.42.35 3 .59 4.5 1 7.83 1.66 17.56 3.68 23.37 9 6.05 5.58 8.3 14.25 10.2 21.85.48 1.9.95 3.8 1.54 5.47 1.43 4.87 1.78 9.5.72 13.3l1.54 1.07-5 5.34-.12.12-.12.24c-2.73 2.94-6.88 4.48-11.98 4.48zM202 69.77l-3.8 4c-3.8 4-4.63 10.56-2.37 18.28 4.86 16.15 22.18 32.54 38.67 36.34 7.94 1.9 14.47.6 18.26-3.68l.48-.47 3.08-3.33-1.07-.59.12-.48c1.07-3.68.83-8.19-.59-12.94-.47-1.78-.95-3.56-1.54-5.58-1.9-7.49-4-15.92-9.85-21.14-5.57-5.11-15.06-7.13-22.77-8.67-1.66-.36-3.2-.71-4.63-1-5-1.19-9.37-1.07-13.05.24l-.47.23zm35.11 53.08a27.56 27.56 0 01-5.22-.59c-4.16-1-6.77-4.75-9.61-8.67a42.22 42.22 0 00-5-6.18 35.06 35.06 0 00-6.41-4.51c-3.8-2.26-7.47-4.51-8.66-8.55-1.9-6.18-1.18-11.4 2-14.84s8.42-4.4 14.59-3c12.57 3 25.86 15.43 29.65 27.9 1.9 6.18 1.19 11.41-2 14.85a12.92 12.92 0 01-9.33 3.59zm-23.48-45.48c-3.44 0-6.41 1.07-8.3 3.09-2.85 3-3.44 7.71-1.67 13.3 1.07 3.56 4.27 5.46 8 7.71a35.39 35.39 0 016.65 4.64 38.54 38.54 0 015.21 6.41c2.61 3.68 5.1 7.12 8.66 8.08 5.7 1.3 10.44.47 13.17-2.5s3.44-7.72 1.66-13.3c-3.56-12-16.37-24-28.59-26.84a22 22 0 00-4.79-.59z" fill="#15282f"/><path d="M260.24 101.47c-5-16.38-22.53-33-39.14-36.93s-26.21 6.18-21.23 22.68 22.54 33 39.14 36.94 26.22-6.16 21.23-22.69zm-23.48 15c-12.34-3-25.38-15.2-29.06-27.43s3.44-19.72 15.77-16.87 25.39 15.2 29.07 27.43-3.44 19.81-15.78 16.84z" fill="#fff"/><path d="M245.89 125.7a30.51 30.51 0 01-7-.83c-16.84-4-34.75-20.78-39.73-37.41-2.49-8.19-1.54-15.2 2.73-19.71s11.15-5.82 19.45-3.92c16.84 4 34.75 20.78 39.74 37.41 2.49 8.19 1.54 15.2-2.73 19.71-2.97 3.21-7.35 4.75-12.46 4.75zm-31.67-61.16c-4.74 0-8.66 1.43-11.39 4.28-3.79 4-4.62 10.57-2.37 18.29 4.86 16.15 22.18 32.53 38.67 36.33 7.83 1.79 14.24.6 18-3.44s4.63-10.57 2.37-18.29c-4.86-16.15-22.18-32.54-38.67-36.34a26.2 26.2 0 00-6.61-.83zm27.52 53.32a26.77 26.77 0 01-5.22-.59c-12.57-3-25.86-15.44-29.65-27.91-1.9-6.17-1.19-11.4 2-14.84s8.31-4.4 14.59-3c12.58 3 25.86 15.44 29.66 27.91 1.9 6.17 1.18 11.4-2 14.84a12.67 12.67 0 01-9.38 3.59zm-23.37-45.48a11.18 11.18 0 00-8.3 3.09c-2.85 3-3.44 7.72-1.66 13.3 3.56 12 16.37 24 28.59 26.84 5.69 1.3 10.43.47 13.16-2.5s3.44-7.72 1.66-13.3c-3.56-12-16.37-24-28.58-26.84a25.19 25.19 0 00-4.87-.59z" fill="#15282f"/><path d="M227.09 119.16l-4.63 4.93 1 1 4.63-4.93zM198 81.81l-4.63 4.93 1 1 4.63-4.95zM201.33 91.86l-4.63 4.93 1 1 4.64-4.94zM250.13 94.64l-4.63 4.93 1 1 4.63-4.93zM228.9 73.86l-4.63 4.93 1 1 4.63-4.93z" fill="#f9550f"/><path d="M257.52 180.45a.45.45 0 00.24-.6l-16.73-55a.44.44 0 00-.36-.24l-4.86-1.19a1.89 1.89 0 00-1.54.48l-3.2 3.44a.91.91 0 00-.24.48l16.84 55a.44.44 0 00.6.24z" fill="#fff"/><path d="M248 184a1.14 1.14 0 01-1.07-.83l-16.84-55.1V128a1.42 1.42 0 01.47-.95l3.2-3.45a2.42 2.42 0 012.26-.71l4.86 1.19a1.62 1.62 0 01.83.59l.12.24 16.72 55a.94.94 0 01-.11 1 1.24 1.24 0 01-.71.6l-9.38 2.73c-.2-.35-.2-.24-.35-.24zm-16.49-56.17l16.61 54.51 8.89-2.61-16.6-54.51-4.72-1.22a1.62 1.62 0 00-.83.35z" fill="#15282f"/><path d="M253 185l-4.86-1.19c-.48-.12-.48-.47-.12-1l3.2-3.44a1.89 1.89 0 011.54-.48l4.87 1.19c.47.12.47.48.12.95l-3.21 3.45a2.12 2.12 0 01-1.54.52z" fill="#f9550f"/><path d="M253.25 185.67h-.36l-4.89-1.18a1.15 1.15 0 01-.95-.84 1.34 1.34 0 01.35-1.3l3.21-3.45a2.39 2.39 0 012.25-.71l4.87 1.19a1.15 1.15 0 01.94.83 1.35 1.35 0 01-.35 1.31l-3.2 3.44a4.16 4.16 0 01-1.87.71zm-4.63-2.49l4.51 1.07a1.57 1.57 0 00.83-.36l3.08-3.2-4.5-1.07a1.59 1.59 0 00-.83.35z" fill="#15282f"/><path d="M233.2 125l-2.2 2.36 17 55.46 2.13-2.25zM237.58 127.33l-1.36.41 8.78 28.62 1.37-.41zM247.84 161.47l-1.36.41 2.88 9.43 1.36-.42z" fill="#15282f"/><path d="M228.93 128.2a71.88 71.88 0 01-10.08-5.2l.83-1.19a76.35 76.35 0 009.84 5.11z" fill="#f9550f"/><path d="M245.54 243.86l-1.42.84a.58.58 0 01-.6 0l-1.3-.72c-.12-.12-.24-.24 0-.35l1.42-.84a.56.56 0 01.59 0l1.31.72c.12.23.12.35 0 .35zM248.86 245.76l-1.43.84a.56.56 0 01-.59 0l-1.3-.72c-.12-.12-.24-.23 0-.35l1.42-.83a.52.52 0 01.59 0l1.31.71c.14.12.14.35 0 .35zM245.42 247.78l-1.42.83a.54.54 0 01-.6 0l-1.3-.71c-.12-.12-.24-.24 0-.36l1.42-.83a.56.56 0 01.59 0l1.31.72a.22.22 0 010 .35zM252.06 247.66l-1.42.83a.54.54 0 01-.6 0l-1.3-.71c-.12-.12-.24-.24 0-.35l1.42-.83a.54.54 0 01.6 0l1.3.71c.12.12.24.35 0 .35zM248.62 249.68l-1.42.83a.52.52 0 01-.59 0l-1.31-.71c-.12-.12-.24-.24 0-.35l1.42-.84a.54.54 0 01.6 0l1.3.72a.22.22 0 010 .35zM255.62 249.68l-1.42.83a.54.54 0 01-.6 0l-1.3-.71c-.12-.12-.24-.24 0-.35l1.42-.84a.54.54 0 01.6 0l1.3.72c.12.12.12.35 0 .35zM252.06 251.7l-1.42.83a.54.54 0 01-.6 0l-1.3-.71c-.12-.12-.24-.24 0-.36l1.42-.83a.54.54 0 01.6 0l1.3.72c.24.11.24.23 0 .35zM258.82 251.58l-1.42.83a.52.52 0 01-.59 0l-1.31-.71c-.12-.12-.24-.24 0-.35l1.42-.84a.58.58 0 01.6 0l1.3.72a.22.22 0 010 .35zM255.38 253.6l-1.42.83a.52.52 0 01-.59 0l-1.31-.71c-.12-.12-.24-.24 0-.36l1.43-.83a.52.52 0 01.59 0l1.3.71a.22.22 0 010 .36zM262.14 253.48l-1.42.83a.52.52 0 01-.59 0l-1.31-.83c-.12-.12-.24-.24 0-.35l1.43-.84a.56.56 0 01.59 0l1.3.72c.12.23.12.35 0 .47zM258.7 255.5l-1.42.83a.52.52 0 01-.59 0l-1.31-.71c-.12-.12-.23-.24 0-.36l1.43-.83a.52.52 0 01.59 0l1.3.72a.22.22 0 010 .35zM265.58 255.5l-1.42.83a.52.52 0 01-.59 0l-1.31-.71c-.12-.12-.24-.24 0-.36l1.42-.83a.54.54 0 01.6 0l1.3.72a.22.22 0 010 .35zM262.14 257.52l-1.42.83a.52.52 0 01-.59 0l-1.31-.71c-.12-.12-.24-.24 0-.36l1.43-.83a.52.52 0 01.59 0l1.3.71a.23.23 0 010 .36zM269 253.48l-1.42.83a.52.52 0 01-.59 0l-1.31-.71c-.12-.12-.24-.24 0-.36l1.43-.83a.52.52 0 01.59 0l1.3.72a.22.22 0 010 .35zM272.46 251.46l-1.42.83a.52.52 0 01-.59 0l-1.31-.71c-.12-.12-.23-.23 0-.35l1.43-.83a.52.52 0 01.59 0l1.3.71c.12.12.12.35 0 .35zM275.9 249.56l-1.42.84a.56.56 0 01-.59 0l-1.31-.72c-.12-.12-.23-.23 0-.35l1.43-.84a.56.56 0 01.59 0l1.3.72a.22.22 0 010 .35zM279.34 247.54l-1.42.84a.56.56 0 01-.59 0l-1.31-.72c-.12-.12-.24-.23 0-.35l1.43-.83a.52.52 0 01.59 0l1.3.71c.12.12.24.24 0 .35zM282.78 245.53l-1.42.83a.52.52 0 01-.59 0l-1.31-.71c-.12-.12-.23-.24 0-.36l1.43-.83a.52.52 0 01.59 0l1.3.71c.12.12.22.24 0 .36zM286.22 243.51l-1.42.83a.52.52 0 01-.59 0l-1.31-.71c-.12-.12-.23-.24 0-.36l1.43-.83a.52.52 0 01.59 0l1.3.71q.36.18 0 .36zM289.78 241.49l-1.42.83a.52.52 0 01-.59 0l-1.31-.71c-.12-.12-.24-.24 0-.36l1.42-.83a.54.54 0 01.6 0l1.3.71c.12.12.12.36 0 .36zM293.22 239.59l-1.42.83a.54.54 0 01-.6 0l-1.3-.71c-.12-.12-.24-.24 0-.36l1.42-.83a.54.54 0 01.6 0l1.3.71a.23.23 0 010 .36zM296.66 237.57l-1.42.83a.54.54 0 01-.6 0l-1.3-.71c-.12-.12-.24-.24 0-.36l1.42-.83a.54.54 0 01.6 0l1.3.71a.23.23 0 010 .36zM268.9 257.4l-1.42.83a.52.52 0 01-.59 0l-1.31-.71c-.11-.12-.23-.24 0-.36l1.43-.83a.52.52 0 01.59 0l1.3.72a.22.22 0 010 .35zM272.35 255.38l-1.43.83a.52.52 0 01-.59 0l-1.33-.71c-.12-.12-.23-.24 0-.35l1.43-.84a.56.56 0 01.59 0l1.31.72a.23.23 0 01.02.35zM275.79 253.36l-1.43.84a.56.56 0 01-.59 0l-1.31-.72c-.11-.12-.23-.24 0-.35l1.43-.84a.56.56 0 01.59 0l1.31.72c.11.12.11.35 0 .35zM279.23 251.46l-1.43.83a.52.52 0 01-.59 0l-1.31-.71c-.11-.12-.23-.23 0-.35l1.43-.83a.52.52 0 01.59 0l1.31.71a.23.23 0 010 .35zM282.67 249.45l-1.43.83a.52.52 0 01-.59 0l-1.31-.72c-.11-.11-.23-.23 0-.35l1.43-.83a.52.52 0 01.59 0l1.31.71a.24.24 0 010 .36zM286.11 247.43l-1.43.83a.52.52 0 01-.59 0l-1.31-.72c-.11-.11-.23-.23 0-.35l1.43-.83a.52.52 0 01.59 0l1.31.71a.24.24 0 010 .36zM289.54 245.41l-1.42.83a.52.52 0 01-.59 0l-1.31-.71c-.12-.12-.23-.24 0-.36l1.43-.83a.52.52 0 01.59 0l1.3.71a.23.23 0 010 .36zM293 243.39l-1.42.83a.52.52 0 01-.59 0l-1.31-.71c-.11-.12-.23-.24 0-.36l1.43-.83a.52.52 0 01.59 0l1.3.71c.1.12.1.36 0 .36zM296.42 241.49l-1.42.83a.52.52 0 01-.59 0l-1.31-.71c-.12-.12-.23-.24 0-.36l1.43-.83a.52.52 0 01.59 0l1.3.71a.23.23 0 010 .36z" fill="#15282f"/><path d="M247.2 141.14l28.11-17.34 16.84 9.74L264 150.88z" fill="#fff"/><path d="M264 151.83l-.47-.24-17.2-10v-1l.47-.23 28.59-17.58.47.24 17.2 10v.98l-.47.24zm-15.3-10.69l15.18 8.79 26.57-16.27-15.18-8.79zM264 251l28.11-17.34V213L264 230.32z" fill="#15282f"/><path d="M264 251.94l-.83-.48v-21.73l.47-.24 28.59-17.57.83.47V234l-.47.23zm.83-21.26v18.77l26.57-16.27v-18.77z" fill="#15282f"/><path d="M274.48 236.26l28.11-17.33v-16.39l-28.11 17.34z" fill="#15282f"/><path d="M274.48 237.21l-.83-.47V219.4l.36-.24 28.58-17.57.83.47v17.34l-.47.24zm.83-16.86v14.49l26.57-16.27v-14.49z" fill="#15282f"/><path d="M225.25 191.37l28.24-17.22 20.87 12-28.23 17.34z" fill="#fff"/><path d="M246.13 204.44l-22.54-13.07 29.89-18.28L276 186.15zm-19.22-13.07l19.22 11 26.57-16.27-19.22-11z" fill="#15282f"/><path d="M225.25 191.37l28.23-17.22-7-9.14-14.12 3.56-9.49 17.58z" fill="#15282f"/><path d="M224.9 192.68l-3-6.53 9.85-18.29 15.06-3.92 7.95 10.33zm-1.07-6.53l1.78 4 26.57-16.27L246 166l-13.17 3.44z" fill="#15282f"/><path d="M274.36 236.26L264 230.33V251l-17.79-10.33V220l-36.89-21.37v-14.74l38-42.63 16.84 9.74v62.94L274.6 220l-.24 16.27zm-28.23-32.77v-17c0-2.86.12-6.89.24-12.12s.35-8.31.47-9.14l-.47-.24a40.8 40.8 0 01-5.22 8l-15.9 18.52z" fill="#f9550f"/><path d="M264 251.94l-.47-.24-18.23-10.57v-20.66l-36.89-21.38v-15.55l.24-.24 38.43-43.11L265 150.52v62.94l10.44 6.06v17.34l-.83.47-.48-.23-9.13-5.23v19.71zm-17-11.76l16.25 9.38v-19.83l.83-.47.48.23 9.13 5.23v-14.49l-10.44-6v-62.88l-15.89-9.14-37.25 41.92V198L247 219.4v20.78zm-.83-35.74l-.47-.24-21.16-12.2-.12-.83.24-.36 15.89-18.53a35 35 0 005.11-7.71l.35-.84 1.78 1.07-.12.6c-.12.71-.24 3.8-.47 9s-.24 9.38-.24 12.12V204zm-19.57-13.18l18.74 10.8v-15.55c0-2.86.12-6.89.36-12.24.11-2.85.23-5 .23-6.53a48.62 48.62 0 01-4 5.7z" fill="#15282f"/><path d="M264.28 213.7l27.87-17.1.12-.12V133.9c0-.12-.12-.24-.23-.12l-27.88 17.1-.16.12v62.58c0 .12.16.12.28.12z" fill="#15282f"/><path d="M264.16 214.53a.72.72 0 01-.48-.12.8.8 0 01-.47-.83V151a.81.81 0 01.47-.84l27.88-17.1a.74.74 0 01.95 0 .81.81 0 01.47.84v62.58a1 1 0 01-.47.83l-27.88 17.1c-.11.12-.23.12-.47.12zm.71-63.18v60.92L291.44 196v-60.92z" fill="#15282f"/><path d="M264 213.82l28.11-17.34 10.32 5.94-28.11 17.34z" fill="#fff"/><path d="M274.48 220.82l-.47-.23-10.8-6.3v-.95l.47-.23 28.59-17.58.48.24 10.79 6.29v.94l-.47.24zm-8.78-7l8.78 5.11 26.57-16.28-8.78-5.1z" fill="#15282f"/><path d="M289.23 226.25L276.58 234l.87 1.42 12.65-7.75zM289.82 180.65l-24.38 14.95.86 1.41 24.38-14.94zM273 176.89l-7.59 4.65.87 1.42 7.58-4.66z" fill="#f9550f"/><path d="M42.82 264.29l-1.42.83a.54.54 0 01-.6 0l-1.3-.71c-.12-.12-.24-.24 0-.36l1.42-.83a.54.54 0 01.6 0l1.3.71q.36.18 0 .36zM46.14 266.19l-1.42.83a.52.52 0 01-.59 0l-1.31-.71c-.12-.12-.24-.24 0-.36l1.42-.83a.54.54 0 01.6 0l1.3.71a.23.23 0 010 .36zM42.7 268.21l-1.42.83a.52.52 0 01-.59 0l-1.31-.71c-.12-.12-.24-.24 0-.36l1.42-.83a.54.54 0 01.6 0l1.3.71a.22.22 0 010 .36zM49.46 268.09l-1.42.83a.52.52 0 01-.59 0l-1.31-.71c-.12-.12-.23-.24 0-.36l1.43-.83a.52.52 0 01.59 0l1.3.71a.23.23 0 010 .36zM46 270.11l-1.42.83a.52.52 0 01-.59 0l-1.31-.71c-.12-.12-.23-.24 0-.36l1.43-.83a.52.52 0 01.59 0l1.3.71a.23.23 0 010 .36zM52.9 270.11l-1.42.83a.52.52 0 01-.59 0l-1.31-.71c-.12-.12-.23-.24 0-.36L51 269a.52.52 0 01.59 0l1.3.71a.23.23 0 01.01.4zM49.46 272.13L48 273a.52.52 0 01-.59 0l-1.31-.71c-.12-.12-.23-.24 0-.36l1.43-.83a.52.52 0 01.59 0l1.3.71a.22.22 0 01.04.32zM56.34 268.09l-1.42.83a.52.52 0 01-.59 0l-1.33-.71c-.12-.12-.24-.24 0-.36l1.43-.83a.52.52 0 01.59 0l1.3.71a.23.23 0 01.02.36zM59.78 266.07l-1.42.83a.52.52 0 01-.59 0l-1.31-.71c-.12-.12-.24-.24 0-.36l1.42-.83a.54.54 0 01.6 0l1.3.71c.12.12.12.36 0 .36zM56.22 272l-1.42.83a.52.52 0 01-.59 0l-1.31-.71c-.12-.12-.23-.24 0-.36l1.43-.83a.52.52 0 01.59 0l1.3.71a.23.23 0 010 .36zM59.66 270l-1.42.83a.52.52 0 01-.59 0l-1.31-.71c-.12-.12-.23-.24 0-.36l1.43-.83a.52.52 0 01.59 0l1.3.71a.23.23 0 010 .36zM108.65 303.24l-1.42.83a.52.52 0 01-.59 0l-1.31-.71c-.12-.12-.24-.24 0-.36l1.42-.83a.54.54 0 01.6 0l1.3.72c.24.11.24.35 0 .35zM112 305.14l-1.42.83a.52.52 0 01-.59 0l-1.31-.71c-.12-.12-.23-.24 0-.36l1.43-.83a.52.52 0 01.59 0l1.3.72c.09.11.09.35 0 .35zM108.53 307.16l-1.42.83a.52.52 0 01-.59 0l-1.31-.71c-.11-.12-.23-.24 0-.36l1.43-.83a.52.52 0 01.59 0l1.3.71a.23.23 0 010 .36zM115.3 307l-1.43.83a.52.52 0 01-.59 0l-1.31-.71c-.11-.12-.23-.24 0-.36l1.43-.83a.52.52 0 01.59 0l1.31.72a.22.22 0 010 .35zM111.86 309.06l-1.43.83a.52.52 0 01-.59 0l-1.31-.71c-.11-.12-.23-.24 0-.36L110 308a.52.52 0 01.59 0l1.31.71a.24.24 0 01-.04.35zM118.74 309.06l-1.43.83a.52.52 0 01-.59 0l-1.31-.71c-.11-.12-.23-.24 0-.36l1.43-.83a.52.52 0 01.59 0l1.31.71a.24.24 0 010 .36zM115.3 311.08l-1.43.83a.52.52 0 01-.59 0l-1.28-.71c-.11-.12-.23-.24 0-.36l1.43-.83a.52.52 0 01.59 0l1.31.71a.22.22 0 01-.03.36zM122.18 307l-1.43.83a.52.52 0 01-.59 0l-1.31-.71c-.11-.12-.23-.24 0-.36l1.43-.83a.52.52 0 01.59 0l1.31.72c.11.15.11.35 0 .35zM125.61 305l-1.42.83a.52.52 0 01-.59 0l-1.31-.71c-.11-.12-.23-.24 0-.35l1.43-.84a.56.56 0 01.59 0l1.3.72c.12.25.12.35 0 .35zM121.94 311l-1.43.83a.52.52 0 01-.59 0l-1.3-.71c-.12-.12-.24-.24 0-.36l1.42-.83a.52.52 0 01.59 0l1.31.72c.24.07.24.19 0 .35zM125.5 308.94l-1.43.83a.52.52 0 01-.59 0l-1.3-.71c-.12-.12-.24-.24 0-.36l1.42-.83a.52.52 0 01.59 0l1.31.72a.23.23 0 010 .35zM168 268.92l-1.42.83a.52.52 0 01-.59 0l-1.31-.71c-.12-.12-.24-.24 0-.36l1.42-.83a.54.54 0 01.6 0l1.3.72c.08.11.08.35 0 .35zM171.16 270.82l-1.42.83a.52.52 0 01-.59 0l-1.31-.71c-.12-.12-.24-.24 0-.36l1.42-.83a.54.54 0 01.6 0l1.3.71c.12.12.24.24 0 .36zM167.72 272.84l-1.42.83a.52.52 0 01-.59 0l-1.31-.67c-.12-.12-.24-.24 0-.36l1.43-.83a.52.52 0 01.59 0l1.3.71a.23.23 0 010 .32zM174.49 272.72l-1.43.83a.52.52 0 01-.59 0l-1.31-.71c-.11-.12-.23-.24 0-.36l1.43-.83a.52.52 0 01.59 0l1.31.71a.24.24 0 010 .36zM171 274.74l-1.42.83a.52.52 0 01-.59 0l-1.31-.71c-.12-.12-.23-.24 0-.36l1.43-.83a.52.52 0 01.59 0l1.3.71a.23.23 0 010 .36zM177.93 274.74l-1.43.83a.52.52 0 01-.59 0l-1.31-.71c-.11-.12-.23-.24 0-.36l1.43-.83a.52.52 0 01.59 0l1.31.71a.24.24 0 010 .36zM174.49 276.76l-1.43.83a.52.52 0 01-.59 0l-1.31-.71c-.11-.12-.23-.24 0-.36l1.43-.83a.52.52 0 01.59 0l1.31.71a.24.24 0 010 .36zM181.37 272.72l-1.43.83a.52.52 0 01-.59 0l-1.31-.71c-.11-.12-.23-.24 0-.36l1.43-.83a.52.52 0 01.59 0l1.31.71a.24.24 0 010 .36zM184.8 270.7l-1.42.83a.52.52 0 01-.59 0l-1.31-.71c-.12-.12-.24-.24 0-.36l1.43-.83a.56.56 0 01.59 0l1.3.72c.12.11.2.35 0 .35zM181.24 276.64l-1.42.83a.52.52 0 01-.59 0l-1.31-.71c-.12-.12-.23-.24 0-.36l1.43-.83a.52.52 0 01.59 0l1.3.71a.22.22 0 010 .36zM184.69 274.62l-1.43.83a.52.52 0 01-.59 0l-1.3-.71c-.12-.12-.24-.24 0-.36l1.42-.83a.52.52 0 01.59 0l1.31.72a.23.23 0 010 .35zM110.31 231.63l-27.87-55.34-27.88 87.52-3.44 2 31.32-98.21 31.31 62.11z" fill="#15282f"/><path d="M51.12 266.78l-.83-.59.12-.48L81.85 167l.94-.12.24.47 31.67 62.71-.71.35-3.91 2.26-.48-.59-27-53.68-27.4 86.1-.24.12zm31.44-97.26l-30.13 94.77 1.54-1 28-87.76 1-.12.24.47 27.52 54.63 2.14-1.18z" fill="#15282f"/><path d="M42 260.49l9.13 5.34 31.31-98.33-9.13-5.34z" fill="#fff"/><path d="M51 266.67l-.36-.24-9.64-5.7.24-.6 31.43-98.56.71-.24.36.12 9.61 5.7-.24.59-31.39 98.57zm-8.07-6.54l7.83 4.64 30.84-96.91-7.83-4.63z" fill="#15282f"/><path d="M101.18 226.29l9.13 5.34-27.87-55.34L80 184z" fill="#f9550f"/><path d="M110.43 232.46l-.47-.23-9.37-5.59v-.12l-21.35-42.39L82 175.7l1-.12.24.47 28.11 55.7zm-8.66-6.77l6.77 4-26-51.54-1.88 5.85z" fill="#15282f"/><path d="M167.37 264.88l9.13 5.35L148.63 215l-2.49 7.72z" fill="#f9550f"/><path d="M176.62 271.06l-.47-.24-9.26-5.46-.11-.24-21.35-42.39 2.72-8.55.95-.12.24.47 28.11 55.7zm-8.62-6.77l6.76 4-26-51.54-1.9 5.82z" fill="#15282f"/><path d="M93.35 211.32l73.07 43.94 1.78-.95L165 248l-74.61-42.61-1.78 1z" fill="#15282f"/><path d="M166.42 256.21l-.35-.23-73.19-44.06-5.46-5.7 2.85-1.66.35.11 74.73 42.76.12.11.12.24 3.44 6.77-.59.36zm-72.59-45.48l72.59 43.7.83-.47-2.73-5.47-74.13-42.27-.6.35z" fill="#15282f"/><path d="M91.57 212.39l74.73 43-3.2-6.29-74.61-42.64z" fill="#f9550f"/><path d="M166.42 256.21L166 256l-74.9-43-.24-.24-3.2-6.41.71-.83.48.23 74.72 42.64.24.23 3.44 6.77zM92.17 211.8l72.47 41.68-2-3.92-72.37-41.32z" fill="#15282f"/><path d="M108.18 299.08l9.13 5.35 31.32-98.33-9.14-5.34z" fill="#fff"/><path d="M117.19 305.26l-.35-.12-9.61-5.7.12-.47 31.43-98.69.71-.24.24.12 9.61 5.7-.24.6L117.67 305zm-8.19-6.53l7.83 4.63 30.84-96.9-7.83-4.64z" fill="#15282f"/><path d="M176.5 270.23L148.63 215l-27.88 87.52-3.44 2 31.32-98.21 31.31 62.11z" fill="#15282f"/><path d="M117.19 305.38l-.83-.59.12-.48 31.44-98.69 1-.11.23.47 31.67 62.7-.71.36-4 2.26-.36-.72-27-53.67-27.4 86.21-.24.12zm31.56-97.26l-30.25 94.77 1.54-.84 28-87.76.94-.11.24.47 27.52 54.63 2.14-1.19z" fill="#15282f"/><path d="M47.45 243.27l73.42 44.89 1.78-1 1.66-5.23L49.11 238l-1.78.84z" fill="#15282f"/><path d="M120.75 289l-.35-.24-73.78-45v-.47l-.24-4.63.36-.24 2.26-1.09.36.24L125 281.75l-.12.47-1.65 5.58-.24.12zm-72.59-46.09l72.71 44.42 1.19-.6 1.3-4.39L49 239l-1.07.48z" fill="#15282f"/><path d="M45.55 244.22l75.2 43.94 1.66-5.23-75.2-43.82z" fill="#f9550f"/><path d="M120.75 289l-.35-.12-75.8-44.3.24-.6 1.78-5.46.71-.24.36.12 75.79 44.18-.24.59-1.66 5.47zm-74.37-45.14l74 43.23 1.18-3.8-73.87-43.11z" fill="#15282f"/><path d="M123.13 287.45l-.84-.36 1.55-4.75.83.36zM165.37 247.87l-.74.37 2.35 4.67.74-.38zM81 175.34l-.6 1 7.6 4.45.6-1zM52 230.44l75.2 43.82 7.8-24.58-75.45-43.34-1.55.47z" fill="#f9550f"/><path d="M127.16 275.21l-.36-.23-75.2-43.82-.47-.24.11-.59 6.17-24.11 2.14-.6.23.12 76 43.71-.12.47-7.95 24.94zm-74.37-45.12l74 43.11 7.37-23.2-74.73-43-.83.24z" fill="#15282f"/><path d="M50.41 230.92l75.21 43.82 7.83-24.58L58 206.81z" fill="#f9550f"/><path d="M126.09 275.81l-.71-.36-75.32-43.94-.48-.35.12-.6 7.71-24.34.59-.22.36.12 75.91 43.7-.11.48zm-74.73-45.25l73.9 43.11 7.36-23.16-74.14-42.63z" fill="#15282f"/><path d="M57.88 235.31L88 224l13.17 7.6-30.71 10.96z" fill="#fff"/><path d="M70.34 243.39l-14.12-8.19L88 223.32l14.83 8.55zm-10.68-8l10.92 6.3 28.82-10.3-11.5-6.65z" fill="#15282f"/><path d="M82.32 249.33l30-11.17 13.17 7.49-30.71 10.92z" fill="#fff"/><path d="M94.66 257.4l-14.12-8.19 31.79-11.88 14.83 8.55zM84 249.45l10.91 6.29 28.83-10.33-11.51-6.65z" fill="#15282f"/><path d="M106.64 263.34l25.74-9.62L128 267.5l-8.9 3.2z" fill="#fff"/><path d="M119.09 271.53L105 263.34l28.58-10.69-5 15.56zm-10.79-7.95l10.91 6.29 8.18-3 3.8-12z" fill="#15282f"/><path d="M56.11 212.75L63.7 210l13 7.6-24.91 8.79z" fill="#fff"/><path d="M50.65 227.59l4.86-15.43 8.19-3.09 14.83 8.55zm6.05-14.25l-3.8 11.88 22.1-7.84-11.51-6.65z" fill="#15282f"/><path d="M62.75 195.29L138 239.11l7.83-24.58-75.49-43.46-1.54.47z" fill="#f9550f"/><path d="M138 240l-.35-.24-75.26-43.87-.47-.24.12-.6L68.2 171l.36-.12 1.78-.48.24.12 75.91 43.71-.12.47-7.94 24.94zm-74.37-45l74 43.1 7.37-23.21-74.73-43-.83.23z" fill="#15282f"/><path d="M61.21 195.65l75.2 43.82 7.83-24.58-75.44-43.35z" fill="#f9550f"/><path d="M136.41 240.3l-.36-.12-75.32-43.94-.47-.35.12-.6L68.09 171l.71-.24.35.24 76 43.7-.24.59-7.83 24.82zM62 195.29l73.89 43.11 7.36-23.16-74-42.51z" fill="#15282f"/><path d="M68.68 200l30.13-11.16 13 7.48-30.56 10.97z" fill="#fff"/><path d="M81.13 208.12L67 199.92l31.79-11.87 14.83 8.55zm-10.67-8l10.91 6.3 28.82-10.34-11.5-6.65z" fill="#15282f"/><path d="M93 214.05l30.13-11.16 13.16 7.6-30.72 10.93z" fill="#fff"/><path d="M105.45 222.25l-14.11-8.19 31.79-11.88 14.87 8.55zm-10.67-8l10.91 6.3 28.82-10.33-11.51-6.61z" fill="#15282f"/><path d="M117.43 228.19l25.74-9.62-4.39 13.78-8.9 3.08z" fill="#fff"/><path d="M129.77 236.26l-14.12-8.19 28.59-10.69-5 15.56zm-10.68-7.95L130 234.6l8.19-3 3.79-12z" fill="#15282f"/><path d="M66.9 177.6l7.47-2.85 13.17 7.6-24.91 8.9z" fill="#fff"/><path d="M61.44 192.44L66.31 177l8.18-3.08 14.83 8.55zm6-14.25l-3.74 11.88 22.06-7.84-11.51-6.65z" fill="#15282f"/><path d="M116.72 247l-41.4-10.09a3.15 3.15 0 01-2.25-3.45l3.08-24.93a2.49 2.49 0 013-2.26l41.72 9.73a3.29 3.29 0 012.37 3.56l-3.44 25.29a2.48 2.48 0 01-3.08 2.15z" fill="#f9550f"/><path d="M117.43 247.78a2.29 2.29 0 01-.83-.12l-41.4-10.09a4 4 0 01-2.84-4.28l3.08-24.93a3.63 3.63 0 011.42-2.5 3.14 3.14 0 012.5-.47l41.75 9.74a3.86 3.86 0 012.85 4.39l-3.45 25.29a3.53 3.53 0 01-1.42 2.38 2.87 2.87 0 01-1.66.59zm-.47-1.54a2 2 0 001.42-.24 2.17 2.17 0 00.83-1.42l3.44-25.3a2.42 2.42 0 00-1.78-2.73l-41.75-9.74a1.64 1.64 0 00-1.31.24 2.23 2.23 0 00-.83 1.43l-3.08 24.93a2.63 2.63 0 001.66 2.74z" fill="#15282f"/><path d="M87.66 216.91l-.59 4.75a2.48 2.48 0 01-3.44 2.34 3.93 3.93 0 01-2.14-1.3 3.58 3.58 0 01-.47-2.5l.59-4.75 1.9.48-.6 4.51a2.32 2.32 0 00.12 1.31 1.58 1.58 0 00.83.59 1.25 1.25 0 001-.12 2.22 2.22 0 00.48-1.19l.59-4.51zM94.9 226.65l-2.5-.6-1.89-6.05c0 .84-.12 1.55-.12 2l-.48 3.57-1.66-.36 1-7.84 2.49.6 1.9 6.05c0-.83.12-1.42.12-1.9l.47-3.56 1.78.36zM103.2 224.39a3.26 3.26 0 01-1.42 2.73 3.18 3.18 0 01-3 .36l-2.37-.6 1-7.84 2.49.6a4.49 4.49 0 012.61 1.54 5.14 5.14 0 01.69 3.21zm-2.14-.36a2.41 2.41 0 00-.23-1.66 1.91 1.91 0 00-1.07-.83l-.59-.12-.6 4.39.48.12a1.86 1.86 0 001.42-.23 2.36 2.36 0 00.59-1.7zM108.18 229.85l-4.27-1.07 1.07-7.84 4.27 1.07-.24 1.67-2.37-.6-.12 1.19 2.13.47-.23 1.67-2.14-.48-.24 1.43 2.38.59zM111.86 227.71l-.36 2.85-2-.47 1.07-7.84 2.37.59c2 .48 2.85 1.43 2.61 3a1.9 1.9 0 01-1.55 1.76l1.66 3.91-2.26-.51-1.19-3.21zm.11-1.54l.36.12c.71.12 1.07-.12 1.19-.71s-.24-1-1-1.07l-.36-.12zM81.13 226.64c-.23 0-.35 0-.47.12a1 1 0 00-.24.72c-.12.71.12 1.06.6 1.18h.71l-.12.83c-.24.12-.59 0-1 0a1.7 1.7 0 01-1.07-.71 2.62 2.62 0 01-.23-1.42 1.31 1.31 0 01.35-1 1.22 1.22 0 01.59-.48 1 1 0 01.83 0 2.31 2.31 0 011 .48l-.35.71c-.12-.12-.24-.12-.36-.24s-.12-.07-.24-.19zM85.4 228.78c-.11.6-.23.95-.59 1.19a1.07 1.07 0 01-1.18.12 1.75 1.75 0 01-1.07-.71 1.84 1.84 0 01-.24-1.43 1.67 1.67 0 01.59-1.19 1.41 1.41 0 011.19-.24 1.75 1.75 0 011.07.72 2.29 2.29 0 01.23 1.54zm-2.13-.59c-.12.71.12 1.07.47 1.19s.36 0 .48-.12a1 1 0 00.24-.72 1.76 1.76 0 00-.12-.83c-.12-.23-.24-.35-.48-.35s-.47.23-.59.83zM88.84 231.4l-1.06-.24-.78-2.73c0 .35 0 .71-.12.83l-.24 1.54-.71-.24.47-3.44 1.07.24.83 2.73a1.72 1.72 0 01.12-.83l.24-1.55.71.24zM91.69 230.92c0 .24-.12.36-.24.59a.6.6 0 01-.47.24h-.71c-.24 0-.36-.12-.48-.12s-.23-.12-.47-.23l.12-.84c.12.12.35.24.47.36s.36.12.48.24h.23a.12.12 0 00.12-.12v-.12a.12.12 0 00-.12-.12.92.92 0 01-.35-.35 1.66 1.66 0 01-.48-.36c-.12-.12-.12-.24-.23-.36v-.47a1 1 0 01.35-.72 1.4 1.4 0 011 0 2.37 2.37 0 011 .48l-.36.71a1 1 0 00-.71-.35h-.34l-.11.11c0 .12 0 .12.11.24l.48.48c.24.24.47.35.47.59.24-.24.36-.12.24.12zM93.47 232.46l-.83-.23.36-2.74-.83-.23.11-.72 2.38.6-.12.71-.83-.24zM95.72 231.75l-.11 1.31-.83-.24.47-3.44 1.07.23c.83.24 1.3.6 1.18 1.31a.86.86 0 01-.71.83l.71 1.78-1-.24-.47-1.42zm.12-.71H96c.36.12.48 0 .48-.36s-.12-.35-.36-.47H96zM100.94 230.68l-.23 2.14a1.07 1.07 0 01-.48 1c-.23.24-.59.24-1.07.12a1.83 1.83 0 01-.94-.6 1.72 1.72 0 01-.24-1.06l.24-2.14.83.24-.24 2v.59c.12.12.24.24.35.24s.36 0 .36-.12.12-.24.24-.48l.24-2zM103 231.87c-.24 0-.36 0-.47.12a1 1 0 00-.24.71c-.12.71.12 1.07.59 1.19h1l-.12.83c-.24.12-.59 0-1 0a1.78 1.78 0 01-1.07-.71 2.66 2.66 0 01-.23-1.43 1.39 1.39 0 01.35-1 1.24 1.24 0 01.6-.47 1 1 0 01.83 0 2.57 2.57 0 011 .47l-.36.72c-.12-.12-.24-.12-.36-.24s-.44-.19-.52-.19z" fill="#15282f"/><path d="M105.45 235.31l-.83-.23.36-2.73-.83-.24.11-.71 2.5.59-.12.71-.83-.24zM106.76 235.67l.47-3.44.83.23-.47 3.45zM111.5 235a1.67 1.67 0 01-.59 1.19 1.08 1.08 0 01-1.19.11 1.7 1.7 0 01-1.07-.71 1.85 1.85 0 01-.23-1.42c.12-.6.23-.95.59-1.19a1.37 1.37 0 011.19-.24 1.73 1.73 0 011.06.71 2.26 2.26 0 01.24 1.55zm-2.25-.48c-.12.72.12 1.07.47 1.19s.36 0 .48-.12a1 1 0 00.23-.71 1.72 1.72 0 00-.12-.83c-.11-.24-.23-.36-.47-.36s-.47.08-.59.79zM114.94 237.57l-1.19-.24-.83-2.73a2.48 2.48 0 01-.11 1l-.24 1.55-.83-.24.47-3.45 1.19.24.83 2.73a1.76 1.76 0 01.12-.83l.23-1.54.84.23zM80.9 211c-.12.59-.6 1.07-1.19.83a1.1 1.1 0 01-.83-1.31c.12-.59.59-1.06 1.19-.83a1.21 1.21 0 01.83 1.31zM119.92 220.11c-.12.6-.59 1.07-1.18.83a1.33 1.33 0 01-.95-1.42c.12-.59.59-1.07 1.18-.83a1.22 1.22 0 01.95 1.42zM78.05 233.41a1 1 0 01-1.19.83 1.09 1.09 0 01-.83-1.3 1 1 0 011.19-.83 1.19 1.19 0 01.83 1.3zM116.84 242.79c-.12.6-.59 1.07-1.19.84a1.35 1.35 0 01-1-1.43c.12-.59.6-1.07 1.19-.83a1.26 1.26 0 011 1.42z" fill="#15282f"/><path d="M88.13 166.08l-16.6-3.21-6.41.83v5.82a2.54 2.54 0 001.43 1.9l8.89 5.11a6.46 6.46 0 005.7.24l6-3.57a1.57 1.57 0 00.95-1.42z" fill="#f9550f"/><path d="M78.64 178.19a6.81 6.81 0 01-3.55-.95l-8.9-5.11a3.08 3.08 0 01-1.78-2.49v-6.53l.71-.12 6.53-.83h.11L89 165.49V172a2.33 2.33 0 01-1.3 2l-6 3.56a8.4 8.4 0 01-3.06.63zM65.83 164.3v5.34c0 .36.36.83 1.07 1.19l8.9 5.1a5.67 5.67 0 005 .24l6-3.56a1.11 1.11 0 00.59-.83v-5.23l-16-3.08z" fill="#15282f"/><path d="M78.17 164.18v13.3a4.45 4.45 0 002.85-.59l6-3.57a1.58 1.58 0 001-1.42v-5.82z" fill="#15282f"/><path d="M78.64 178.19h-1.18v-15l11.39 2.26V172a2.34 2.34 0 01-1.31 2l-6.05 3.56a6.84 6.84 0 01-2.85.63zM79 165v11.64a3.92 3.92 0 001.78-.48l6-3.56a1.11 1.11 0 00.59-.83v-5.23z" fill="#15282f"/><path d="M87.18 167.5l-6 3.57a6.46 6.46 0 01-5.7-.24l-8.89-5.11c-1.67-.95-1.9-2.49-.36-3.32l6-3.57a6.44 6.44 0 015.69.24l8.9 5.11c1.67.95 1.79 2.37.36 3.32z" fill="#fff"/><path d="M78.64 172.25a6.81 6.81 0 01-3.55-.95l-8.9-5.1a3.11 3.11 0 01-1.78-2.5 2.33 2.33 0 011.3-2l6.05-3.56a7.46 7.46 0 016.53.24l8.89 5.11A3.08 3.08 0 0189 166a2.33 2.33 0 01-1.3 2l-6 3.56a6.38 6.38 0 01-3.06.69zm-4-13.3a4 4 0 00-2.13.48l-6 3.56a1.12 1.12 0 00-.6.83c0 .36.36.83 1.07 1.19l8.9 5.11a5.67 5.67 0 005 .23l6-3.56a1.09 1.09 0 00.59-.83c0-.36-.35-.83-1.07-1.19l-8.89-5.1a5.91 5.91 0 00-2.9-.67z" fill="#15282f"/><path d="M87.19 155.75v-.24c-.12-3.92-2.85-8.67-6.29-10.57a1.71 1.71 0 00-.48-.24 14.45 14.45 0 00-1.54-.59 11.75 11.75 0 00-9.61 1.78c-.23.24-.35.59-.11.83l11.5 18.88a.74.74 0 001 .24 13.61 13.61 0 005.34-7.48c.07-.71.19-2.49.19-2.61z" fill="#f9550f"/><path d="M81.14 166.67h-.24a2.55 2.55 0 01-1-.59L68.44 147.2a1.33 1.33 0 01.36-1.79 12.7 12.7 0 0110.2-1.78c.48.12 1.66.6 1.66.6a1.79 1.79 0 00.48.23 14.68 14.68 0 016.64 11.17v.24a9.43 9.43 0 01-.48 2.85 13.81 13.81 0 01-5.57 7.71c0 .12-.36.24-.59.24zm-11.39-20.19l11.39 18.77a13.58 13.58 0 005-7c.24-.59.35-2 .47-2.37a13.12 13.12 0 00-5.93-10.1 1.69 1.69 0 00-.47-.24c-.24-.12-1.07-.35-1.43-.47a10.48 10.48 0 00-9.03 1.41z" fill="#15282f"/><path d="M80 156.46l-3.32 2.14v.59l3.91 6.53a.74.74 0 00.95.24 13.61 13.61 0 005.34-7.48 20.33 20.33 0 00.47-2.61v-.24a5.75 5.75 0 00-.59-2.26 28.48 28.48 0 01-3.91 3.92z" fill="#15282f"/><path d="M81.14 166.67h-.24a2.55 2.55 0 01-1-.59l-4-6.65v-1.19l3.91-2.49 2.85.83a25.7 25.7 0 003.46-3.58l.83-1.19.47 1.42c.12.24.12.48.24.6a3.6 3.6 0 01.35 1.78v.24a12.1 12.1 0 01-.47 2.85 13.86 13.86 0 01-5.54 7.73 2.23 2.23 0 01-.86.24zm-3.8-7.67l3.8 6.18a13.64 13.64 0 005-7c.23-.59.35-2.14.47-2.49v-.12a1.25 1.25 0 00-.12-.71 38.54 38.54 0 01-3.2 3l-.36.23-2.84-.83z" fill="#15282f"/><path d="M80.9 144.94a1.71 1.71 0 00-.48-.24 14.45 14.45 0 00-1.54-.59 11.57 11.57 0 00-9.37 1.66.79.79 0 00-.24 1.07l3.33 5.46.11.12 2.85 1.07c.12 0 .24 0 .24-.12l1.54-2.14 1.07-1.9.12-.12a42.39 42.39 0 014.27-2.61.22.22 0 000-.35c-.6-.36-1.19-.84-1.9-1.31z" fill="#fff"/><path d="M75.56 154.32h-.36l-2.84-1.07a1.65 1.65 0 01-.48-.35l-3.32-5.47a1.54 1.54 0 01.44-2.13 12.39 12.39 0 0110-1.67c.47.12 1.66.6 1.66.6a1.79 1.79 0 00.48.23 11.31 11.31 0 012 1.55.73.73 0 01.24.83 1 1 0 01-.48.71c-1.89 1.07-3.67 2.26-4.15 2.5l-1.06 1.78L76 154c.15.2-.2.32-.44.32zm-2.49-2.49l2.37.83 1.31-1.78 1.18-2 .24-.12c.36-.24 1.9-1.19 3.68-2.26a9.81 9.81 0 00-1.31-.95 1.58 1.58 0 00-.47-.23c-.24-.12-1.07-.36-1.43-.48a11.44 11.44 0 00-8.89 1.55v.11z" fill="#15282f"/><path d="M83.27 160.85c0 2.73-1 4.63-2.61 5.47-1.42.83-5.22.11-7.47-1.07a13.27 13.27 0 01-6.88-12.12c0-2.13 1-5.46 2-6.53 1.54-1.54 3.91-1.66 6.64 0 4.64 2.61 8.32 9.03 8.32 14.25z" fill="#f9550f"/><path d="M78.88 167.38a14.16 14.16 0 01-5.88-1.54 13.92 13.92 0 01-7.24-12.71c0-2.25 1-5.81 2.14-7 1.78-1.78 4.63-1.78 7.47-.12 4.75 2.73 8.66 9.5 8.66 15 0 2.85-1.07 5.11-3 6.06a5.34 5.34 0 01-2.15.31zm-7.59-21.25a3.79 3.79 0 00-2.49 1c-.83.83-1.78 4-1.78 5.94a12.23 12.23 0 006.52 11.4c2.14 1.3 5.7 1.66 6.76 1.07 1.43-.72 2.14-2.38 2.14-4.75 0-5-3.56-11.17-8-13.66a6.56 6.56 0 00-3.15-1z" fill="#15282f"/><path d="M79.12 161.21c0 4-2.85 5.7-6.41 3.68a14.07 14.07 0 01-6.4-11c0-4 2.85-5.7 6.4-3.69a14.24 14.24 0 016.41 11.01z" fill="#fff"/><path d="M75.56 166.55a6.94 6.94 0 01-3.2-1A15 15 0 0165.6 154c0-2.26.83-3.92 2.25-4.76s3.32-.71 5.22.48a15 15 0 016.76 11.64c0 2.26-.83 3.92-2.25 4.75a5.59 5.59 0 01-2.02.44zm-5.69-16.5a2.38 2.38 0 00-1.31.35 3.85 3.85 0 00-1.56 3.45c0 3.8 2.73 8.43 6 10.45a4.11 4.11 0 003.8.47 3.85 3.85 0 001.54-3.44c0-3.8-2.73-8.43-6-10.45a5.55 5.55 0 00-2.47-.83z" fill="#15282f"/><path d="M74.49 159.29l-2.79 1.57.7 1.24 2.79-1.57zM74.73 155.59l-4.61 2.69.72 1.23 4.61-2.69zM72.33 153.57l-2.19 1.2.68 1.25 2.19-1.2z" fill="#15282f"/><path d="M78.76 178.07v-1.18a5.77 5.77 0 002.14-.48l4.62-2.73.6.95-4.63 2.73a7.42 7.42 0 01-2.73.71zM154.44 204.32l-16.61-3.21-6.4.83v5.82a2.54 2.54 0 001.42 1.9l8.9 5.11a6.44 6.44 0 005.69.24l6.05-3.57a1.58 1.58 0 00.95-1.42v-5.7z" fill="#f9550f"/><path d="M145 216.43a7 7 0 01-3.56-1l-8.89-5.1a3.11 3.11 0 01-1.78-2.5v-6.53l.71-.12 6.52-.83h.12l17.2 3.32v6.54a2.3 2.3 0 01-1.3 2l-6.05 3.57a7.9 7.9 0 01-2.97.65zm-12.81-13.89v5.34c0 .36.36.83 1.07 1.19l8.89 5.11a5.69 5.69 0 005 .23l6-3.56a1.1 1.1 0 00.6-.83v-5.23l-16-3.08z" fill="#15282f"/><path d="M144.6 202.42v13.3a4.43 4.43 0 002.84-.59l6.05-3.57a1.58 1.58 0 00.95-1.42v-5.82z" fill="#15282f"/><path d="M145 216.43h-1.19v-14.84l11.39 2.25v6.54a2.3 2.3 0 01-1.3 2l-6 3.57a9.73 9.73 0 01-2.9.48zm.36-13.18v11.64a3.92 3.92 0 001.78-.48l6-3.56a1.1 1.1 0 00.6-.83v-5.23z" fill="#15282f"/><path d="M153.49 205.62l-6.05 3.57a6.44 6.44 0 01-5.69-.24l-8.9-5.11c-1.66-1-1.9-2.49-.35-3.32l6.05-3.57a6.44 6.44 0 015.69.24l8.9 5.11c1.66 1.07 1.86 2.49.35 3.32z" fill="#fff"/><path d="M145 210.49a6.87 6.87 0 01-3.56-1l-8.89-5.1a3.11 3.11 0 01-1.78-2.5 2.33 2.33 0 011.3-2l6-3.56a7.46 7.46 0 016.53.24l8.89 5.11a3.08 3.08 0 011.78 2.49 2.33 2.33 0 01-1.3 2l-6.05 3.56a6 6 0 01-2.92.76zm-4-13.42a4.06 4.06 0 00-2.14.48l-6.05 3.56a1.14 1.14 0 00-.59.83c0 .36.36.83 1.07 1.19l8.89 5.11a5.69 5.69 0 005 .23l6-3.56a1.1 1.1 0 00.6-.83c0-.36-.36-.83-1.07-1.19l-8.9-5.1a5.25 5.25 0 00-2.89-.72z" fill="#15282f"/><path d="M153.49 194v-.24c-.12-3.92-2.84-8.67-6.28-10.57a1.71 1.71 0 00-.48-.24 15.4 15.4 0 00-1.54-.59 11.74 11.74 0 00-9.61 1.78.59.59 0 00-.12.83L147 203.84a.74.74 0 00.95.24 13.66 13.66 0 005.34-7.48c.08-.71.2-2.6.2-2.6z" fill="#f9550f"/><path d="M147.44 204.91h-.23a2.47 2.47 0 01-1-.59l-11.51-18.88a1.32 1.32 0 01.36-1.79 12.7 12.7 0 0110.2-1.78 13.19 13.19 0 011.66.6c.12 0 .35.23.59.23 3.56 2 6.41 6.89 6.64 11.17v.35a9.28 9.28 0 01-.47 2.85 13.82 13.82 0 01-5.58 7.72c-.1 0-.42.12-.66.12zm-11.38-20.19l11.38 18.77a13.61 13.61 0 005-7c.23-.59.35-2 .47-2.38V194a12.9 12.9 0 00-5.91-10 1.71 1.71 0 00-.48-.24 9.36 9.36 0 00-1.42-.47 10.58 10.58 0 00-9.04 1.43z" fill="#15282f"/><path d="M146.26 194.7l-3.33 2.14v.59l3.92 6.53a.74.74 0 001 .24 13.65 13.65 0 005.33-7.48 20.94 20.94 0 00.48-2.62v-.23a5.93 5.93 0 00-.59-2.26 29 29 0 01-3.92 3.92z" fill="#15282f"/><path d="M147.44 204.91h-.23a2.47 2.47 0 01-1-.59l-4-6.65v-1.19l3.92-2.49 2.84.83a25.14 25.14 0 003.44-3.56l.83-1.19.48 1.42c.12.24.12.48.24.6a3.52 3.52 0 01.35 1.66v.35a12.73 12.73 0 01-.47 2.86 13.89 13.89 0 01-5.58 7.71 2.13 2.13 0 01-.82.24zm-3.79-7.72l3.79 6.18a13.52 13.52 0 005-7c.24-.59.36-2.14.48-2.49v-.12a1.25 1.25 0 00-.12-.71 38.54 38.54 0 01-3.2 3l-.36.23-2.85-.83z" fill="#15282f"/><path d="M147.21 183.18a1.71 1.71 0 00-.48-.24 15.4 15.4 0 00-1.54-.59 11.56 11.56 0 00-9.37 1.66.77.77 0 00-.24 1.07l3.32 5.46.12.12 2.85 1.07c.12 0 .23 0 .23-.12l1.55-2.14 1.06-1.9.12-.12a45.12 45.12 0 014.27-2.61.22.22 0 000-.35c-.59-.36-1.18-.95-1.89-1.31z" fill="#fff"/><path d="M141.87 192.56h-.36l-2.85-1.07a1.73 1.73 0 01-.47-.35l-3.32-5.47a1.53 1.53 0 01.47-2.13 12.43 12.43 0 0110-1.67 13.19 13.19 0 011.66.6c.12 0 .35.23.59.23a8.44 8.44 0 012 1.55.74.74 0 01.24.83 1 1 0 01-.48.71c-2 1.07-3.68 2.26-4.15 2.5l-1.19 1.9-1.54 2c-.01.13-.25.37-.6.37zm-2.49-2.49l2.37.83 1.3-1.78 1.19-2 .24-.12a55.8 55.8 0 013.67-2.26 9.74 9.74 0 00-1.3-.95 1.58 1.58 0 00-.47-.23 10 10 0 00-1.43-.48 11.53 11.53 0 00-8.9 1.54v.12z" fill="#15282f"/><path d="M149.58 199.09c0 2.73-1 4.63-2.61 5.46-1.43.84-5.22.12-7.48-1.06a13.29 13.29 0 01-6.88-12.12c0-2.13.95-5.46 2-6.53 1.54-1.54 3.91-1.66 6.64 0 4.65 2.61 8.33 9.03 8.33 14.25z" fill="#f9550f"/><path d="M145.19 205.62a14.16 14.16 0 01-5.93-1.54 13.91 13.91 0 01-7.26-12.71c0-2.25.95-5.82 2.14-7 1.78-1.78 4.62-1.78 7.47-.12 4.74 2.73 8.66 9.5 8.66 15 0 2.85-1.07 5.11-3 6.06a5.25 5.25 0 01-2.08.31zm-7.48-21.25a3.82 3.82 0 00-2.49.95c-.83.83-1.77 4-1.77 5.94a12.2 12.2 0 006.55 11.39c2.13 1.31 5.69 1.67 6.76 1.07 1.42-.71 2.14-2.37 2.14-4.75 0-5-3.56-11.16-8-13.65a7.4 7.4 0 00-3.19-.95z" fill="#15282f"/><path d="M145.43 199.45c0 4-2.85 5.7-6.41 3.68a14.06 14.06 0 01-6.41-11c0-4 2.85-5.71 6.41-3.69a14.06 14.06 0 016.41 11.01z" fill="#fff"/><path d="M141.87 204.79a7 7 0 01-3.21-.95 15 15 0 01-6.76-11.63c0-2.26.83-3.92 2.26-4.75s3.32-.72 5.22.47a15 15 0 016.76 11.64c0 2.25-.83 3.92-2.26 4.75a5.49 5.49 0 01-2.01.47zm-5.7-16.5a2.37 2.37 0 00-1.3.35 3.85 3.85 0 00-1.54 3.45 13.59 13.59 0 006 10.45 4.09 4.09 0 003.79.47 3.83 3.83 0 001.54-3.44 13.59 13.59 0 00-6.05-10.45 4.13 4.13 0 00-2.44-.83z" fill="#15282f"/><path d="M140.81 197.57l-2.81 1.57.7 1.24 2.79-1.57zM141.06 193.83l-4.61 2.69.71 1.24 4.62-2.69zM138.65 191.82l-2.19 1.18.69 1.25 2.18-1.19z" fill="#15282f"/><path d="M145.07 216.19V215a5.81 5.81 0 002.14-.48l4.62-2.73.6.95-4.63 2.73a5.51 5.51 0 01-2.73.72z" fill="#f9550f"/><path d="M186.7 235.55l-1.42.83a.52.52 0 01-.59 0l-1.31-.71c-.12-.12-.23-.24 0-.36l1.42-.83a.54.54 0 01.6 0l1.3.72a.22.22 0 010 .35zM190 237.45l-1.42.83a.52.52 0 01-.59 0l-1.31-.71c-.11-.12-.23-.24 0-.36l1.43-.83a.52.52 0 01.59 0l1.3.72a.22.22 0 010 .35zM186.58 239.47l-1.42.83a.52.52 0 01-.59 0l-1.31-.71c-.12-.12-.23-.24 0-.36l1.43-.83a.52.52 0 01.59 0l1.3.71a.23.23 0 010 .36zM193.23 239.35l-1.43.83a.52.52 0 01-.59 0l-1.3-.71c-.12-.12-.24-.24 0-.36l1.42-.83a.52.52 0 01.59 0l1.31.71q.35.18 0 .36zM189.79 241.25l-1.43.83a.52.52 0 01-.59 0l-1.3-.71c-.12-.12-.24-.24 0-.36l1.42-.83a.52.52 0 01.59 0l1.31.72c.12.23.21.35 0 .35zM196.79 241.37l-1.43.83a.52.52 0 01-.59 0l-1.31-.71c-.11-.12-.23-.24 0-.36l1.43-.83a.52.52 0 01.59 0l1.31.71a.24.24 0 010 .36zM193.35 243.27l-1.43.83a.52.52 0 01-.59 0l-1.31-.71c-.11-.12-.23-.24 0-.36l1.43-.83a.52.52 0 01.59 0l1.31.71c.11.09.11.36 0 .36zM200 243.27l-1.42.83a.54.54 0 01-.6 0l-1.3-.71c-.12-.12-.24-.24 0-.36l1.42-.83a.52.52 0 01.59 0l1.31.71c.11.09.23.24 0 .36zM196.55 245.17l-1.42.83a.54.54 0 01-.6 0l-1.3-.71c-.12-.12-.24-.24 0-.36l1.42-.83a.52.52 0 01.59 0l1.31.71c.12.12.12.36 0 .36zM203.31 245.05l-1.42.83a.54.54 0 01-.6 0l-1.3-.71c-.12-.12-.24-.24 0-.36l1.42-.83a.54.54 0 01.6 0l1.3.72c.12.23.12.35 0 .35zM199.87 247.07l-1.42.83a.54.54 0 01-.6 0l-1.3-.71c-.12-.12-.24-.24 0-.36L198 246a.54.54 0 01.6 0l1.3.71c.1.12.1.36-.03.36zM176.74 229.61l-1.42.83a.54.54 0 01-.6 0l-1.3-.71c-.12-.12-.24-.24 0-.35l1.42-.84a.56.56 0 01.59 0l1.31.72c.12.12.12.35 0 .35zM180.18 231.63l-1.42.83a.54.54 0 01-.6 0l-1.3-.71c-.12-.12-.24-.24 0-.36l1.42-.83a.52.52 0 01.59 0l1.31.72a.22.22 0 010 .35zM176.74 233.65l-1.42.83a.54.54 0 01-.6 0l-1.3-.71c-.12-.12-.24-.24 0-.36l1.42-.83a.52.52 0 01.59 0l1.31.71a.23.23 0 010 .36zM183.5 233.53l-1.42.83a.52.52 0 01-.59 0l-1.31-.71c-.12-.12-.24-.24 0-.36l1.42-.83a.54.54 0 01.6 0l1.3.72a.22.22 0 010 .35zM180.06 235.55l-1.42.83a.54.54 0 01-.6 0l-1.3-.71c-.12-.12-.24-.24 0-.36l1.42-.83a.54.54 0 01.6 0l1.3.72a.22.22 0 010 .35zM183.26 237.45l-1.42.83a.52.52 0 01-.59 0l-1.31-.71c-.12-.12-.24-.24 0-.36l1.43-.83a.52.52 0 01.59 0l1.3.72a.22.22 0 010 .35zM206.75 247.07l-1.42.83a.54.54 0 01-.6 0l-1.3-.71c-.12-.12-.24-.24 0-.36l1.42-.83a.52.52 0 01.59 0l1.31.71c.12.12.12.36 0 .36zM203.31 249.09l-1.42.83a.54.54 0 01-.6 0l-1.3-.71c-.12-.12-.24-.24 0-.36l1.42-.83a.54.54 0 01.6 0l1.3.71a.22.22 0 010 .36zM210.19 245.17l-1.42.83a.54.54 0 01-.6 0l-1.3-.71c-.12-.12-.24-.24 0-.36l1.42-.83a.52.52 0 01.59 0l1.31.71a.22.22 0 010 .36zM213.63 243.15l-1.42.83a.54.54 0 01-.6 0l-1.3-.71c-.12-.12-.24-.24 0-.36l1.42-.83a.52.52 0 01.59 0l1.31.71c.12.12.24.21 0 .36zM217.07 241.13l-1.42.83a.54.54 0 01-.6 0l-1.3-.71c-.12-.12-.24-.24 0-.35l1.42-.84a.56.56 0 01.59 0l1.31.72c.12.12.24.22 0 .35zM220.51 239.11l-1.42.84a.58.58 0 01-.6 0l-1.3-.72c-.12-.12-.24-.24 0-.35l1.42-.84a.56.56 0 01.59 0l1.31.72c.24.12.24.24 0 .35zM224.07 237.1l-1.43.83a.56.56 0 01-.59 0l-1.3-.72c-.12-.11-.24-.23 0-.35l1.42-.83a.52.52 0 01.59 0l1.31.71c.12.12.12.36 0 .36zM227.51 235.2l-1.43.83a.52.52 0 01-.59 0l-1.3-.72c-.12-.11-.24-.23 0-.35l1.42-.83a.52.52 0 01.59 0l1.31.71a.23.23 0 010 .36zM231 233.18l-1.43.83a.52.52 0 01-.59 0l-1.3-.72c-.12-.11-.24-.23 0-.35l1.42-.83a.52.52 0 01.59 0l1.31.71a.23.23 0 010 .36zM234.39 231.16L233 232a.52.52 0 01-.59 0l-1.3-.71c-.12-.12-.24-.24 0-.36l1.42-.83a.52.52 0 01.59 0l1.31.71a.23.23 0 01-.04.35zM237.83 229.14l-1.43.83a.52.52 0 01-.59 0l-1.3-.71c-.12-.12-.24-.24 0-.36l1.42-.83a.52.52 0 01.59 0l1.31.71a.23.23 0 010 .36zM210.07 249l-1.42.83a.54.54 0 01-.6 0l-1.3-.71c-.12-.12-.24-.24 0-.36l1.42-.83a.54.54 0 01.6 0l1.3.71c.12.09.12.36 0 .36zM213.51 247l-1.42.83a.54.54 0 01-.6 0l-1.3-.71c-.12-.12-.24-.24 0-.36l1.42-.83a.54.54 0 01.6 0l1.3.72c.12.18.12.35 0 .35zM217 245.05l-1.42.83a.54.54 0 01-.6 0l-1.3-.71c-.12-.12-.24-.24 0-.36l1.42-.83a.54.54 0 01.6 0l1.3.72a.22.22 0 010 .35zM220.39 243l-1.42.83a.54.54 0 01-.6 0l-1.3-.71c-.12-.12-.24-.24 0-.36l1.42-.83a.58.58 0 01.6 0l1.3.72a.22.22 0 010 .35zM223.83 241l-1.42.84a.58.58 0 01-.6 0l-1.3-.72c-.12-.12-.24-.23 0-.35l1.42-.83a.52.52 0 01.59 0l1.31.71a.22.22 0 010 .35zM227.27 239l-1.42.84a.54.54 0 01-.6 0l-1.3-.72c-.12-.12-.24-.23 0-.35l1.42-.83a.54.54 0 01.6 0l1.3.71c.12.11.12.35 0 .35zM230.71 237l-1.42.83a.54.54 0 01-.6 0l-1.3-.71c-.12-.12-.24-.24 0-.36l1.42-.83a.52.52 0 01.59 0l1.31.71q.18.36 0 .36zM234.15 235.08l-1.42.83a.54.54 0 01-.6 0l-1.3-.71c-.12-.12-.24-.24 0-.36l1.42-.83a.54.54 0 01.6 0l1.3.71c.12.12.24.28 0 .36zM237.59 233.06l-1.42.83a.54.54 0 01-.6 0l-1.3-.71c-.12-.12-.24-.24 0-.36l1.42-.83a.52.52 0 01.59 0l1.31.71c.12.12.24.24 0 .36zM234.39 223.55h-1.78l-24.79-14.25a5.66 5.66 0 00-5-.23l-24.91 14.37h-.12l-1.9.11a.12.12 0 00-.12.12v1.55a2 2 0 001.19 1.66l25.38 14.61a5.69 5.69 0 005 .24l26.1-15.09c.59-.35.83-.71.83-1.18v-1.19z" fill="#15282f"/><path d="M205.45 243.15a6.21 6.21 0 01-3.21-.83l-25.38-14.61a2.58 2.58 0 01-1.54-2v-2a.81.81 0 01.83-.84l1.66-.11 24.79-14.37a6 6 0 015.69.23l24.56 14.25H235l.24 1.55v1.18a2.36 2.36 0 01-1.19 1.79l-26.09 15.08a4.19 4.19 0 01-2.51.68zm-28.71-18.29v.48c0 .35.36.71.83 1.07L203 241a4.91 4.91 0 004.27.24l26.1-15.08a.78.78 0 00.47-.6v-1.3h-1.18l-.24-.12-24.84-14.24a5 5 0 00-4.27-.24l-25 14.49H178l-1.3.12z" fill="#15282f"/><path d="M233.68 224.86l-26.1 15.08a5.65 5.65 0 01-5-.23l-25.37-14.61c-1.42-.83-1.66-2.14-.35-2.85L203 207.17a5.71 5.71 0 015 .23l25.32 14.6c1.54.84 1.68 2.15.36 2.86z" fill="#fff"/><path d="M205.45 241.25a6.21 6.21 0 01-3.21-.83l-25.38-14.61a2.6 2.6 0 01-1.54-2.25 2.4 2.4 0 011.18-1.9l26.1-15.09a6.06 6.06 0 015.69.24l25.39 14.61a2.62 2.62 0 011.54 2.26 2.41 2.41 0 01-1.19 1.89l-26.09 15.09a5.26 5.26 0 01-2.49.59zm-.36-33.84a3.92 3.92 0 00-1.78.35l-26.1 15.08a.81.81 0 00-.47.6c0 .24.24.59.83.95L203 239a4.91 4.91 0 004.27.24l26.1-15.08a.79.79 0 00.47-.59c0-.24-.23-.6-.83-.95L207.58 208a5.45 5.45 0 00-2.49-.59z" fill="#15282f"/><path d="M205.92 240.66h-1.19v1.66h1.19zM178.88 225.93h-1.19v1.66h1.19zM182.55 227.83h-1.18v1.66h1.18zM233 225.81h-1.18v1.67H233zM223.36 219.16l-.12-.36-11-41.32h-13.91l-11 41.68v.12c-1.07 3.44.71 7 5.1 9.62 7.11 4.28 18.86 4.28 26 0 4.33-2.61 6-6.29 4.93-9.74z" fill="#f9550f"/><path d="M205.33 232.94a26.1 26.1 0 01-13.41-3.33c-4.62-2.73-6.64-6.53-5.45-10.45V219l11.27-42.27h15.18L224.07 219c1.19 3.92-.83 7.84-5.46 10.57-3.56 2.3-8.42 3.37-13.28 3.37zm-6.41-54.75L188 219.52c-.95 3.21.83 6.41 4.74 8.79 7 4.15 18.27 4.15 25.27 0 3.91-2.38 5.69-5.7 4.74-8.91l-.11-.36-10.8-40.85z" fill="#15282f"/><path d="M205.33 181.63c3.86 0 7-1.86 7-4.15s-3.14-4.16-7-4.16-7 1.86-7 4.16 3.13 4.15 7 4.15z" fill="#fff"/><path d="M205.33 182.47a11.46 11.46 0 01-5.34-1.31 4.37 4.37 0 01-2.37-3.56A4.07 4.07 0 01200 174a11.27 11.27 0 0110.67 0 4.35 4.35 0 012.33 3.6 4.07 4.07 0 01-2.38 3.56 11.42 11.42 0 01-5.29 1.31zm0-8.43a8.71 8.71 0 00-4.63 1.18 2.53 2.53 0 000 4.75 9.56 9.56 0 009.14 0 2.53 2.53 0 000-4.75 8 8 0 00-4.51-1.22z" fill="#15282f"/><path d="M205.33 179.38c2.42 0 4.39-.91 4.39-2s-2-2-4.39-2-4.39.9-4.39 2 1.96 2 4.39 2z" fill="#f9550f"/><path d="M205.33 180.21a8.17 8.17 0 01-3.44-.71c-1.54-.71-1.78-1.66-1.78-2.14s.24-1.43 1.78-2.14a8.66 8.66 0 016.88 0c1.54.71 1.78 1.66 1.78 2.14s-.24 1.43-1.78 2.14a8.2 8.2 0 01-3.44.71zm0-4.16a7.1 7.1 0 00-2.85.6c-.59.23-.83.59-.83.83s.24.47.83.83a7.87 7.87 0 005.69 0c.6-.24.84-.59.84-.83s-.24-.48-.84-.83a7.52 7.52 0 00-2.84-.6z" fill="#15282f"/><path d="M217.31 196.36l-2.38-8.79c.36 1.78-.47 3.56-2.72 4.87a14.81 14.81 0 01-13.76 0c-2.26-1.31-3.21-3.2-2.73-4.87l-1.66 6.18-.71 2.85c-.6 2.25.47 4.75 3.44 6.53 4.74 2.85 12.57 2.85 17.43 0 2.85-1.78 3.92-4.28 3.09-6.77z" fill="#fff"/><path d="M205.33 206.1a17.2 17.2 0 01-9-2.26c-3.08-1.9-4.51-4.63-3.79-7.36l2.49-9.62h1.42l-.24.95c-.35 1.54.6 3 2.38 4.16a14.1 14.1 0 0013 0c1.9-1.07 2.73-2.62 2.38-4.16l-.24-.95h1.42l.12.6 2.37 8.78c1 2.85-.35 5.7-3.67 7.72-1.97 1.43-5.32 2.14-8.64 2.14zm-9.73-15.32l-1.54 6.06c-.6 2 .47 4.15 3.08 5.7 4.63 2.73 12.1 2.73 16.61 0 2.61-1.55 3.68-3.8 3-5.94l-1.54-5.82a9.47 9.47 0 01-2.49 2.37 15.8 15.8 0 01-14.59 0 6 6 0 01-2.53-2.37z" fill="#15282f"/><path d="M222.17 214.89l-.12-.48v-.12l-2.13-8.07c.47 2.61-.83 5.34-4.15 7.36-5.82 3.44-15.07 3.44-20.88 0-3.32-2-4.74-4.75-4.15-7.36l-2.26 8.55c-.71 3.08.83 6.29 4.87 8.67 6.64 4 17.43 4 24.19 0 3.8-2.26 5.46-5.44 4.63-8.55z" fill="#fff"/><path d="M205.33 227.24a25.16 25.16 0 01-12.46-3.09c-3.67-2.26-5.57-5.34-5.33-8.55h-.12l.23-.95 2.38-9.14h1.42l-.12.83c-.47 2.37.95 4.75 3.91 6.53 5.58 3.32 14.6 3.32 20 0 3-1.78 4.39-4.16 3.92-6.53l-.12-.83h1.42l.12.59 2.61 9.5h-.12c.36 3.21-1.54 6.41-5.34 8.55a23.91 23.91 0 01-12.4 3.09zm-16.13-12.59l-.12.36c-.71 2.85.95 5.81 4.5 8 6.41 3.92 17 3.92 23.37 0 3.56-2.14 5.22-5 4.51-8l-.12-.48-1.19-4.63a10.57 10.57 0 01-4 4.28c-5.93 3.56-15.66 3.56-21.59 0a10.33 10.33 0 01-4-4.16z" fill="#15282f"/><path d="M199.62 184.51l-7.34 33.4 1.39.3 7.34-33.4z" fill="#fff"/><path d="M197.64 193.88L197 197l1.39.31.69-3.13zM193.09 214.53l-.74 3.36 1.39.31.74-3.36z" fill="#f9550f"/><path d="M202.24 175.93c-1.66.72-1.66 2 0 2.74.36.12.83.23 1.19.35l.47-3.56a7.32 7.32 0 00-1.66.47z" fill="#15282f"/><path d="M204.14 180l-.83-.12a4.65 4.65 0 01-1.42-.47c-1.43-.71-1.66-1.54-1.66-2a2.26 2.26 0 011.66-2 4.39 4.39 0 011.9-.47l.94-.12zm-1.54-3.32c-.59.24-.83.59-.83.71s.12.48.83.71a.42.42 0 01.24.12l.23-1.78c-.23.09-.35.09-.47.21zM213 189l-1.39.31 2 8.69 1.39-.32z" fill="#15282f"/><path d="M349.56 172.61l-25.5-14.73a4.07 4.07 0 00-3.79-.47l-.95.59-7.32 4.52v.11c.36.84 3.8 8 4.15 9.39.12.59 1.19 6 2.5 12.47v3.2a12.56 12.56 0 001.66 5.58c1.3 6.77 2.37 12.47 2.49 12.59l3.79 8.91s.12.12.12 0l8.66-5v-.12l-.59-1.78a18.41 18.41 0 01-.36-2.85l11 12.23h.12l8.07-5s.12 0 .12-.11a3.94 3.94 0 001.54-3.57v-26.34a13.41 13.41 0 00-5.71-9.62z" fill="#f9550f"/><path d="M345.29 218.21a1.06 1.06 0 01-.71-.35l-9.13-10.22v.12l.59 1.67c.12.47 0 .95-.47 1.06l-8.9 5.23-.47-.12a1.24 1.24 0 01-.6-.47l-3.79-9.13-2.37-12.47a12.68 12.68 0 01-1.78-5.94v-3c-1.43-7.36-2.38-12-2.49-12.47-.24-.83-2.26-5.34-4-9.14a.92.92 0 01.36-1.19l8.3-5.1c1.31-.72 3-.48 4.63.47l25.34 14.74a13.08 13.08 0 015.93 10.33v26.6a5.07 5.07 0 01-1.9 4.28l-.11.12-8 5zm-12-15.44l12.22 13.54 7.59-4.75a3.23 3.23 0 001.19-2.85v-26.48a11.8 11.8 0 00-5.1-8.91l-25.36-14.72a3.16 3.16 0 00-3-.48l-7.71 4.75a96.3 96.3 0 013.91 8.91c.12.71 1.66 8.19 2.49 12.59v3.44a11 11 0 001.55 5.11l.11.12v.23l2.38 12.47 3.44 8.08 7.35-4.28-.47-1.3a12.57 12.57 0 01-.36-3z" fill="#15282f"/><path d="M349.45 172.61l-23.85-13.77-12 7.48 25.51 13.42 5.33.83 8.31-4.87a10.24 10.24 0 00-3.3-3.09z" fill="#fff"/><path d="M344.7 181.52l-5.93-1L312 166.43l13.64-8.55 24.32 14a10.8 10.8 0 013.56 3.44l.47.71zm-5.22-2.5l4.87.83 7.23-4.27a11.14 11.14 0 00-2.49-2.26l-23.37-13.42-10.32 6.53zM346.6 185.08s-10.32 2.38-10.91 2.73-10.68 8.31-14.12 12.11c.71 3.57 1.19 5.94 1.19 6.06l3.79 8.91s.12.12.12 0l8.66-5v-.12l-.59-1.78a18.41 18.41 0 01-.36-2.85l11 12.23h.12l8.07-5a.11.11 0 00.11-.12 3.92 3.92 0 001.55-3.56v-26.46a13.12 13.12 0 00-.24-2z" fill="#15282f"/><path d="M353.94 183.93l-6.09 3.69.62 1 6.08-3.69zM353.75 207.93l-6.09 3.69.62 1 6.08-3.68zM341.38 177.6l-25.5-14.73c-3.09-1.78-5.46-.36-5.46 3.21v26.72a12 12 0 005.46 9.5l2.84 1.66a2.73 2.73 0 011.07 1.66 14.41 14.41 0 005.58 9.27c.83.59 1.42.12 1.18-.95a26.75 26.75 0 01-.59-4.52c0-.71.47-.95 1.07-.59l14.23 8.17c3.09 1.78 5.46.36 5.46-3.2v-26.7a11.65 11.65 0 00-5.34-9.5z" fill="#f9550f"/><path d="M343.87 218.69a5.28 5.28 0 01-2.85-.83l-14-8.08a17.1 17.1 0 00.59 4 1.76 1.76 0 01-.59 2 1.65 1.65 0 01-1.9-.24 15.16 15.16 0 01-5.93-9.86 2.22 2.22 0 00-.71-1.07l-2.84-1.61a12.87 12.87 0 01-5.93-10.21v-26.71c0-2 .71-3.56 2-4.28a4.92 4.92 0 014.74.36L342 176.88a12.9 12.9 0 015.93 10.22v26.72c0 2-.71 3.56-2 4.27a3.55 3.55 0 01-2.06.6zm-17.2-10.81a2.77 2.77 0 01.95.24l14.23 8.19a3 3 0 003.09.36 3.26 3.26 0 001.18-2.85V187.1a11 11 0 00-5.1-8.79l-25.5-14.72a3 3 0 00-3.08-.36 3.23 3.23 0 00-1.19 2.85v26.72a11.08 11.08 0 005.1 8.79l2.85 1.66a3.9 3.9 0 011.54 2.26 13.91 13.91 0 005.1 8.67 24.35 24.35 0 01-.59-4.64 1.54 1.54 0 01.71-1.42.86.86 0 01.71-.24z" fill="#15282f"/><path d="M336.89 204.23c4.53-2.63 4.52-11.15 0-19s-11.95-12.23-16.49-9.59-4.53 11.15 0 19 11.95 12.21 16.49 9.59z" fill="#f9550f"/><path d="M333.79 205.62a11.5 11.5 0 01-5.46-1.66c-6.52-3.8-11.86-13.06-11.86-20.66 0-3.8 1.3-6.65 3.68-8.08s5.45-1.07 8.77.83c6.53 3.8 11.87 13.07 11.87 20.67 0 3.8-1.31 6.65-3.68 8.07a7.18 7.18 0 01-3.32.83zm-10.32-30.16a5.24 5.24 0 00-2.73.71c-2 1.19-3.08 3.68-3.08 7 0 7.24 5.1 16 11.38 19.71 3 1.66 5.7 2 7.71.83s3.09-3.68 3.09-7c0-7.25-5.1-16-11.39-19.72a11.37 11.37 0 00-4.98-1.53z" fill="#fff"/><path d="M325.13 189.47l-.24-.12a3.3 3.3 0 01-1.42-2.73v-4c0-1.07.59-1.55 1.42-1.07l.24.11a3.33 3.33 0 011.42 2.74v4c0 1.07-.55 1.6-1.42 1.07z" fill="#f9550f"/><path d="M325.72 190.19a2.18 2.18 0 01-.83-.24l-.24-.12a4.2 4.2 0 01-1.77-3.21v-4a1.69 1.69 0 01.82-1.67 1.51 1.51 0 011.55.12l.23.12a4.21 4.21 0 011.78 3.21v4a1.68 1.68 0 01-.83 1.67 1.46 1.46 0 01-.71.12zm-1.3-8.32c-.12 0-.12.12 0 0a.73.73 0 00-.36.72v4a3 3 0 001.19 2.26l.23.12a.59.59 0 00.36.12c.12-.12.24-.24.24-.72v-4a3.07 3.07 0 00-1.19-2.26l-.24-.12a.42.42 0 01-.23-.12z" fill="#fff"/><path d="M332.36 193.63l-.23-.12a3.31 3.31 0 01-1.43-2.73v-4c0-1.07.6-1.54 1.43-1.07l.23.12a3.3 3.3 0 011.43 2.73v4c0 1.07-.71 1.54-1.43 1.07z" fill="#f9550f"/><path d="M333 194.34a2.13 2.13 0 01-.83-.24l-.24-.11a4.23 4.23 0 01-1.78-3.21v-4a1.69 1.69 0 01.83-1.66 1.45 1.45 0 011.54.12l.24.12a4.21 4.21 0 011.78 3.2v4a1.68 1.68 0 01-.83 1.66 1.74 1.74 0 01-.71.12zm-1.46-8.34a.72.72 0 00-.36.71v4a3.06 3.06 0 001.18 2.26l.24.11c.12 0 .24.12.36.12s.24-.23.24-.71v-4a3 3 0 00-1.19-2.25l-.24-.12a.42.42 0 00-.23-.12zM333.31 200.28a9.91 9.91 0 00-3.44-3.56l-3-1.67a3.39 3.39 0 00-3.09-.47l-.47-1a4.15 4.15 0 014.15.47l3 1.67a11.65 11.65 0 013.91 4z" fill="#fff"/><path d="M325 219.16l-1.42.83a.54.54 0 01-.6 0l-1.3-.71c-.12-.12-.24-.24 0-.35l1.42-.84a.58.58 0 01.6 0l1.3.72c.13.12.25.19 0 .35zM328.33 220.94l-1.42.83a.52.52 0 01-.59 0l-1.31-.71c-.12-.12-.24-.24 0-.35l1.42-.83a.54.54 0 01.6 0l1.3.71c.12.12.12.35 0 .35zM324.89 223l-1.42.83a.52.52 0 01-.59 0l-1.31-.71c-.12-.12-.24-.24 0-.35l1.42-.84a.54.54 0 01.6 0l1.3.72a.22.22 0 010 .35zM331.77 219l-1.42.84a.56.56 0 01-.59 0l-1.31-.72c-.12-.12-.24-.23 0-.35l1.42-.83a.54.54 0 01.6 0l1.3.71a.22.22 0 010 .35zM331.77 223l-1.42.83a.54.54 0 01-.6 0l-1.3-.71c-.12-.12-.24-.24 0-.35l1.42-.84a.54.54 0 01.6 0l1.3.72c.12.08.12.35 0 .35zM328.33 225l-1.42.83a.52.52 0 01-.59 0l-1.32-.73c-.12-.12-.24-.24 0-.36l1.42-.83a.54.54 0 01.6 0l1.3.72a.22.22 0 01.01.37zM335.21 220.94l-1.42.83a.52.52 0 01-.59 0l-1.31-.71c-.12-.12-.24-.24 0-.35l1.42-.83a.54.54 0 01.6 0l1.3.71c.12.23.12.35 0 .35zM335 224.86l-1.42.83a.52.52 0 01-.59 0l-1.31-.71c-.12-.12-.23-.24 0-.35l1.43-.84a.56.56 0 01.59 0l1.3.72c.09.12.21.23 0 .35zM331.53 226.88l-1.42.83a.52.52 0 01-.59 0l-1.31-.71c-.11-.12-.23-.24 0-.36l1.43-.83a.52.52 0 01.59 0l1.3.71c.12.12.24.24 0 .36zM338.41 222.84l-1.42.84a.56.56 0 01-.59 0l-1.31-.72c-.12-.12-.23-.23 0-.35l1.43-.84a.56.56 0 01.59 0l1.3.72c.12.12.24.35 0 .35zM338.3 226.76l-1.43.83a.52.52 0 01-.59 0l-1.3-.71c-.12-.12-.24-.24 0-.36l1.42-.83a.52.52 0 01.59 0l1.31.72a.22.22 0 010 .35zM334.86 228.78l-1.43.83a.52.52 0 01-.59 0l-1.31-.71c-.11-.12-.23-.24 0-.36l1.43-.83a.52.52 0 01.59 0l1.31.72a.23.23 0 010 .35zM341.74 224.74l-1.43.83a.52.52 0 01-.59 0l-1.31-.71c-.11-.12-.23-.23 0-.35l1.43-.83a.52.52 0 01.59 0l1.31.71c.11.12.11.35 0 .35zM341.74 228.78l-1.43.83a.52.52 0 01-.59 0l-1.31-.71c-.11-.12-.23-.24 0-.36l1.43-.83a.52.52 0 01.59 0l1.31.72a.23.23 0 010 .35zM338.3 230.68l-1.43.83a.52.52 0 01-.59 0l-1.3-.71c-.12-.12-.24-.24 0-.35l1.42-.84a.52.52 0 01.59 0l1.31.72c.12.23.12.35 0 .35zM345.17 226.76l-1.42.83a.52.52 0 01-.59 0l-1.31-.71c-.12-.12-.23-.24 0-.36l1.43-.83a.52.52 0 01.59 0l1.3.72a.22.22 0 010 .35zM344.94 230.68l-1.42.83a.54.54 0 01-.6 0l-1.3-.71c-.12-.12-.24-.24 0-.35l1.42-.84a.52.52 0 01.59 0l1.31.72c.12.12.24.23 0 .35zM341.5 232.58l-1.42.83a.54.54 0 01-.6 0l-1.3-.71c-.12-.12-.24-.24 0-.36l1.42-.83a.52.52 0 01.59 0l1.31.72c.23.11.23.35 0 .35zM348.38 228.66l-1.43.83a.52.52 0 01-.59 0l-1.3-.71c-.12-.12-.24-.24 0-.35l1.42-.84a.56.56 0 01.59 0l1.31.72c.12.12.23.23 0 .35zM348.26 232.46l-1.42.83a.54.54 0 01-.6 0l-1.3-.71c-.12-.12-.24-.24 0-.35l1.42-.84a.56.56 0 01.59 0l1.31.72c.12.23.12.35 0 .35z" fill="#15282f"/><path d="M365.22 199.33H364v4.51h1.18z" fill="#fff"/><path d="M367 201h-4.74v1.19H367z" fill="#fff"/><path d="M197.74 16.45L172.23 1.72a4.07 4.07 0 00-3.79-.47l-.95.59-7.36 4.51v.12c.36.83 3.8 8 4.16 9.38.11.6 1.18 6.06 2.49 12.47v3.21a12.56 12.56 0 001.66 5.58c1.3 6.77 2.37 12.47 2.49 12.59l3.79 8.9s.12.12.12 0l8.66-5v-.1l-.59-1.78a18.41 18.41 0 01-.36-2.85l11 12.23h.12l8.07-5a.12.12 0 00.12-.12c1-.59 1.54-1.78 1.54-3.56V26.07c-.21-3.45-2.7-7.84-5.66-9.62z" fill="#f9550f"/><path d="M193.46 62.17a1 1 0 01-.71-.36l-9.13-10.21.59 1.78c.12.47 0 .95-.47 1.07l-8.9 5.22-.47-.12a1.13 1.13 0 01-.6-.47L170 49.94c0-.12-1.07-5.82-2.37-12.47a12.68 12.68 0 01-1.78-5.94v-3.21c-1.54-7.72-2.37-12-2.49-12.47-.24-.83-2.26-5.34-4-9.14a.93.93 0 01.36-1.19L168 .41c1.31-.71 3-.47 4.63.48L198 15.61A13.11 13.11 0 01203.9 26v26.79a5.06 5.06 0 01-1.9 4.27l-8.19 5a.53.53 0 01-.35.11zm-12-15.44l12.09 13.54 7.48-4.63.59.59-.47-.71a3.26 3.26 0 001.18-2.85v-26.6a11.78 11.78 0 00-5.1-8.91L171.88 2.43a3.15 3.15 0 00-3-.47l-7.68 4.75c1.07 2.37 3.56 7.72 3.92 8.9.11.48.95 4.64 2.49 12.59v3.45a11 11 0 001.54 5.1l.12.24c1.18 6.41 2.25 11.88 2.37 12.59l3.44 8.07 7.35-4.27L182 52a11.6 11.6 0 01-.36-2.85z" fill="#15282f"/><path d="M197.62 16.45L173.77 2.67l-12 7.48 25.53 13.42 5.33.83 8.31-4.87a11.84 11.84 0 00-3.32-3.08z" fill="#fff"/><path d="M192.87 25.47l-5.93-.95-26.81-14.13 13.64-8.55 24.32 14a10.84 10.84 0 013.56 3.45l.47.71zm-5.22-2.61l5 .83 7.24-4.27a10.91 10.91 0 00-2.49-2.26L174 3.74l-10.32 6.53zM194.77 28.92s-10.32 2.37-10.91 2.73-10.68 8.35-14.12 12.11c.71 3.56 1.19 5.94 1.19 6.06l3.79 8.9s.12.12.12 0l8.66-5v-.12l-.59-1.78a18.74 18.74 0 01-.36-2.85l11 12.23h.12l8.07-5a.12.12 0 00.12-.12c1-.59 1.54-1.78 1.54-3.56V26.07a13 13 0 00-.24-2z" fill="#15282f"/><path d="M202.15 27.88l-6.09 3.68.61 1 6.09-3.69zM201.88 51.73l-6.09 3.69.61 1 6.09-3.69zM189.55 21.55l-25.5-14.72C161 5 158.59 6.47 158.59 10v26.75a12 12 0 005.46 9.5l2.85 1.67a2.73 2.73 0 011.1 1.66 14.43 14.43 0 005.58 9.26c.83.6 1.42.12 1.18-1a26.76 26.76 0 01-.59-4.51c0-.71.47-1 1.07-.6L189.43 61c3.09 1.78 5.46.36 5.46-3.21V31.05a11.66 11.66 0 00-5.34-9.5z" fill="#f9550f"/><path d="M192 62.64a5.23 5.23 0 01-2.84-.83l-14-8.07a17.21 17.21 0 00.59 4 1.75 1.75 0 01-.59 2 1.62 1.62 0 01-1.9-.24 15.19 15.19 0 01-5.93-9.85 2.18 2.18 0 00-.71-1.07L163.81 47a12.88 12.88 0 01-5.93-10.22V10c0-2 .71-3.56 2-4.27a4.91 4.91 0 014.74.35L190 20.84a12.85 12.85 0 016 10.21v26.72c0 2-.72 3.57-2 4.28a4 4 0 01-2 .59zm-17.2-10.8a2.75 2.75 0 01.95.23l14.25 8.2a3 3 0 003.09.35 3.23 3.23 0 001.18-2.85V31.05a11.24 11.24 0 00-5.09-8.78L163.69 7.54a3 3 0 00-3.08-.36 3.26 3.26 0 00-1.19 2.82v26.75a11.25 11.25 0 005.1 8.79l2.85 1.66a3.94 3.94 0 011.54 2.26 13.91 13.91 0 005.1 8.67 25.22 25.22 0 01-.59-4.63 1.57 1.57 0 01.71-1.43.89.89 0 01.71-.23z" fill="#15282f"/><path d="M176.38 20.48c-6.4-3.68-11.62-.71-11.62 6.77s5.24 16.51 11.62 20.19 11.62.71 11.62-6.77-5.21-16.51-11.62-20.19zm-8.77 8.32c0-5.59 3.91-8 8.77-5.11a18.38 18.38 0 015 4.63l-11.88 7.84a17.08 17.08 0 01-1.89-7.36zm8.77 15.32a17.36 17.36 0 01-4.86-4.52l11.86-7.83a16.81 16.81 0 011.9 7.24c-.12 5.58-4.03 7.99-8.9 5.11z" fill="#f9550f"/><path d="M181.6 49.46a11.44 11.44 0 01-5.45-1.66c-6.53-3.8-11.86-13.07-11.86-20.67 0-3.8 1.3-6.65 3.67-8.07s5.46-1.07 8.78.83c6.52 3.8 11.86 13.06 11.86 20.66 0 3.8-1.3 6.65-3.68 8.08a6.58 6.58 0 01-3.32.83zm-10.44-30a5.14 5.14 0 00-2.72.71c-2 1.19-3.09 3.68-3.09 7 0 7.25 5.1 16 11.39 19.72 3 1.66 5.69 2 7.71.83s3.08-3.68 3.08-7c0-7.24-5.1-16-11.38-19.71a9.65 9.65 0 00-4.99-1.59zm9.14 26.44a9.24 9.24 0 01-4.3-1.31 16.53 16.53 0 01-5-4.63l-.36-.47 12.93-8.56.24.6a18.9 18.9 0 011.9 7.48c0 3-1.07 5.11-2.85 6.18a5.12 5.12 0 01-2.56.71zm-8-6.18a18.58 18.58 0 004.27 3.92c2.14 1.31 4.15 1.43 5.7.6s2.25-2.74 2.25-5.23A15 15 0 00183 32.6zM169.27 37l-.27-.6a17.22 17.22 0 01-1.9-7.6c0-3 1.07-5.11 2.85-6.18s4.27-.83 6.76.6a18.81 18.81 0 015.1 4.75l.36.47zm3.2-13.89a4 4 0 00-2 .47c-1.54.83-2.25 2.73-2.25 5.23a17.38 17.38 0 001.54 6.53l10.8-7.25a15 15 0 00-4.39-3.91 7.9 7.9 0 00-3.7-1.08zM149.46 32.12h-1.19v4.51h1.19z" fill="#fff"/><path d="M151.24 33.78h-4.75V35h4.75z" fill="#fff"/><path d="M52.55 119.53L27.16 104.8a4.1 4.1 0 00-3.79-.48l-.95.6-7.36 4.51v.12c.36.83 3.8 8 4.16 9.38.11.6 1.18 6.06 2.49 12.47v3.21a12.56 12.56 0 001.66 5.58c1.3 6.77 2.37 12.47 2.49 12.59l3.79 8.9s.12.12.12 0l8.66-5v-.12l-.59-1.78a18.74 18.74 0 01-.36-2.85l11 12.23h.12l8.07-5a.12.12 0 00.12-.12c1-.59 1.54-1.78 1.54-3.56v-26.6a14 14 0 00-5.78-9.35z" fill="#f9550f"/><path d="M48.4 165.13a1 1 0 01-.72-.36l-9.13-10.21.59 1.78c.12.48 0 .95-.35 1.07l-8.9 5.22-.47-.11a1.2 1.2 0 01-.6-.48L25 152.9l-2.37-12.47a11.44 11.44 0 01-1.78-5.94v-3.21q-2.32-11.76-2.49-12.47c-.24-.83-2.26-5.34-4-9.14a.93.93 0 01.36-1.19l8.3-5.1c1.31-.72 3-.48 4.63.47L53 118.58a13.08 13.08 0 016 10.33v26.6a5.07 5.07 0 01-1.9 4.28l-8.18 5c-.29.34-.41.34-.52.34zm-12.1-15.44l12.1 13.54 7.47-4.63.59.59-.47-.71a3.16 3.16 0 001.18-2.73v-26.6a11.78 11.78 0 00-5.1-8.91l-25.38-14.73a3.15 3.15 0 00-3-.47L16 109.79c1.07 2.14 3.56 7.6 3.92 8.9.12.48.95 4.64 2.49 12.59v3.45a11 11 0 001.54 5.1l.12.12v.24l2.37 12.47 3.44 8.08 7.36-4.28-.48-1.31a12.55 12.55 0 01-.35-3z" fill="#15282f"/><path d="M52.55 119.53L28.7 105.75l-12 7.48 25.51 13.42 5.33.83 8.31-4.87a11.7 11.7 0 00-3.3-3.08z" fill="#fff"/><path d="M47.68 128.43l-5.93-1L15 113.35l13.64-8.55 24.31 14a10.84 10.84 0 013.56 3.45l.48.71zm-5.22-2.49l4.87.83 7.23-4.27a10.68 10.68 0 00-2.49-2.26L28.7 106.82l-10.31 6.53zM49.58 132s-10.32 2.37-10.91 2.73S28 143 24.55 146.84c.71 3.56 1.19 5.94 1.19 6.06l3.79 8.9s.12.12.12 0l8.66-5v-.12l-.59-1.78a18.74 18.74 0 01-.36-2.85l11 12.23h.12l8.07-5a.12.12 0 00.12-.12c.95-.59 1.54-1.78 1.54-3.56V129a13 13 0 00-.24-2z" fill="#15282f"/><path d="M57 131l-6.08 3.69.61 1L57.6 132zM56.72 154.83l-6.09 3.69.62 1 6.08-3.7zM44.36 124.63l-25.5-14.72c-3.08-1.78-5.46-.36-5.46 3.2v26.72a12 12 0 005.46 9.5l2.85 1.67a2.69 2.69 0 011.06 1.66 14.43 14.43 0 005.58 9.26c.83.6 1.42.12 1.19-.95a25.62 25.62 0 01-.6-4.51c0-.71.48-1 1.07-.59l14.23 8.19c3.09 1.78 5.46.36 5.46-3.21v-26.72a11 11 0 00-5.34-9.5z" fill="#f9550f"/><path d="M46.85 165.6a5.19 5.19 0 01-2.84-.83L30 156.7a17.54 17.54 0 00.59 4 1.75 1.75 0 01-.59 2 1.64 1.64 0 01-1.9-.23 15.22 15.22 0 01-5.93-9.86 2.11 2.11 0 00-.71-1.07l-2.85-1.66a12.88 12.88 0 01-5.93-10.22V113c0-2 .71-3.57 2-4.28a4.92 4.92 0 014.74.36L45 123.8a12.87 12.87 0 015.89 10.2v26.84c0 2-.71 3.57-2 4.28a4.13 4.13 0 01-2.04.48zm-17.2-10.8a2.7 2.7 0 011 .23l14.24 8.2a3 3 0 003.08.36 3.27 3.27 0 001.19-2.86V134a11.25 11.25 0 00-5.1-8.78L18.5 110.5a3 3 0 00-3.08-.36 3.27 3.27 0 00-1.19 2.86v26.71a11.07 11.07 0 005.1 8.79l2.85 1.66a3.89 3.89 0 011.54 2.26 13.91 13.91 0 005.1 8.67 25.18 25.18 0 01-.59-4.63 1.58 1.58 0 01.71-1.43 1.69 1.69 0 01.71-.23z" fill="#15282f"/><path d="M42.7 147.67l-2-2.49a9 9 0 00.35-2.61 13.86 13.86 0 00-.35-3l2-.24c.24 0 .36-.36.24-.83l-1.78-4.75a1 1 0 00-.83-.72l-2 .24a21.47 21.47 0 00-4.15-5.1v-2.74a1.45 1.45 0 00-.59-1.07l-3.68-2.13c-.36-.24-.59 0-.59.35v2.74a5.47 5.47 0 00-4.15.35l-2-2.49c-.24-.36-.71-.48-.83-.24l-1.78 2.61a1 1 0 00.24 1.07l2 2.5a8.91 8.91 0 00-.35 2.61 13.93 13.93 0 00.35 3l-2 .23c-.24 0-.36.36-.24.84l1.78 4.75a1 1 0 00.83.71l2-.24a21.72 21.72 0 004.15 5.11v2.73a1.42 1.42 0 00.59 1.07l3.68 2.14c.35.23.59 0 .59-.36V149a5.51 5.51 0 004.15-.36l2 2.5c.24.35.71.47.83.23l1.78-2.61c.12-.14 0-.76-.24-1.09z" fill="#f9550f"/><path d="M33.81 152.78a1.08 1.08 0 01-.6-.12l-3.67-2.14a2 2 0 01-.95-1.54v-2.5a25.84 25.84 0 01-3.92-4.75l-1.66.12c-.59.12-1.18-.47-1.42-1.07L19.81 136a2 2 0 010-1.18.71.71 0 01.71-.36l1.42-.12a19.29 19.29 0 01-.23-2.37 15.62 15.62 0 01.23-2.38l-1.89-2.26a1.64 1.64 0 01-.24-1.78l1.78-2.55a.71.71 0 01.71-.36 1.64 1.64 0 011.07.6l1.78 2.14a5.41 5.41 0 013.44-.36v-2a.8.8 0 01.47-.83 1.3 1.3 0 011 0l3.68 2.14a2 2 0 011 1.54v2.49a26.56 26.56 0 013.91 4.75l1.66-.11a1.65 1.65 0 011.32 1l1.78 4.75a2 2 0 010 1.19.71.71 0 01-.71.36l-1.42.12a17.62 17.62 0 01.24 2.37 14.63 14.63 0 01-.24 2.38l1.9 2.25a1.66 1.66 0 01.23 1.78l-1.78 2.62a.7.7 0 01-.71.35 1.6 1.6 0 01-1.06-.59l-1.78-2.14a5.42 5.42 0 01-3.44.36v2a.8.8 0 01-.48.83c-.16.03-.24.15-.35.15zm-8.43-12.23l.24.35a18.76 18.76 0 004 5l.24.12v3a.66.66 0 00.36.59l3.44 2v-3.21l.71.24a4.72 4.72 0 003.68-.36l.47-.23 2.37 2.85.11.1 1.66-2.38a.43.43 0 00-.24-.36l-2.25-2.73.12-.23a7.65 7.65 0 00.36-2.38 13.2 13.2 0 00-.36-2.85l-.12-.59 2.37-.24v-.12l-1.78-4.75c-.11-.24-.23-.36-.35-.36l-2.37.24-.24-.35a18.6 18.6 0 00-4-5l-.24-.12v-3a.65.65 0 00-.36-.59l-3.44-2v3.2l-.71-.23a4.76 4.76 0 00-3.68.35l-.47.24-2.37-2.85-.12-.12-1.66 2.38a.42.42 0 00.24.35l2.25 2.73-.12.24a7.61 7.61 0 00-.36 2.38 13.2 13.2 0 00.36 2.85l.12.59-2.37.24v.12l1.78 4.75c.11.23.23.35.35.35z" fill="#fff"/><path d="M36.06 139.83c0 2.85-2 3.92-4.39 2.5a9.67 9.67 0 01-4.39-7.6c0-2.85 2-3.92 4.39-2.5a9.63 9.63 0 014.39 7.6z" fill="#f9550f"/><path d="M33.57 143.51a4.45 4.45 0 01-2.25-.71 10.41 10.41 0 01-4.75-8.19 3.77 3.77 0 011.54-3.33 3.52 3.52 0 013.68.36 10.42 10.42 0 014.74 8.19 3.75 3.75 0 01-1.53 3.33 2.49 2.49 0 01-1.43.35zm-3.92-11.4a1.73 1.73 0 00-.83.24 2.7 2.7 0 00-1.06 2.38 9.16 9.16 0 004.15 7.12 2.67 2.67 0 002.61.36 2.7 2.7 0 001.07-2.38 9.17 9.17 0 00-4.16-7.12 3.09 3.09 0 00-1.78-.6z" fill="#fff"/><path d="M28.11 165.72l-1.42.83a.52.52 0 01-.59 0l-1.31-.71c-.12-.12-.24-.24 0-.35l1.42-.84a.58.58 0 01.6 0l1.3.72c.12.12.12.35 0 .35zM31.43 167.62l-1.42.83a.52.52 0 01-.59 0l-1.31-.71c-.12-.12-.24-.24 0-.36l1.42-.83a.54.54 0 01.6 0l1.3.72c.12.11.12.35 0 .35zM28 169.64l-1.42.83a.52.52 0 01-.59 0l-1.31-.71c-.12-.12-.24-.24 0-.36l1.43-.83a.52.52 0 01.59 0l1.3.72a.22.22 0 010 .35zM34.76 165.72l-1.43.83a.52.52 0 01-.59 0l-1.31-.71c-.11-.12-.23-.24 0-.35l1.43-.84a.56.56 0 01.59 0l1.31.72c.24.12.24.23 0 .35zM34.87 169.64l-1.42.83a.52.52 0 01-.59 0l-1.31-.71c-.12-.12-.24-.24 0-.36l1.42-.83a.54.54 0 01.6 0l1.3.72a.22.22 0 010 .35zM31.43 171.66l-1.42.83a.52.52 0 01-.59 0l-1.31-.71c-.12-.12-.24-.24 0-.36l1.42-.83a.54.54 0 01.6 0l1.3.71a.23.23 0 010 .36zM38.31 167.62l-1.42.83a.52.52 0 01-.59 0l-1.3-.71c-.12-.12-.23-.24 0-.36l1.43-.83a.52.52 0 01.59 0l1.3.72c.11.11.11.35-.01.35zM38.08 171.54l-1.43.83a.52.52 0 01-.59 0l-1.31-.71c-.11-.12-.23-.24 0-.36l1.43-.83a.52.52 0 01.59 0l1.31.71a.24.24 0 010 .36zM34.64 173.56l-1.43.83a.52.52 0 01-.59 0l-1.31-.71c-.11-.12-.23-.24 0-.36l1.43-.83a.52.52 0 01.59 0l1.31.71a.24.24 0 010 .36zM41.51 169.52l-1.42.83a.52.52 0 01-.59 0l-1.31-.71c-.11-.12-.23-.24 0-.35l1.43-.84a.56.56 0 01.59 0l1.3.72c.12.12.12.35 0 .35zM41.4 173.44l-1.43.83a.52.52 0 01-.59 0l-1.3-.71c-.12-.12-.24-.24 0-.36l1.42-.83a.52.52 0 01.59 0l1.31.72a.22.22 0 010 .35zM38 175.46l-1.43.83a.52.52 0 01-.59 0l-1.3-.71c-.12-.12-.24-.24 0-.36l1.42-.83a.52.52 0 01.59 0l1.31.71a.23.23 0 010 .36zM44.84 171.42l-1.43.83a.52.52 0 01-.59 0l-1.3-.71c-.12-.12-.24-.24 0-.36l1.42-.83a.56.56 0 01.59 0l1.31.72a.22.22 0 010 .35zM44.84 175.46l-1.43.83a.52.52 0 01-.59 0l-1.3-.71c-.12-.12-.24-.24 0-.36l1.42-.83a.52.52 0 01.59 0l1.31.71a.23.23 0 010 .36zM41.4 177.36l-1.43.83a.52.52 0 01-.59 0l-1.3-.71c-.12-.12-.24-.24 0-.36l1.42-.83a.52.52 0 01.59 0l1.31.71c.12.12.12.36 0 .36zM48.28 173.44l-1.43.83a.52.52 0 01-.59 0l-1.3-.71c-.12-.12-.24-.24 0-.36l1.42-.83a.52.52 0 01.59 0l1.31.72a.22.22 0 010 .35zM48 177.24l-1.42.83a.54.54 0 01-.6 0l-1.3-.71c-.12-.12-.24-.24 0-.36l1.42-.83a.54.54 0 01.6 0l1.3.71q.22.36 0 .36zM44.6 179.26l-1.42.83a.54.54 0 01-.6 0l-1.3-.71c-.12-.12-.24-.24 0-.36l1.42-.83a.52.52 0 01.59 0l1.31.71a.22.22 0 010 .36zM51.48 175.34l-1.42.83a.54.54 0 01-.6 0l-1.3-.71c-.12-.12-.24-.24 0-.36l1.42-.83a.52.52 0 01.59 0l1.31.72a.22.22 0 010 .35zM51.36 179.14l-1.42.83a.54.54 0 01-.6 0l-1.3-.71c-.12-.12-.24-.24 0-.36l1.42-.83a.54.54 0 01.6 0l1.3.72c.12.11.12.35 0 .35z" fill="#15282f"/><path d="M3 141.73H1.78v4.52H3z" fill="#fff"/><path d="M4.74 143.4H0v1.18h4.74z" fill="#fff"/></svg>