<?xml version="1.0" standalone="no"?>
<!DOCTYPE svg PUBLIC "-//W3C//DTD SVG 20010904//EN"
 "http://www.w3.org/TR/2001/REC-SVG-20010904/DTD/svg10.dtd">
<svg version="1.0" xmlns="http://www.w3.org/2000/svg"
 width="260.000000pt" height="260.000000pt" viewBox="0 0 260.000000 260.000000"
 preserveAspectRatio="xMidYMid meet">
<metadata>
Created by potrace 1.14, written by Peter Selinger 2001-2017
</metadata>
<g transform="translate(0.000000,260.000000) scale(0.100000,-0.100000)"
fill="#000000" stroke="none">
<path d="M51 2278 l0 -313 244 1 245 0 0 -60 c1 -34 1 -366 1 -739 l0 -677
140 -1 c173 -1 198 -1 357 0 l128 1 0 731 c-1 402 1 734 4 738 6 9 743 6 779
-3 132 -32 220 -82 308 -174 174 -183 203 -471 69 -690 -66 -109 -191 -208
-307 -243 -94 -29 -82 -27 -301 -28 l-198 -1 0 -343 0 -342 -177 0 -177 0 -1
90 0 90 -67 2 -68 2 0 -160 0 -159 313 0 312 0 0 331 c0 182 3 336 7 342 4 6
57 11 140 12 73 1 149 5 168 10 349 73 585 367 575 715 -3 122 -21 197 -71
297 -71 142 -185 254 -329 323 -139 66 -165 69 -667 70 l-448 0 0 -738 0 -739
-175 0 c-119 0 -175 4 -176 11 0 6 -1 338 -1 739 l-1 727 -244 0 -243 0 0 174
c0 130 3 175 13 178 6 2 305 4 662 3 l650 0 3 -93 3 -92 64 0 c36 0 66 3 66 8
1 4 2 76 3 160 l2 152 -803 0 -803 0 1 -312z"/>
<path d="M1557 1612 l-37 -3 2 -217 3 -217 190 0 c207 0 220 3 279 61 46 47
60 83 60 154 0 48 -6 76 -22 108 -26 49 -89 99 -137 108 -36 6 -277 11 -338 6z
m330 -150 c13 -7 25 -25 29 -40 3 -15 7 -33 9 -39 3 -7 -6 -25 -19 -39 -27
-32 -83 -42 -186 -34 l-64 5 -2 75 c0 41 1 78 2 81 6 12 209 4 231 -9z"/>
</g>
</svg>
