<svg xmlns="http://www.w3.org/2000/svg" xmlns:xlink="http://www.w3.org/1999/xlink" style="display:none"><symbol id="burger"><path d="M22 17H0v-2.4h22zM22 9.7H0V7.3h22zM22 2.4H0V0h22z"/></symbol><symbol id="checkbox-ok"><path fill-rule="evenodd" clip-rule="evenodd" d="M10.848 1.06a1 1 0 0 1-.033 1.413l-5.5 5.25a1 1 0 0 1-1.38 0l-2.75-2.625a1 1 0 0 1 1.38-1.446l2.06 1.966 4.81-4.591a1 1 0 0 1 1.413.033z" fill="#fff"/></symbol><symbol id="close"><path d="M5.27 7 0 12.27 1.73 14 7 8.73 12.27 14 14 12.27 8.73 7 14 1.73 12.27 0 7 5.27 1.73 0 0 1.73z"/></symbol><symbol id="down-ctrl"><path d="M11 12a1 1 0 0 1-.71-.29l-10-10A1 1 0 0 1 1.71.29L11 9.59l9.29-9.3a1 1 0 1 1 1.42 1.42l-10 10A1 1 0 0 1 11 12z"/></symbol><symbol id="envelope"><path d="M20 .73V.48H.46v13a1.47 1.47 0 0 0 .45 1.06 1.57 1.57 0 0 0 .63.46h16.92a1.57 1.57 0 0 0 1.09-.44A1.47 1.47 0 0 0 20 13.5V.73zM1.54 2.45 7.18 7.5l-5.64 5.05zM2.75 13.5l5.57-5 1.16 1a.78.78 0 0 0 1 0l1.16-1 5.57 5zm10.07-6 5.64-5v10.1z"/></symbol><symbol id="facebook"><path d="M17.28 0H.72A.72.72 0 0 0 0 .72v16.56a.72.72 0 0 0 .72.72h16.56a.72.72 0 0 0 .72-.72V.72a.72.72 0 0 0-.72-.72zM15.2 5.25h-1.44c-1.12 0-1.34.54-1.34 1.33v1.73h2.69L14.76 11h-2.34v7H9.61v-7H7.27V8.31h2.34v-2a3.27 3.27 0 0 1 3.5-3.59 17.25 17.25 0 0 1 2.09.11v2.42z"/></symbol><symbol id="left-ctrl"><path d="M11 22a1 1 0 0 1-.71-.29l-10-10a1 1 0 0 1 0-1.42l10-10a1 1 0 1 1 1.42 1.42L2.41 11l9.3 9.29a1 1 0 0 1 0 1.42A1 1 0 0 1 11 22z"/></symbol><symbol id="linkedIn"><path d="M16.5 0h-15A1.5 1.5 0 0 0 0 1.5v15A1.5 1.5 0 0 0 1.5 18h15a1.5 1.5 0 0 0 1.5-1.5v-15A1.5 1.5 0 0 0 16.5 0zM6 13.5a.75.75 0 0 1-1.5 0v-6a.75.75 0 0 1 1.5 0zm-.75-7.87a1.19 1.19 0 0 1-.63-.19 1.21 1.21 0 0 1-.41-.51 1.11 1.11 0 0 1-.06-.65A1.08 1.08 0 0 1 5 3.4a1.11 1.11 0 0 1 .65.06 1.16 1.16 0 0 1 .51.42 1.13 1.13 0 0 1 .19.62 1.13 1.13 0 0 1-1.1 1.13zm9 7.87a.75.75 0 0 1-1.5 0v-3.37a1.88 1.88 0 1 0-3.75 0v3.37a.75.75 0 0 1-1.5 0v-6a.76.76 0 0 1 .67-.75.72.72 0 0 1 .51.14.75.75 0 0 1 .3.44 3.43 3.43 0 0 1 3.48-.19 3.36 3.36 0 0 1 1.79 3z"/></symbol><symbol id="minus-ctrl"><path d="M13 0a13 13 0 1 0 9.19 3.81A13 13 0 0 0 13 0zm5 14H8a1 1 0 1 1 0-2h10a1 1 0 1 1 0 2z"/></symbol><symbol id="pin"><path d="M15 19.5h-4.64a25.84 25.84 0 0 0 2.21-2.23c2.57-3 3.93-6.08 3.93-9A8.25 8.25 0 0 0 0 8.25c0 2.94 1.36 6.06 3.93 9a25.84 25.84 0 0 0 2.21 2.25H1.5a.75.75 0 0 0 0 1.5H15a.75.75 0 0 0 0-1.5zM8.25 5.25a3 3 0 0 1 1.67.51A3 3 0 0 1 11 7.1 3 3 0 0 1 7.1 11a3 3 0 0 1-1.34-1.1 3 3 0 0 1 2.49-4.65z"/></symbol><symbol id="plus-ctrl"><path d="M13 0a13 13 0 1 0 9.19 3.81A13 13 0 0 0 13 0zm5 14h-4v4a1 1 0 1 1-2 0v-4H8a1 1 0 1 1 0-2h4V8a1 1 0 1 1 2 0v4h4a1 1 0 1 1 0 2z"/></symbol><symbol id="right-ctrl"><path d="M1 22a1 1 0 0 1-.71-.29 1 1 0 0 1 0-1.42L9.59 11 .29 1.71A1 1 0 0 1 1.71.29l10 10a1 1 0 0 1 0 1.42l-10 10A1 1 0 0 1 1 22z"/></symbol><symbol id="skype"><path d="M17.37 10.5a8.73 8.73 0 0 0 .14-1.5 8.56 8.56 0 0 0-.67-3.32A8.67 8.67 0 0 0 15 2.93a8.4 8.4 0 0 0-2.71-1.82A8.32 8.32 0 0 0 9 .44a8.61 8.61 0 0 0-1.6.15 5 5 0 0 0-7 2.52A5.14 5.14 0 0 0 0 5a5.08 5.08 0 0 0 .63 2.49A9 9 0 0 0 .5 9 8.53 8.53 0 0 0 3 15a8.32 8.32 0 0 0 2.7 1.81 8.46 8.46 0 0 0 3.3.67 9.27 9.27 0 0 0 1.49-.13A5.13 5.13 0 0 0 13 18a5 5 0 0 0 5-5 5.14 5.14 0 0 0-.63-2.5zM9 14.18c-3 0-4.37-1.49-4.37-2.6a1 1 0 0 1 1-1c1.29 0 1 1.86 3.37 1.86 1.23 0 1.92-.67 1.92-1.36 0-.41-.21-.87-1-1.07l-2.67-.65C5.09 8.81 4.7 7.64 4.7 6.54c0-2.29 2.15-3.15 4.16-3.15s4.05 1 4.05 2.41a1 1 0 0 1-1.08.92c-1.11 0-.9-1.52-3.13-1.52-1.1 0-1.7.5-1.7 1.21s.87.94 1.63 1.12l2 .44c2.18.49 2.73 1.76 2.73 3-.02 1.82-1.45 3.21-4.36 3.21z"/></symbol><symbol id="tel"><path d="M17 9h2a8.81 8.81 0 0 0-9-9v2a6.77 6.77 0 0 1 7 7z"/><path d="M10 6c2.1 0 3 .9 3 3h2c0-3.22-1.77-5-5-5zm3.42 5.44a1 1 0 0 0-.7-.26 1 1 0 0 0-.69.31L9.64 14a5.72 5.72 0 0 1-2.93-1.66 5.79 5.79 0 0 1-1.66-2.98L7.51 7a1 1 0 0 0 0-1.39l-3.65-4.1a1 1 0 0 0-.68-.32 1 1 0 0 0-.71.24L.3 3.29a1 1 0 0 0-.3.65A15.07 15.07 0 0 0 4.3 14.7 15.12 15.12 0 0 0 14.71 19h.35a1 1 0 0 0 .65-.29l1.86-2.17a1 1 0 0 0-.08-1.39z"/></symbol><symbol id="telegram"><path d="M18 9a9 9 0 1 1-9-9 9 9 0 0 1 9 9zM9.32 6.64 4.07 8.9c-.42.17-.65.34-.67.5s.31.38.78.53l.2.06a5.92 5.92 0 0 0 1.4.33 1.65 1.65 0 0 0 1-.36q3.67-2.48 3.8-2.51a.23.23 0 0 1 .18 0 .2.2 0 0 1 0 .16A25.37 25.37 0 0 1 8.7 9.68l-.4.37-.21.21c-.43.41-.75.72 0 1.23l1 .64 1 .71.31.21a1.7 1.7 0 0 0 1.12.46c.24 0 .49-.24.61-.92.3-1.59.89-5 1-6.47a1.36 1.36 0 0 0 0-.35.41.41 0 0 0-.13-.25.67.67 0 0 0-.35-.1c-.31 0-.83.18-3.33 1.22z"/></symbol><symbol id="viber"><path d="M10.89 0C9 0 4.77.34 2.43 2.47.69 4.18.08 6.7 0 9.82s-.13 9 5.56 10.54v2.42s0 1 .61 1.17 1.25-.5 2-1.3l1.43-1.58a22.14 22.14 0 0 0 7.21-.53c.79-.25 5.23-.81 6-6.65.74-6-.37-9.83-2.37-11.55-.6-.55-3-2.3-8.45-2.32h-1zM11 1.7h.89c4.59 0 6.78 1.38 7.29 1.84 1.69 1.43 2.55 4.85 1.92 9.89-.61 4.88-4.21 5.19-4.88 5.4a20.55 20.55 0 0 1-6.21.52s-2.46 2.94-3.23 3.7a.4.4 0 0 1-.36.15c-.13 0-.16-.19-.16-.41v-4c-4.82-1.32-4.54-6.3-4.49-8.9s.55-4.73 2-6.17c2-1.77 5.53-2 7.18-2zm.36 2.6h-.11l-.1.07a.31.31 0 0 0-.07.09.5.5 0 0 0 0 .12.3.3 0 0 0 .3.3 5.72 5.72 0 0 1 4.02 1.61 5.78 5.78 0 0 1 1.65 4.34.31.31 0 0 0 .31.3.31.31 0 0 0 .3-.3 6.43 6.43 0 0 0-.42-2.57 6.59 6.59 0 0 0-1.41-2.19 6.27 6.27 0 0 0-4.51-1.77zM7.33 5a1 1 0 0 0-.62.12 4.6 4.6 0 0 0-1.16.94 1.86 1.86 0 0 0-.46 1 1.24 1.24 0 0 0 0 .54 13.12 13.12 0 0 0 1.22 2.6 15.46 15.46 0 0 0 2.39 3.12 16 16 0 0 0 3.3 2.46A14.54 14.54 0 0 0 14.67 17a1.44 1.44 0 0 0 .4.06 1.88 1.88 0 0 0 1.11-.47 4.52 4.52 0 0 0 .94-1.15.83.83 0 0 0-.18-1.12 13.75 13.75 0 0 0-2.17-1.54 1 1 0 0 0-1.25.17l-.46.57a.82.82 0 0 1-.65.24 5.92 5.92 0 0 1-4-4 .82.82 0 0 1 .26-.65l.56-.45a1 1 0 0 0 .17-1.25 12.62 12.62 0 0 0-1.56-2.12.82.82 0 0 0-.51-.29zm4.52.89a.3.3 0 1 0 0 .6 3.77 3.77 0 0 1 1.45.31 3.85 3.85 0 0 1 1.23.84 3.52 3.52 0 0 1 .71 1.19 3.4 3.4 0 0 1 .19 1.38.4.4 0 0 0 .09.21.36.36 0 0 0 .22.09.31.31 0 0 0 .3-.3 4.09 4.09 0 0 0-1.08-3 4.4 4.4 0 0 0-3.08-1.34zm.5 1.62a.31.31 0 1 0 0 .61 1.45 1.45 0 0 1 1.54 1.58.33.33 0 0 0 .11.2.32.32 0 0 0 .21.08.2.2 0 0 0 .11 0 .23.23 0 0 0 .1-.07.21.21 0 0 0 .06-.1.5.5 0 0 0 0-.12 2.05 2.05 0 0 0-2.12-2.19z"/></symbol></svg>