<svg xmlns="http://www.w3.org/2000/svg" width="26" height="26" viewBox="0 0 26 26" aria-hidden="true" focusable="false" fill="currentColor"><path d="M13,0a13,13,0,0,0,0,26,1,1,0,0,0,0-2A11,11,0,1,1,24,13a1,1,0,0,0,2,0A13,13,0,0,0,13,0Z"/><path d="M13,20a7,7,0,1,1,7-7,1,1,0,0,0,2,0,9,9,0,1,0-9,9,1,1,0,0,0,0-2Z"/><path d="M13,10a3,3,0,0,1,3,3,1,1,0,0,0,2,0,5,5,0,1,0-5,5,1,1,0,0,0,0-2,3,3,0,0,1,0-6Z"/><path d="M25,17a1,1,0,0,0-1-1H17a1,1,0,0,0-.38.08,1,1,0,0,0-.54.54A1,1,0,0,0,16,17v7a1,1,0,0,0,2,0V19.41l5.29,5.3a1,1,0,0,0,1.42,0,1,1,0,0,0,0-1.42L19.41,18H24A1,1,0,0,0,25,17Z"/></svg>