<svg xmlns="http://www.w3.org/2000/svg" width="22" height="26" viewBox="0 0 22 26" aria-hidden="true" focusable="false" fill="currentColor"><path d="M22,8a1.22,1.22,0,0,0-.07-.38h0a.93.93,0,0,0-.21-.33l-7-7a1,1,0,0,0-.32-.21A1,1,0,0,0,14,0H2A2,2,0,0,0,.59.59,2,2,0,0,0,0,2V24a2,2,0,0,0,.59,1.41A2,2,0,0,0,2,26H20a2,2,0,0,0,.76-.15,2,2,0,0,0,1.09-1.09A2,2,0,0,0,22,24V8ZM15,3.41,18.59,7H15ZM2,24V2H13V8a1,1,0,0,0,1,1h6V24Z"/><path d="M15,13H7a1,1,0,0,0,0,2h8a1,1,0,0,0,0-2Z"/><path d="M15,17H7a1,1,0,0,0,0,2h8a1,1,0,0,0,0-2Z"/></svg>