<svg xmlns="http://www.w3.org/2000/svg" viewBox="0 0 18 18"><title>linkedIn</title><path d="M16.5,0H1.5A1.5,1.5,0,0,0,0,1.5v15A1.5,1.5,0,0,0,1.5,18h15A1.5,1.5,0,0,0,18,16.5V1.5A1.5,1.5,0,0,0,16.5,0ZM6,13.5a.75.75,0,0,1-1.5,0v-6A.75.75,0,0,1,6,7.5ZM5.25,5.63a1.19,1.19,0,0,1-.63-.19,1.21,1.21,0,0,1-.41-.51,1.11,1.11,0,0,1-.06-.65A1.08,1.08,0,0,1,5,3.4a1.11,1.11,0,0,1,.65.06,1.16,1.16,0,0,1,.51.42,1.13,1.13,0,0,1,.19.62A1.13,1.13,0,0,1,5.25,5.63Zm9,7.87a.75.75,0,0,1-1.5,0V10.13a1.88,1.88,0,1,0-3.75,0V13.5a.75.75,0,0,1-1.5,0v-6a.76.76,0,0,1,.67-.75.72.72,0,0,1,.51.14.75.75,0,0,1,.3.44,3.43,3.43,0,0,1,3.48-.19,3.36,3.36,0,0,1,1.79,3Z"/></svg>