<svg xmlns="http://www.w3.org/2000/svg" width="26" height="24" viewBox="0 0 26 24" aria-hidden="true" focusable="false" fill="currentColor"><path d="M24,4H19V3a3,3,0,0,0-3-3H10A3,3,0,0,0,7.88.88,3,3,0,0,0,7,3V4H2A2,2,0,0,0,0,6V22a2,2,0,0,0,2,2H24a2,2,0,0,0,2-2V6A2,2,0,0,0,24,4ZM9,3a1.05,1.05,0,0,1,.29-.71A1.05,1.05,0,0,1,10,2h6a1.05,1.05,0,0,1,.71.29A1.05,1.05,0,0,1,17,3V4H9ZM24,6v5.19A23,23,0,0,1,13,14H13A22.94,22.94,0,0,1,2,11.19V6ZM2,22V13.45A24.9,24.9,0,0,0,13,16H13a24.93,24.93,0,0,0,11-2.55V22Z"/><path d="M11.5,12h3a1,1,0,0,0,0-2h-3a1,1,0,0,0,0,2Z"/></svg>