<svg xmlns="http://www.w3.org/2000/svg" width="26" height="26" viewBox="0 0 26 26" aria-hidden="true" focusable="false" fill="currentColor"><path d="M25.71,24.29l-5.41-5.4a11.52,11.52,0,1,0-1.41,1.41l5.4,5.41A1,1,0,0,0,25,26a1,1,0,0,0,.71-.29A1,1,0,0,0,25.71,24.29ZM2,11.5A9.5,9.5,0,1,1,11.5,21,9.51,9.51,0,0,1,2,11.5Z"/><path d="M12.81,10.62h-3a1.47,1.47,0,0,1-1.06-.43,1.5,1.5,0,0,1-.44-1.07,1.5,1.5,0,0,1,1.5-1.5h4.5a1,1,0,0,0,0-2h-2v-1a1,1,0,1,0-2,0v1h-.5a3.5,3.5,0,1,0,0,7h3a1.5,1.5,0,0,1,1.5,1.5,1.54,1.54,0,0,1-.44,1.07,1.51,1.51,0,0,1-1.06.43H8.31a1,1,0,0,0,0,2h2v1a1,1,0,0,0,2,0v-1h.5a3.5,3.5,0,0,0,0-7Z"/></svg>