<svg width="24" height="26" viewBox="0 0 24 26" xmlns="http://www.w3.org/2000/svg"><path d="m12 0c-3.185 0-6.079 0.6907-8.258 1.879-2.178 1.188-3.742 2.969-3.742 5.121v12c0 2.152 1.564 3.933 3.742 5.121s5.073 1.879 8.258 1.879c3.185 0 6.079-0.6907 8.258-1.879 2.178-1.188 3.742-2.969 3.742-5.121v-12c0-2.152-1.564-3.933-3.742-5.121-2.178-1.188-5.073-1.879-8.258-1.879zm0 2c2.89 0 5.496 0.6514 7.299 1.635 1.803 0.9834 2.701 2.204 2.701 3.365 0 1.161-0.8983 2.382-2.701 3.365-1.803 0.9834-4.409 1.635-7.299 1.635-2.89 0-5.496-0.6514-7.299-1.635-1.803-0.9834-2.701-2.204-2.701-3.365 0-1.161 0.8983-2.382 2.701-3.365 1.803-0.9834 4.409-1.635 7.299-1.635zm-10 8.918c0.5115 0.4483 1.099 0.8524 1.742 1.203 2.178 1.188 5.073 1.879 8.258 1.879 3.185 0 6.079-0.6907 8.258-1.879 0.643-0.3507 1.231-0.7548 1.742-1.203v2.082c0 1.161-0.8983 2.382-2.701 3.365-1.803 0.9834-4.409 1.635-7.299 1.635-2.89 0-5.496-0.6514-7.299-1.635-1.803-0.9834-2.701-2.204-2.701-3.365zm0 6c0.5115 0.4483 1.099 0.8524 1.742 1.203 2.178 1.188 5.073 1.879 8.258 1.879 3.185 0 6.079-0.6907 8.258-1.879 0.643-0.3507 1.231-0.7548 1.742-1.203v2.082c0 1.161-0.8983 2.382-2.701 3.365-1.803 0.9834-4.409 1.635-7.299 1.635-2.89 0-5.496-0.6514-7.299-1.635-1.803-0.9834-2.701-2.204-2.701-3.365z" /></svg>
