<svg xmlns="http://www.w3.org/2000/svg" width="18" height="18" viewBox="0 0 18 18"><title>skype</title><path d="M17.37,10.5A8.73,8.73,0,0,0,17.51,9a8.56,8.56,0,0,0-.67-3.32A8.67,8.67,0,0,0,15,2.93a8.4,8.4,0,0,0-2.71-1.82A8.32,8.32,0,0,0,9,.44,8.61,8.61,0,0,0,7.4.59a5,5,0,0,0-7,2.52A5.14,5.14,0,0,0,0,5,5.08,5.08,0,0,0,.63,7.49,9,9,0,0,0,.5,9,8.53,8.53,0,0,0,3,15,8.32,8.32,0,0,0,5.7,16.81a8.46,8.46,0,0,0,3.3.67,9.27,9.27,0,0,0,1.49-.13A5.13,5.13,0,0,0,13,18a5,5,0,0,0,5-5A5.14,5.14,0,0,0,17.37,10.5ZM9,14.18c-3,0-4.37-1.49-4.37-2.6a1,1,0,0,1,1-1c1.29,0,1,1.86,3.37,1.86,1.23,0,1.92-.67,1.92-1.36,0-.41-.21-.87-1-1.07L7.25,9.36C5.09,8.81,4.7,7.64,4.7,6.54c0-2.29,2.15-3.15,4.16-3.15s4.05,1,4.05,2.41a1,1,0,0,1-1.08.92c-1.11,0-.9-1.52-3.13-1.52C7.6,5.2,7,5.7,7,6.41s.87.94,1.63,1.12l2,.44c2.18.49,2.73,1.76,2.73,3C13.34,12.79,11.91,14.18,9,14.18Z"/></svg>