<svg xmlns="http://www.w3.org/2000/svg" width="19" height="19" viewBox="0 0 19 19"><title>tel</title><path d="M17,9h2a8.81,8.81,0,0,0-9-9V2A6.77,6.77,0,0,1,17,9Z"/><path d="M10,6c2.1,0,3,.9,3,3h2c0-3.22-1.77-5-5-5Zm3.42,5.44a1,1,0,0,0-.7-.26,1,1,0,0,0-.69.31L9.64,14a5.72,5.72,0,0,1-2.93-1.66A5.79,5.79,0,0,1,5.05,9.36L7.51,7a1,1,0,0,0,0-1.39L3.86,1.51a1,1,0,0,0-.68-.32,1,1,0,0,0-.71.24L.3,3.29A1,1,0,0,0,0,3.94,15.07,15.07,0,0,0,4.3,14.7,15.12,15.12,0,0,0,14.71,19h.35a1,1,0,0,0,.65-.29l1.86-2.17a1,1,0,0,0-.08-1.39Z"/></svg>