<svg xmlns="http://www.w3.org/2000/svg" viewBox="0 0 18 18"><title>telegram</title><path d="M18,9A9,9,0,1,1,9,0,9,9,0,0,1,18,9ZM9.32,6.64,4.07,8.9c-.42.17-.65.34-.67.5s.31.38.78.53l.2.06a5.92,5.92,0,0,0,1.4.33,1.65,1.65,0,0,0,1-.36q3.67-2.48,3.8-2.51a.23.23,0,0,1,.18,0,.2.2,0,0,1,0,.16A25.37,25.37,0,0,1,8.7,9.68l-.4.37-.21.21c-.43.41-.75.72,0,1.23l1,.64,1,.71.31.21a1.7,1.7,0,0,0,1.12.46c.24,0,.49-.24.61-.92.3-1.59.89-5,1-6.47a1.36,1.36,0,0,0,0-.35A.41.41,0,0,0,13,5.52a.67.67,0,0,0-.35-.1C12.34,5.42,11.82,5.6,9.32,6.64Z"/></svg>