<svg xmlns="http://www.w3.org/2000/svg" width="23" height="24" viewBox="0 0 23 24"><title>viber</title><path d="M10.89,0C9,0,4.77.34,2.43,2.47.69,4.18.08,6.7,0,9.82s-.13,9,5.56,10.54v2.42s0,1,.61,1.17,1.25-.5,2-1.3L9.6,21.07a22.14,22.14,0,0,0,7.21-.53c.79-.25,5.23-.81,6-6.65.74-6-.37-9.83-2.37-11.55h0c-.6-.55-3-2.3-8.45-2.32,0,0-.4,0-1,0ZM11,1.7c.55,0,.89,0,.89,0,4.59,0,6.78,1.38,7.29,1.84,1.69,1.43,2.55,4.85,1.92,9.89-.61,4.88-4.21,5.19-4.88,5.4a20.55,20.55,0,0,1-6.21.52s-2.46,2.94-3.23,3.7a.4.4,0,0,1-.36.15c-.13,0-.16-.19-.16-.41l0-4c-4.82-1.32-4.54-6.3-4.49-8.9s.55-4.73,2-6.17c2-1.77,5.53-2,7.18-2Zm.36,2.6-.11,0-.1.07a.31.31,0,0,0-.07.09.5.5,0,0,0,0,.12.3.3,0,0,0,.3.3A5.72,5.72,0,0,1,15.4,6.49a5.78,5.78,0,0,1,1.65,4.34.31.31,0,0,0,.31.3h0a.31.31,0,0,0,.3-.3,6.43,6.43,0,0,0-.42-2.57,6.59,6.59,0,0,0-1.41-2.19A6.27,6.27,0,0,0,11.32,4.3ZM7.33,5a1,1,0,0,0-.62.12h0a4.6,4.6,0,0,0-1.16.94,1.86,1.86,0,0,0-.46,1,1.24,1.24,0,0,0,0,.54h0a13.12,13.12,0,0,0,1.22,2.6A15.46,15.46,0,0,0,8.7,13.32l0,0,0,0,0,0,0,0A16,16,0,0,0,12,15.78,14.54,14.54,0,0,0,14.67,17h0a1.44,1.44,0,0,0,.4.06,1.88,1.88,0,0,0,1.11-.47,4.52,4.52,0,0,0,.94-1.15h0a.83.83,0,0,0-.18-1.12,13.75,13.75,0,0,0-2.17-1.54,1,1,0,0,0-1.25.17l-.46.57a.82.82,0,0,1-.65.24h0a5.92,5.92,0,0,1-4-4,.82.82,0,0,1,.26-.65l.56-.45a1,1,0,0,0,.17-1.25A12.62,12.62,0,0,0,7.84,5.29.82.82,0,0,0,7.33,5Zm4.52.89a.3.3,0,1,0,0,.6,3.77,3.77,0,0,1,1.45.31,3.85,3.85,0,0,1,1.23.84,3.52,3.52,0,0,1,.71,1.19,3.4,3.4,0,0,1,.19,1.38.4.4,0,0,0,.09.21.36.36,0,0,0,.22.09h0a.31.31,0,0,0,.3-.3,4.09,4.09,0,0,0-1.08-3,4.4,4.4,0,0,0-3.08-1.34Zm.5,1.62a.31.31,0,1,0,0,.61,1.45,1.45,0,0,1,1.54,1.58A.33.33,0,0,0,14,9.9a.32.32,0,0,0,.21.08h0a.2.2,0,0,0,.11,0,.23.23,0,0,0,.1-.07.21.21,0,0,0,.06-.1.5.5,0,0,0,0-.12A2.05,2.05,0,0,0,12.36,7.5Z" transform="translate(0 0)"/></svg>